<svg xmlns="http://www.w3.org/2000/svg" viewBox="0 0 320.64 92.49"><g id="Layer_2" data-name="Layer 2"><g id="Layer_1-2" data-name="Layer 1"><path d="M1.09,3.72,117.33,21.94,233.57,40.17l65.17,10.21c1.89.3,2.7-2.59.8-2.89L183.29,29.27,67.05,11.05,1.88.83C0,.53-.82,3.42,1.09,3.72Z"/><path d="M276,2.62l19.82,23.07L305.58,37c3.1,3.61,6.51,7.11,9.21,11.05,2.22,3.24,4,7.35,2,11.15-1.83,3.44-5.52,5.48-8.76,7.38a227.44,227.44,0,0,1-24.62,12.49,227,227,0,0,1-29.53,10.43,1.5,1.5,0,0,0,.8,2.89A231.19,231.19,0,0,0,308.16,70c3.57-2.06,7.42-4.14,10-7.45A11.51,11.51,0,0,0,319.74,51c-1.69-4.26-4.87-7.68-7.81-11.11l-10.4-12.11L278.15.49c-1.26-1.46-3.38.67-2.13,2.13Z"/></g></g></svg>