<svg xmlns="http://www.w3.org/2000/svg" viewBox="0 0 42.82 41.93"><g id="Layer_2" data-name="Layer 2"><g id="Layer_1-2" data-name="Layer 1"><path d="M16.76,2.83l11.52,7.35,5.87,3.74,2.72,1.74c.75.47,2.23,1.07,2.75,1.81.66,1-2.31,2.09-3,2.45-1.7.93-3.37,1.94-5,3A69.68,69.68,0,0,0,14,39.77c-1.16,1.55,1.45,3,2.59,1.51A67.43,67.43,0,0,1,34.94,24.4c1.72-1.07,3.56-1.95,5.29-3,1.44-.89,2.84-2.28,2.55-4.12-.33-2-2.44-3-4-4l-6.29-4L18.27.24c-1.63-1-3.14,1.56-1.51,2.59Z"/><path d="M7.69,5.61l11.56,6.15,5.66,3,2.62,1.4,1.53.81c.17.09,1.07.74,1.24.68l.1.07-.08-.38c-.06,0-.29.19-.35.2-.37.09-.75.26-1.13.36-.89.23-1.77.48-2.65.74q-2.75.83-5.42,1.88a73.38,73.38,0,0,0-9.91,4.77A72.5,72.5,0,0,0,.5,32.61C-1,33.85,1.15,36,2.62,34.73A68.9,68.9,0,0,1,24,22.53c1.94-.68,3.9-1.25,5.89-1.78,1.51-.4,3.32-1.26,3.48-3,.17-2.05-1.92-2.87-3.41-3.67L23.6,10.67,9.21,3C7.51,2.11,6,4.7,7.69,5.61Z"/></g></g></svg>