<svg xmlns="http://www.w3.org/2000/svg" viewBox="0 0 70.46 41.93"><g id="Layer_2" data-name="Layer 2"><g id="Layer_1-2" data-name="Layer 1"><path d="M1.44,18.64l52.94,3c1.93.11,1.92-2.89,0-3l-52.94-3c-1.92-.11-1.92,2.89,0,3Z"/><path d="M44.41,2.83l11.52,7.35,5.87,3.74,2.72,1.74c.74.47,2.22,1.07,2.74,1.81.67,1-2.3,2.09-3,2.45q-2.56,1.39-5,3A69.92,69.92,0,0,0,41.68,39.77c-1.15,1.55,1.45,3,2.59,1.51A67.62,67.62,0,0,1,62.59,24.4c1.72-1.07,3.56-1.95,5.29-3,1.44-.89,2.84-2.28,2.54-4.12-.32-2-2.43-3-4-4l-6.28-4L45.92.24c-1.63-1-3.14,1.56-1.51,2.59Z"/></g></g></svg>