<svg xmlns="http://www.w3.org/2000/svg" viewBox="0 0 317.89 93.89"><g id="Layer_2" data-name="Layer 2"><g id="Layer_1-2" data-name="Layer 1"><path d="M1.87,93.85,58.43,80.92,115,68l56.84-13,56.56-12.93L285,29.13,292,27.52c1.88-.43,1.09-3.33-.8-2.9L234.66,37.55,178.1,50.48l-56.84,13L64.7,76.41,8.14,89.34,1.07,91c-1.88.43-1.08,3.33.8,2.9Z"/><path d="M257.67,3l42.26,16.35,10.69,4.13c2.3.89,5.64,2.12,3.72,5.12A17.47,17.47,0,0,1,311.09,32l-4.43,4-8.49,7.67-18.82,17c-1.44,1.3.69,3.42,2.12,2.12l18.09-16.35,8.86-8,4.42-4a26.79,26.79,0,0,0,3.64-3.66c2-2.63,2-5.95-.72-8A13.65,13.65,0,0,0,312.34,21c-2-.79-4-1.56-6-2.34L284,10,258.46.11c-1.8-.7-2.58,2.2-.79,2.89Z"/></g></g></svg>