<svg xmlns="http://www.w3.org/2000/svg" viewBox="0 0 314.29 77.33"><g id="Layer_2" data-name="Layer 2"><g id="Layer_1-2" data-name="Layer 1"><path d="M1.45,48.51,112.78,47l110.75-1.53L286,44.58c1.93,0,1.94-3,0-3L174.69,43.12,63.93,44.64l-62.48.87a1.5,1.5,0,0,0,0,3Z"/><path d="M247.6,2.77l47.74,24.12L307.39,33c1.31.66,3.14,1.39,3.76,2.83s-.66,3.17-1.7,4.21a50.11,50.11,0,0,1-4.51,3.7l-5.3,4.16L289,56.21,265.27,74.86c-1.52,1.2.62,3.31,2.12,2.13l22.19-17.43,11-8.63,5.5-4.32c1.74-1.37,3.6-2.66,5.21-4.19,2.52-2.4,4.3-6.05,1.78-9.13a12.15,12.15,0,0,0-4.17-2.9l-6.24-3.16L277.45,14.49,249.11.18c-1.72-.87-3.24,1.71-1.51,2.59Z"/></g></g></svg>