<svg xmlns="http://www.w3.org/2000/svg" preserveAspectRatio="none" viewBox="0 0 964.96 740.82"><defs><style>.cls-1{fill:#2c282c;}</style></defs><g id="Layer_2" data-name="Layer 2"><g id="Layer_1-2" data-name="Layer 1"><path class="cls-1" d="M922.27,574.29q.72-68.24-1-136.47h-60l1.1,14.38,38-28.93a265.88,265.88,0,0,1-38.74-13.1l7.17,3c-48.69-20.78-91.5-52.81-139.83-74.31-8.61-3.83-17.32-7.51-26.18-10.76-6.51-2.39-13.27-4.16-19.67-6.84l7.16,3a34.12,34.12,0,0,1-7-4.09l6.07,4.69a24.29,24.29,0,0,1-2.35-2.3l4.69,6.07a16.44,16.44,0,0,1-2.16-3.69l3,7.16a12.42,12.42,0,0,1-.58-2.15L634,346l30.58,78.18,4.4,11.25c2.8,7.18,6.61,14.14,13.78,17.93,6.81,3.6,15.6,5.77,23.12,3l13-4.73c14.16-5.16,23.58-17.39,21.49-32.92-1.89-14.05-14.49-26.77-29.46-26-47,2.38-94.12,3.19-141.1,6.29-24.41,1.6-48.73,3.95-73,7.21-23.92,3.21-48.55,6.55-71.79,13.27A113.31,113.31,0,0,0,390.39,437c-12.41,9.19-22.91,19.5-30.92,32.86a29.3,29.3,0,0,0-1.51,26.7c3.3,7.83,10.51,15.92,19.44,17.37,21.29,3.47,42.9,2,63.89-2.94,4.48-1,9.06-1.7,13.61-2.32l-8,1.07c33.14-4.43,66.82-5.68,100.2-6.72,42.94-1.35,86-1.52,128.9.39,20.81.92,41.64,2.3,62.29,5.07l-8-1.07c13.22,1.79,27,3.78,39.41,9l-7.17-3a32.9,32.9,0,0,1,7.16,4l-6.07-4.69a14.6,14.6,0,0,1,2.55,2.48l-4.7-6.07a8.93,8.93,0,0,1,1.1,1.86l-3-7.17a7.12,7.12,0,0,1,.46,1.62l-1.08-8a7.16,7.16,0,0,1,0,1.85l1.07-8a8.65,8.65,0,0,1-.54,1.93l3-7.17a13.3,13.3,0,0,1-1.64,2.77l4.69-6.07a28.41,28.41,0,0,1-5.16,4.94l6.07-4.69c-7.55,5.76-16.46,9.74-25.16,13.41l7.17-3c-13.91,5.83-28.25,10.64-42.64,15.13s-23.51,17.93-21.49,32.92c2,15.21,14.38,25.15,29.46,26,41.13,2.36,80.71-11.33,118.65-25.47,14.13-5.27,23.58-17.3,21.48-32.92-1.94-14.49-14.43-26.15-29.46-26-65.3.6-130.6.46-195.91.46-65.59,0-131.2.16-196.78,1.38-17.24.32-34.7,0-51.87,1.59-20.91,2-40.42,7-56.13,21.82-8.74,8.25-10.73,22-6.2,32.77a28.64,28.64,0,0,0,9.24,12c5.69,4.4,11,5.57,18.18,6.44q14.88,1.8,29.73,3.79l-8-1.07q98.73,13.27,196.13,34.75,27.54,6.08,54.94,12.83V551.88a41.24,41.24,0,0,1-4.76,1l8-1.07a41.8,41.8,0,0,1-9.68-.18l8,1.07c-7.19-1.2-13.94-3.77-20.65-6.52l-8,58.93L771,602.43l51.13-.78v-60c-64.24,1.86-128.4-2.58-192.48-6.51-63.88-3.93-128-7.35-192-3.42a735.68,735.68,0,0,0-114.85,15.73c-12.3,2.74-22.59,16.32-22,28.93.58,12.92,8.85,25.75,22,28.92,70.51,17,141.7,30.78,213.68,39.85,69.8,8.79,140.4,12.55,210.69,8.33,9.26-.56,18.51-1.73,27.79-1.23,8.53.46,17,1.43,25.57,1.91,20.07,1.13,41.77-1.28,58.73-13,10.63-7.34,18.07-20.66,13.79-33.88a35.64,35.64,0,0,0-7.72-13.24c-5.63-6.13-13.37-7.91-21.21-8.79-84.94-9.55-170,7-253.49,21.3-23.38,4-46.79,7.87-70.29,11l8-1.07c-52.21,7-105.13,10.28-157.54,3.39l8,1.08c-2.18-.3-4.35-.61-6.53-.93V678a383.74,383.74,0,0,0,91-39.39,30.1,30.1,0,0,0,14.32-29.89c-1.47-10.94-9.93-22.74-21.49-24.94-27.8-5.29-55.6-4.2-83.37.73-26.06,4.63-53.1,13.94-74.36,30-13.44,10.19-25.75,22.13-33,37.66-2.93,6.3-4.5,12.09-3.56,19.13s3.77,11.75,8.25,17.23c15.73,19.2,42,25.05,65.34,27.55,22.32,2.37,45,.44,67.26-1.91,21.92-2.32,43.75-5.65,65.73-7.45,10.38-.85,20.65-.79,31.05-.64q27.36.4,54.71.38c72.5,0,145-2,217.45-3.89,17.38-.45,34.77-.73,52.15-1.07a118.75,118.75,0,0,0,46.91-10.56c25.08-11.17,41.49-34.13,51-59.09,9.26-24.36,8.87-50.36,8.49-76-.53-35.79-1.94-71.65.64-107.4q.94-13.15,2.68-26.24l-1.07,8,.24-1.75c1.15-8.35,1.43-15.51-3-23.11-3.65-6.23-10.78-12.16-17.93-13.79-7.68-1.75-16.3-1.37-23.12,3s-10.84,10.25-13.79,17.92a379.72,379.72,0,0,0-22.56,178.9l51.22-21.21a92.24,92.24,0,0,1-10.85-11.76l4.7,6.07a109,109,0,0,1-13.06-22.95l3,7.17c-7-17-10.51-35-13-53.11l1.07,8c-.9-6.81-1.66-13.64-2.36-20.47l-55.91,15.14.65,1.5-3-7.17a118.87,118.87,0,0,1,8,29.8l-1.07-8q.39,3.24.64,6.49l58.93-8c-12.26-30-30.37-57.14-55.39-78-24.79-20.7-53.72-36.32-85.5-43.05-10.66-2.25-21.28-.19-29.19,7.72-6.95,6.95-11.52,19.52-7.71,29.19L711,448l44.07-33.88c-27.4-16.27-53.76-33.59-83.35-45.77A175.56,175.56,0,0,0,651,361.11c-11.48-3.12-23.62-1.85-34.83,1.85-7.25,2.4-14.24,5.49-21.57,7.64a154.6,154.6,0,0,1-22,4.6l8-1.07c-25,3.28-50.19,1.62-75.3,1.89A304,304,0,0,0,461,379.69c-9.57,1.5-18.83,5-27.76,8.69a303,303,0,0,0-61,33.35c-19,13.55-37.18,28.62-52.27,46.47-8.29,9.8-16.26,20.18-22.33,31.53-8.76,16.37-7.54,34.66-9.9,52.49l1.07-8a107.06,107.06,0,0,1-7.2,25.34l3-7.17a109.17,109.17,0,0,1-13.74,24l4.69-6.07a71.28,71.28,0,0,1-12.37,12.48l6.07-4.69a49.84,49.84,0,0,1-9.83,5.74l7.17-3a40.63,40.63,0,0,1-8.76,2.46l8-1.08a38.75,38.75,0,0,1-7.22.27l8,1.08c-.74-.26-1.48-.54-2.21-.84l7.17,3a42.66,42.66,0,0,1-8.8-5.1l6.07,4.69a47.51,47.51,0,0,1-7.77-7.82l4.69,6.07a63.48,63.48,0,0,1-7.34-12.7l3,7.16a107.45,107.45,0,0,1-7.06-27.11l1.07,8c-1.47-11.18-2-22.57-.52-33.78l-1.07,8a69,69,0,0,1,3.6-13.94l-3,7.16a110.42,110.42,0,0,1,6.42-9.3l-4.69,6.07c8.42-10.79,18.56-20,29.33-28.42l-6.07,4.69c30.61-23.57,66-40.68,101.4-55.67l-7.17,3c36.09-15.2,73.15-28,110.55-39.6q12.65-3.92,25.36-7.65c15-4.44,26-21.29,20.95-36.91-5.31-16.42-20.37-24.19-36.9-20.95-43.62,8.56-86.39,23.86-125.11,45.77a334.22,334.22,0,0,0-102.1,89.07c-16,21-27.94,44.2-37.61,68.71l3-7.17c-3.86,8.58-7.61,17.2-13.36,24.71l4.69-6.07A47.86,47.86,0,0,1,216,573.8l6.07-4.69a40.51,40.51,0,0,1-7.29,4.38l7.17-3a34,34,0,0,1-6.68,2l8-1.07a28.79,28.79,0,0,1-6.88.12l8,1.07a29.19,29.19,0,0,1-6.17-1.68l7.16,3a34.76,34.76,0,0,1-6.62-3.92l6.07,4.69a44.86,44.86,0,0,1-6.5-6.57l4.69,6.08a54.38,54.38,0,0,1-6.69-11.56l3,7.17a104.54,104.54,0,0,1-4.24-18l1.07,8a85.22,85.22,0,0,1-.08-21.82L215,546a83.05,83.05,0,0,1,5.41-19.88l-3,7.17a97.33,97.33,0,0,1,12.48-21.16l-4.69,6.07a139.11,139.11,0,0,1,24.33-23.86L243.41,499c16-12.3,33.91-21.88,52.46-29.75l-7.16,3a341.17,341.17,0,0,1,52-17c13.72-3.31,27.16-8.64,40.6-13,14.25-4.6,28.55-9.07,43-13A399.42,399.42,0,0,1,473,419.18l-8,1.07c58.56-7.84,116.14,6.95,174.59,7.63a293.61,293.61,0,0,0,55.59-4.74c10-1.8,18.37-11.58,21-20.95,3-10.81-.5-21.05-7.71-29.19-13.23-14.91-33.89-20.92-53.28-18.51a171.19,171.19,0,0,0-26.54,5.36c-7,2-13.88,4-21.12,5.09l8-1.07c-23.59,3.08-47.09-1.22-70.52-3.65-20.12-2.09-40.7-1.42-60.88-.54-33.16,1.44-66.76,5.23-98.81,14.16A305.43,305.43,0,0,0,308,407.49c-24.69,15.12-47.41,33.47-69.32,52.32-28.94,24.91-56.83,51-85.45,76.29-9.83,8.68-11.15,25.43-4.69,36.35l59.92,101.2c.92,1.55,1.8,3.13,2.76,4.66,6.43,10.24,15.88,14.34,27.62,14.91,3.4.17,6.8.24,10.2.44,7.37.44,14.71,1.17,22,2.13l-8-1.07a314.24,314.24,0,0,1,51.45,11.46V648.32c-1.33.21-2.66.4-4,.59l8-1.07a138.78,138.78,0,0,1-35.27-.07l8,1.07a148,148,0,0,1-36.94-10.22l7.16,3a171.07,171.07,0,0,1-36.57-21.53l6.07,4.69a195.59,195.59,0,0,1-34.11-34.11l4.69,6.07A200.38,200.38,0,0,1,175.76,553l3,7.16c-2.89-6.9-5.45-13.9-8.45-20.76l3,7.16a74.51,74.51,0,0,1-4.95-17.19l1.07,8a60.78,60.78,0,0,1-.07-16l-1.07,8a62.77,62.77,0,0,1,4.19-14.85l-3,7.17a79.72,79.72,0,0,1,9.34-15.76l-4.69,6.07a128.64,128.64,0,0,1,22.7-22.27l-6.07,4.69c38.05-29.29,75.07-60,112.48-90.11l54.45-43.83c16.22-13.06,34.63-25.4,47.89-41.64,9.39-11.51,17.65-24.3,20.48-39.17,3.25-17.11,1.77-33.51-6.6-49C413.8,220,401,214.69,389.59,216.22a30.09,30.09,0,0,0-24.94,21.49Q347.79,297,330.94,356.24c-4.38,15.41,5.33,32.86,20.95,36.9,35.78,9.26,73.68,5.41,109.1-3.51,36.27-9.12,71.29-24.06,104.46-41.17q23.89-12.31,46.64-26.71c12.69-8,18.17-23.48,12.27-37.46-5.45-12.94-21.2-22.33-35.39-17.37L351,350l-68,23.75c-7.43,2.59-13.85,6.82-17.92,13.78-3.77,6.43-5.36,15.91-3,23.12s6.85,14.26,13.79,17.93c7.46,3.94,14.82,4.61,23.12,3L474.19,398.2l86.7-16.55,44.23-8.44c10.67-2,21.34-3.89,31.45-8,9.67-3.93,17.39-8,25.31-15,7.35-6.48,12.38-15.28,15.54-24.44,4.63-13.44,2-27.3,3.66-41l-1.07,8a32.85,32.85,0,0,1,1.66-6.54l-3,7.17a22.25,22.25,0,0,1,2.78-4.73l-4.69,6.07a24.44,24.44,0,0,1,2.44-2.44l-6.07,4.69a20.85,20.85,0,0,1,4-2.41l-7.17,3a22.1,22.1,0,0,1,4.46-1.13l-8,1.07a26.13,26.13,0,0,1,4.68,0l-8-1.07a29.51,29.51,0,0,1,7,1.92l-7.17-3a33.79,33.79,0,0,1,6.38,3.82l-6.07-4.69a33.58,33.58,0,0,1,4.35,4.33L663,292.69a46,46,0,0,1,5.63,9.79l-3-7.16c4,9.82,5.45,20.36,8.49,30.48a90.66,90.66,0,0,0,8.26,19.76c5.24,8.9,11.78,14.82,19.86,21,7.38,5.6,18.74,4.87,26.7,1.51,8.12-3.42,15.47-10.44,17.37-19.44,5.59-26.58,2-53.75-11.53-77.46l-25.9,45.14,1.56.2-8-1.07a252,252,0,0,1,62.16,16.94l-7.17-3a253.4,253.4,0,0,1,38.94,20.62V298.13l-1.48.63,7.17-3a160.76,160.76,0,0,1-38.69,10.49l8-1.07a162.42,162.42,0,0,1-41.68.1l8,1.07q-7.17-1-14.23-2.58c-15.28-3.45-33.19,4.65-36.91,20.95-1.75,7.68-1.37,16.3,3,23.12l4.69,6.07a30,30,0,0,0,13.24,7.72l1.53.64-7.16-3a861.54,861.54,0,0,1,139.41,74.94c5.52,3.66,12.79,4.41,19.13,3.56,5.9-.79,13.39-3.34,17.22-8.25,18.15-23.23,32-48.66,39.65-77.3a30.15,30.15,0,0,0-10.75-31.53c-9.92-7.67-22.29-7.87-33.32-2.35A73.21,73.21,0,0,0,844,345.56c-7.06,11.56-9.94,24.27-11.48,37.51-2.34,20.16,1.46,41.33,7.2,60.65s26.68,26.8,44.07,17.93l39-19.9c9.61-4.9,14.33-15.68,14.85-25.9,3-58.6,7.64-117.14,8.86-175.82.61-29.56.35-59.15-1.47-88.66-.9-14.53-2.18-29-3.92-43.48-.59-4.89-1-9.58-2.9-14.16a52.84,52.84,0,0,0-3-6.3,106,106,0,0,0-8.45-11.68,66.25,66.25,0,0,0-10.68-10.82,123,123,0,0,0-83.6-26.72c-15.64.86-30.75,13.19-30,30,.77,17.3,13.2,28.7,30,30,1.76.14,3.52.32,5.27.54l-8-1.07a95.09,95.09,0,0,1,22.93,6.22l-7.17-3a100.84,100.84,0,0,1,21.71,12.62l-6.08-4.69a99.52,99.52,0,0,1,16.86,16.78l-4.69-6.07a94,94,0,0,1,10.34,16.9c2.71,5.71,8.79,9.93,14.35,12.28,6,2.51,13.2,3.56,19.53,1.51,12.26-4,22.56-15.41,22-28.93-1.47-36.92-38.52-55.39-68.94-66.6-25.78-9.5-54.1-12.57-81.44-12.79-27.6-.23-55.28,2.37-82.84,3.71q-44.61,2.19-89.25,3.68c-59.47,1.89-119,2.46-178.49.47-29.71-1-59.4-2.63-89-5.06-28.73-2.35-57.35-5.73-86-8.7C198.89,29.3,132.49,25.8,69.21,44.15l38,28.93a5.1,5.1,0,0,1,.06-1.11l-1.07,8a4.09,4.09,0,0,1,.29-1l-3,7.16a4.51,4.51,0,0,1,.48-.82l-4.69,6.07a4.43,4.43,0,0,1,.64-.66L93.8,95.42a6,6,0,0,1,1.2-.7l-7.17,3a7.37,7.37,0,0,1,1.39-.32l-8,1.07a8.22,8.22,0,0,1,1.49.06l-8-1.07a8.63,8.63,0,0,1,1.49.48l-7.17-3a5.55,5.55,0,0,1,.94.56L64,90.8A8.85,8.85,0,0,1,65.2,92l-4.69-6.08a11.13,11.13,0,0,1,1,1.66l-3-7.16a14,14,0,0,1,.6,2.13l-1.07-8a18.25,18.25,0,0,1,0,3.62l1.07-8c-.87,6.09-3.26,12-4.51,18.1a261.91,261.91,0,0,0-4,27,241.89,241.89,0,0,0-.3,41.17c2.16,30.2,8.07,60,14.29,89.6,1.89,9,9.25,16,17.37,19.44,9.19,3.88,17.86,2.85,26.7-1.51,9.94-4.91,18.12-13.49,23.74-22.94,2.89-4.86,4.86-10.23,8.28-14.77L136,232.41a24.77,24.77,0,0,1,4.13-4.12L134.1,233a24.58,24.58,0,0,1,4.34-2.5l-7.17,3a33.89,33.89,0,0,1,8.53-2.2l-8,1.08c7.25-.81,14.35.11,21.57.74,7.9.68,15.83,1,23.76,1a487.58,487.58,0,0,0,49.22-2.75c33.08-3.27,66-8.49,99.21-10.13a300.65,300.65,0,0,1,54.82,1.8l-8-1.07A186.52,186.52,0,0,1,419,234.55l-7.17-3c3.22,1.39,6.38,2.87,9.51,4.44l7.17-54.83L325.86,207.45l-14.57,3.73c-12.25,3.14-22.6,16-22,28.93a35.62,35.62,0,0,0,4.1,15.14c3.15,6,11.18,12.53,17.92,13.79a493.26,493.26,0,0,0,100.81,8.31c33.51-.7,66.89-4.62,100-9.88,63-10,124.8-26.41,187-40.43,35.09-7.9,70.38-15.06,106-19.9l-8,1.07a622.37,622.37,0,0,1,86.37-5.93l-21.21-8.79.83.82-4.69-6.07a6.28,6.28,0,0,1,1.11,2l-3-7.17a9.77,9.77,0,0,1,.49,2.33l-1.07-8c.35,6.3-1.05,12.84-1.76,19.09l-2.32,20.34-4.74,41.56c-.53,4.67,1.77,11.17,4.1,15.14a29.74,29.74,0,0,0,14.34,12.28c11.41,4.81,23.69,2,32.77-6.21,25.72-23.35,55-52.1,46.56-90.3-2.38-10.82-9.46-22.13-17.67-29.48-9.16-8.21-23.82-12.16-35.78-15-20.29-4.81-41.33-6.56-62.1-7.79-4.54-.27-9.15-.83-13.68-.34q-8.45.9-16.88,1.83-15.12,1.65-30.23,3.3c-20.76,2.25-41.52,4.45-62.31,6.44-41.53,4-83.17,7.08-124.88,8-47.15,1.06-94.37-.73-141.14-7l8,1.07-5.36-.74-8,58.92c28.82-3.77,57.7-7.24,86.69-9.38,14.19-1.05,28.39-1.78,42.61-2.07,11.6-.24,23.21.24,34.79-.15,29-1,58.4,4.14,87.08,7.93,34.79,4.61,69.71,9.38,104.84,10.2,33,.77,68.74-1.47,98.17-17.81a83.56,83.56,0,0,0,20.62-15.91,91.18,91.18,0,0,0,10.17-13.21,35.81,35.81,0,0,0,1-36.89c-9.07-16.3-29.07-22.86-46.78-20.76s-35.22,6.22-52.93,8.63l8-1.07a680.88,680.88,0,0,1-159.76,2.41c-4.71-.49-11.13,1.75-15.14,4.1A29.74,29.74,0,0,0,641.93,139c-4.91,11.65-1.83,23.4,6.21,32.77l76.34,89.09,10.77,12.56c4.2,4.9,11.11,7.43,17.23,8.25a30.73,30.73,0,0,0,19.13-3.56Q789.46,268.8,808,261l-7.16,3A502.66,502.66,0,0,1,869,240.92l-23.12-54.83-4.59,2,7.16-3A333.68,333.68,0,0,1,765,207.78l8-1.07a338.67,338.67,0,0,1-36.56,2.85l28.92,22c-1.54-9.67-7.88-20.57-15.58-26.59-5.4-4.23-10.2-7.31-17.22-8.25-6.46-.87-13.47,0-19.13,3.56a512.67,512.67,0,0,0-113.81,96.84l47.12,36.36q36.4-51.74,74.51-102.24l-47.12,6.07A960.73,960.73,0,0,1,813,380.82c4.23,5.4,14.62,9.09,21.22,8.79a31,31,0,0,0,18.17-6.44c5-3.83,9.32-9.3,10.76-15.58,1.88-8.26.58-15.47-3-23.12-4-8.39-7.83-16.83-11.46-25.37l3,7.17c-7.79-18.54-14.43-37.66-17.21-57.66l1.08,8a120,120,0,0,1-.13-31.23l-1.07,8a99.89,99.89,0,0,1,5.07-19.85l-54.83,7.16q31.49,55.47,63,110.94l51.8-30.29a78.33,78.33,0,0,1-9.65-16.5l3,7.17c-5.57-13.33-7.91-27.59-9.83-41.83l1.08,8c-1.88-14.17-3.32-28.47-6.27-42.47-2.62-12.42-6.19-25.52-13.75-35.92-9.11-12.52-20.39-21.26-35.18-26.17-10.18-3.37-21.71-4-32.32-2.69-16.19,2-30.18,6.5-45.13,12.94l7.17-3a991.05,991.05,0,0,1-169.94,47.67q-24.76,4.6-49.74,7.95l8-1.07q-16.93,2.25-33.92,3.94L528,295.16a243.71,243.71,0,0,1,30.67-15.75l-7.16,3a243.66,243.66,0,0,1,61.88-16.82l-8,1.07a241.65,241.65,0,0,1,45.39-1.52L629.6,214q-7.27,6.87-15.16,13l6.07-4.7a231.12,231.12,0,0,1-50.88,29.29l7.16-3c-40.65,17-84.47,24.36-127.91,30.21l8-1.08c-38.5,5.16-77.26,9-115.41,16.46L357.4,352l158.07-43c14.44-3.93,23.44-18.36,21.48-32.92-.84-6.29-3.43-12.8-8.25-17.22-5.47-5-13.49-9.69-21.21-8.79L315.38,272.43l-54.51,6.35,8,58.93C327,322,385.21,306.21,441.34,284.22c10-3.93,18-10.05,21-21s-.6-20.88-7.71-29.19c-12.49-14.6-32.36-20.76-51-20.85-16.23-.08-32.21,4.1-47.7,8.5L248.48,252.28l-60.61,17.24L211,324.35c1.87-1,3.75-1.88,5.69-2.7l-7.16,3A63.18,63.18,0,0,1,223.18,321l-8,1.08a61.12,61.12,0,0,1,15.7.08L209.69,271c-46.21,46-68.52,108.36-89,168.76l57.85,15.95a165.07,165.07,0,0,1,10-33.28l-3,7.16c8-18.86,19.1-36.14,31.56-52.37l-4.69,6.07c14.89-19.2,31.58-36.86,48.42-54.34l-50.14-29.18-.54,1.29,3-7.17a123.17,123.17,0,0,1-15.59,26.47l4.69-6.07a125.76,125.76,0,0,1-21.81,21.63l6.07-4.69a125.09,125.09,0,0,1-15.25,9.9l41,41c1.91-2.74,3.87-5.42,5.91-8.07l-4.69,6.07A191.69,191.69,0,0,1,246.8,347l-6.07,4.69a192.83,192.83,0,0,1,41.83-24.44l-7.16,3q7.92-3.3,16.09-5.9l-36.9-36.9a238,238,0,0,1-13.16,41.39l3-7.17a278.76,278.76,0,0,1-36,60.51l4.69-6.07c-25.58,32.86-56.88,60.69-89.7,86.12l6.07-4.69c-18.81,14.53-38.17,28.31-57.66,41.9l44.07,33.88,64.23-178.08c5.67-15.72,10.87-31.73,17.3-47.16l-3,7.17a86,86,0,0,1,10.23-18.3L199.94,303a52.31,52.31,0,0,1,8.88-8.84l-6.07,4.69a58.94,58.94,0,0,1,11.45-6.4l-7.17,3c11.68-4.7,24.29-6.73,36.56-9.31l41.34-8.69,83.55-17.58c12.32-2.59,22.59-16.43,22-28.93-.58-12.9-8.85-25.78-22-28.92-29.22-7-58.62-5-88.1-1.3-27.09,3.39-54.55,7.7-81.85,4.06l8,1.07A119.4,119.4,0,0,1,180,199l13.24,7.72-.9-1,4.7,6.07a23.07,23.07,0,0,1-2.67-4.52l3,7.17c-1.67-4.28-2.34-8.78-3.56-13.18a50,50,0,0,0-12.23-21.93c-15.25-15.56-39.47-18.07-56-2.92-6.68,6.14-9.26,17.25-12.17,25.81q-2.83,8.31-5.41,16.71c-3.3,10.73-6.35,21.53-9.26,32.37C92.9,273,87.58,295,81.73,316.73c-6.59,24.54-14.64,48.46-17.34,73.85-1.54,14.47.41,29.15,4.06,43.18,3.14,12,7.09,23.81,8.78,36.19l-1.07-8c2.65,21.76-1,43.46-3.36,65.07-2.81,25.49-3.21,52.43,7.68,76.21,9.11,19.91,27,36.08,43,50.61,18.14,16.47,37.91,30.09,60.83,38.93a95.06,95.06,0,0,0,81.7-6.1c10.43-6,15.9-18.15,14.33-29.89a28.5,28.5,0,0,0-5.91-14.19c-3.59-4.65-9.52-9.86-15.58-10.75-28.15-4.1-56.4-7-84.86-7.17-16.15-.1-32.23.89-48.36,1.43a103.75,103.75,0,0,1-17.18-.41l8,1.07a30.31,30.31,0,0,1-7.57-1.94l7.16,3A19.42,19.42,0,0,1,112,625.5l6.07,4.69a19.19,19.19,0,0,1-3.19-3.18l4.69,6.08a27.66,27.66,0,0,1-3.47-6.13l3,7.17c-2.71-6.59-3.85-13.78-4.8-20.8l1.07,8c-3.26-24.41-4.13-49.18-5.84-73.73-.55-8-3-15.39-8.78-21.21-5.21-5.2-13.74-9.12-21.22-8.79-7.76.35-15.8,2.9-21.21,8.79-5.67,6.17-8,12.88-8.79,21.21a195.51,195.51,0,0,0,5.34,65.35c3,12.27,16.09,22.6,28.93,22,13.47-.6,25-8.93,28.92-22a116.14,116.14,0,0,0-.85-70.12c-5.65-16.86-14.75-32-21.68-48.26l3,7.17A57.07,57.07,0,0,1,89,487.45l1.07,8a31.36,31.36,0,0,1,0-7.5l-1.07,8a28.36,28.36,0,0,1,1.85-6.7l-3,7.17c.4-.91.84-1.79,1.32-2.66l-4.69,6.07c6.06-6.56,11.51-14.26,13.4-23.18,2.55-12,.29-22.26-4.85-33.14l3,7.17a94.68,94.68,0,0,1-4.38-18.24l1.07,8a136.66,136.66,0,0,1,.59-34.29l-1.07,8c3.67-26.77,11.36-52.75,14.74-79.6,2.93-23.33,1.49-47,4.55-70.28l-1.07,8a115.78,115.78,0,0,1,7.46-28.64l-3,7.17a92.75,92.75,0,0,1,4.71-9.34c11.44-19.82-3.13-44.95-25.9-45.14l-37.89-.33c-12.67-.11-26,9.34-28.93,22a218.33,218.33,0,0,0-5.65,49.37c.06,15.69,13.75,30.73,30,30,7.76-.34,15.8-2.89,21.21-8.78,5.65-6.15,8.06-12.9,8.79-21.22q.28-3.3.71-6.6l-1.07,8a133.76,133.76,0,0,1,6.31-25.77l-57.85-16L24.3,251.66a82.68,82.68,0,0,0-1.74,19.75,184.07,184.07,0,0,1-1.75,31l1.07-8C19,315,13.67,335.07,9.05,355.27c-5.13,22.46-8.65,45-9,68.06-.69,45.46,6.1,90.73,13.26,135.5,3.86,24.19,8,48.34,11.22,72.62l-1.07-8c1.85,13.87,2.15,28.54,6,42a58.8,58.8,0,0,0,13.69,24.58c6.57,6.9,14.33,10.88,23,14.32,10.45,4.15,22,5.56,33,7.58q19,3.48,38.1,6.54c52.39,8.37,105.16,14.56,158.09,18.24q77.15,5.35,154.55,3.67c51.3-1.12,102.34-5.22,153.41-9.9,51.22-4.69,102.45-8.72,153.92-6.85,49.89,1.81,105.08,4.75,149-23.45,23-14.79,39.89-36.43,46.7-63.17,6.33-24.85,5.38-51.2,5.81-76.64l2.68-158.88,1.31-77.63c.45-26.27.22-52.65,1.38-78.89,1.51-33.87,1.44-67.3-3.72-100.89-3.8-24.76-11.54-50.3-25.89-71.08-7.11-10.3-15.15-19.86-25-27.6a152.8,152.8,0,0,0-38.86-22.19c-26.48-10.64-56.48-13.16-84.77-13.09a489.71,489.71,0,0,0-50.35,3c-25.28,2.7-50.86,3.52-76.27,4.32-104.67,3.3-209.34-2.17-313.82-7.93C300.57,7.07,255.74,4.74,210.87,3,180.48,1.89,150.14-.82,119.7.24c-16.54.58-33.48,2-49.55,6.12C55.48,10.11,39.7,17,29.67,28.74,24,35.48,19.91,42.47,18.09,51.28a95.36,95.36,0,0,0-1.58,23.47c.54,13.19,1.15,26.38,1.72,39.57l3.42,78.25L25,269c.47,10.7,5.43,20.39,14.86,25.91,9,5.27,21.31,5.68,30.28,0l101.65-64.4,14.28-9.05c10.94-6.93,17.82-20.95,13.78-33.88L172.34,99.51l-4-12.65c-3.8-12.17-15.55-22.62-28.93-22s-25.13,8.91-28.93,22A317,317,0,0,0,98.28,188.24c.56,12.74,8.88,25.93,22,28.92a31.18,31.18,0,0,0,33.88-13.78c14.16-21.83,21.92-47.31,37.85-68.08l-4.69,6.07a76.79,76.79,0,0,1,12.71-13L194,133.1a56,56,0,0,1,10.45-6.29l-7.17,3a48.85,48.85,0,0,1,7.72-1.89L197,129a69.51,69.51,0,0,1,17.59.3l-8-1.08c14.29,2.06,28,7,41.89,10.87Q269.69,144.94,291,150q42.42,10.06,85.53,16.84c59.67,9.27,120,14.07,180.38,12.38A948.69,948.69,0,0,0,662.17,170l-15.95-57.85a106.7,106.7,0,0,1-12.52,2.39l8-1.07c-28.86,3.78-58.68,1.09-87.52-1.49-38.56-3.46-77-8.45-115.4-13-39.23-4.62-78.54-9-118-11.07-34.68-1.79-70-2-104.21,5-26.43,5.36-56.46,18.5-68.29,44.59a78.17,78.17,0,0,0-5.08,13.31c-1.82,7.34-1.18,16.59,3,23.11,4,6.15,10.38,12.59,17.92,13.79,33.23,5.29,66.52,6.53,100.09,4.77,32-1.67,63.73-5.46,95.52-8.85s63.4-6.4,95.25-6.48c16.62,0,33.27.11,49.88-.69,10.32-.49,20.54-1.64,30.77-3.09,7.94-1.12,15.77-3.41,23.56-5.3,35.61-8.61,71.19-17.57,107.55-22.46l-8,1.07c11.42-1.49,22.87-2.58,34.36-3.15,15.65-.78,30.75-13.24,30-30s-13.17-29.51-30-30a1251.37,1251.37,0,0,0-151.59,4.81c-8.12.75-15.27,2.84-21.21,8.78-5.21,5.21-9.13,13.74-8.79,21.22.76,17.07,13.19,29,30,30,11.63.71,23.39.1,35-.25,19.17-.59,38.35-1.38,57.52-2.09,45.71-1.68,91.49-3.22,137.24-2.44,21.54.37,43.2,1.11,64.57,3.94l-8-1.07c9.4,1.28,19.1,2.8,27.92,6.45l-7.16-3a28.33,28.33,0,0,1,6.2,3.46l-6.07-4.69a13.42,13.42,0,0,1,2.27,2.25l-4.69-6.07a9,9,0,0,1,1.06,1.83l-3-7.17a7.34,7.34,0,0,1,.45,1.73l-1.07-8c0,.15,0,.3.05.45.62,8,2.92,15.36,8.78,21.22,5.21,5.2,13.74,9.12,21.22,8.78,15.22-.68,31.29-13.24,30-30-1.15-14.88-8.8-27.37-22.22-34.37a97.67,97.67,0,0,0-27.52-9.11c-25.76-4.78-52.18-6-78.32-6.54-58.2-1.24-116.43,1.43-174.58,3.58-19.77.74-39.9,2.32-59.68,1.11v60a1251.37,1251.37,0,0,1,151.59-4.81v-60c-30.44,1.52-60.72,6.4-90.5,12.75-13.72,2.93-27.37,6.18-41,9.48-13.83,3.34-27.85,7.74-41.94,9.76l8-1.08c-23.19,3.11-46.82,2.78-70.17,2.71-22.47-.06-44.92,1.41-67.28,3.43-45.08,4.09-90,10.58-135.23,12.32-24.94,1-49.94.39-74.7-2.9l8,1.07c-2.73-.38-5.45-.78-8.18-1.22l21,36.91A39.42,39.42,0,0,1,202.9,161l-3,7.16a38.92,38.92,0,0,1,4.79-8.2L200,166.05a45.21,45.21,0,0,1,8-7.88l-6.08,4.69a67.79,67.79,0,0,1,14.49-8.23l-7.16,3c11.66-4.89,24.18-7.45,36.68-9.13l-8,1.07c26-3.42,52.45-3.12,78.6-1.9,31,1.45,61.87,4.48,92.68,7.9,59.34,6.57,118.63,15.7,178.3,18.78,24.61,1.27,50.62,1.88,74.66-4.4,15.18-4,25.9-21.62,21-36.9-2.35-7.26-6.85-14.26-13.78-17.93l-7.17-3a30.19,30.19,0,0,0-15.95,0l-5.19.71,8-1.07a898.47,898.47,0,0,1-190.95,4.83q-26.71-2.13-53.3-5.74l8,1.07A1131.14,1131.14,0,0,1,263.64,81c-29.12-8.05-60.08-19.66-89.49-6-19.28,9-33.45,27-43.82,45-10,17.33-17,36.28-28,53.09l55.9,15.15a294.71,294.71,0,0,1,2.26-51.43l-1.07,8a296.27,296.27,0,0,1,8.92-42H110.53L138,190.9,142,203.54l13.78-33.88L54.12,234.06l-14.28,9.05L85,269,80.39,163.79l-2.27-52.17L77,85.54c-.36-8.21-1.2-16.58-.2-24.77l-1.08,8a36,36,0,0,1,2-7.37l-3,7.16a15.74,15.74,0,0,1,1.75-2.94L71.7,71.67a32.82,32.82,0,0,1,5.61-5.5l-6.07,4.69A49.83,49.83,0,0,1,81.4,65.12l-7.17,3c9.07-3.79,18.79-5.72,28.49-7l-8,1.07c34.38-4.43,69.37-1.5,103.84.29,17.87.93,35.76,1.2,53.64,2.08,28.67,1.43,57.34,3,86,4.6,116.4,6.42,233.08,12.74,349.65,7.19,15.88-.75,31.8-1.5,47.61-3.19,10.85-1.15,21.73-2.05,32.63-2.55,18.71-.87,37.53-.62,56.12,1.87l-8-1.07c13.87,1.92,27.56,5.13,40.49,10.56l-7.16-3a108.57,108.57,0,0,1,23.52,13.61l-6.07-4.69a98.32,98.32,0,0,1,17,17l-4.69-6.07a115.12,115.12,0,0,1,14.71,25.58l-3-7.17c6.36,15.28,10,31.51,12.19,47.86l-1.07-8a405.79,405.79,0,0,1,3,58.52c-.16,12-1,24-1.2,36l-.85,50.55-3.45,204-1,57.77c-.3,17.41,0,35-2.23,52.29l1.07-8a102.63,102.63,0,0,1-6.52,25l3-7.17a73.5,73.5,0,0,1-8.71,14.92L890,635a80.57,80.57,0,0,1-13.43,13.38l6.08-4.69a105.46,105.46,0,0,1-22.59,13.05l7.17-3a155.89,155.89,0,0,1-38.47,10l8-1.07c-41.11,5.41-82.92-.27-124.22.58-43,.89-85.9,5.16-128.74,9.06-84.61,7.72-169.33,10.64-254.23,6.47Q258,675.24,187,665.71l8,1.07q-29.61-4-59.06-9-14.3-2.44-28.54-5.13c-8.47-1.59-17.18-2.85-25.2-6.13l7.17,3a37.65,37.65,0,0,1-6.86-3.94l6.08,4.69a29.88,29.88,0,0,1-3.79-3.67l4.69,6.07a30.8,30.8,0,0,1-3.66-6.21l3,7.17a69.49,69.49,0,0,1-3.66-15.72l1.07,8C81,598,71.68,550.74,65.19,503l1.08,8c-2.56-19-4.63-38.1-5.63-57.26-1-18.87-1.53-38.32,1-57.08l-1.07,8c6.52-46.65,25.33-92,21.63-139.81l-1.07,8,6.1-30c1.62-8,1.18-15.94-3-23.11-3.64-6.23-10.78-12.16-17.93-13.79C49.45,202.1,35,211,29.35,226.88c-4.61,13-6.89,26.6-8.1,40.35h60a186.22,186.22,0,0,1,1.47-24.29l-1.07,8q1.17-8.62,3.1-17.11l-28.92,22,37.89.33L67.81,211c-11.7,20.28-15.89,42.84-17.56,65.92-1.39,19.15-.84,38.41-3.26,57.49l1.07-8c-6.59,48.94-28.9,100.62-6.18,148.7l-3-7.17a23.88,23.88,0,0,1,1.21,4.11l-1.07-8a19.26,19.26,0,0,1,.06,3.87l1.07-8a20.11,20.11,0,0,1-1,3.67l3-7.16a26.56,26.56,0,0,1-2.82,4.65L44,455.1c-5.65,6.75-9.17,12-11.88,20.48a56.38,56.38,0,0,0-2.29,15,63.41,63.41,0,0,0,3.93,23c5.38,14.88,13.52,28.45,19.71,43l-3-7.16A109.05,109.05,0,0,1,58.13,576l-1.07-8a86.12,86.12,0,0,1,.08,21.7l1.07-8A97.73,97.73,0,0,1,54.86,597h57.85a184.58,184.58,0,0,1-3.57-18.35l1.08,8a172.62,172.62,0,0,1-.7-39h-60c1.63,23.35,2.6,46.84,5.38,70.09C57,634.9,59.15,652.26,70.08,666.4c20.68,26.77,57.71,19.2,87.1,18.46a547.49,547.49,0,0,1,85.93,4.84l-8-1.07q3.92.52,7.81,1.1l-7.17-54.83a75.44,75.44,0,0,1-7.93,4l7.17-3a64.77,64.77,0,0,1-14.72,4l8-1.08a68.86,68.86,0,0,1-17.45-.06l8,1.07a90.53,90.53,0,0,1-21.1-6l7.17,3A148,148,0,0,1,173,617.77l6.07,4.69A237.83,237.83,0,0,1,157,602.91c-7.26-7.27-14.81-14.15-21.13-22.29l4.69,6.07a72.5,72.5,0,0,1-8.85-15.06l3,7.17c-2.06-5.2-3-11-3.75-16.49l1.07,8c-3.33-26.74,2.9-53.23,4.65-79.84a167.11,167.11,0,0,0-3.21-45.55c-2.94-14-8.18-27.39-10.13-41.58l1.07,8a98.73,98.73,0,0,1,.38-24.17l-1.07,8c2.37-16.59,7.51-32.52,12-48.6,4.43-15.72,8.47-31.55,12.51-47.37,8.06-31.49,16.18-63,27.43-93.57L162,223.49a7,7,0,0,1,1.83-1.15l-7.16,3a6.92,6.92,0,0,1,2-.52l-8,1.08a7.33,7.33,0,0,1,2,.05l-8-1.08a10.18,10.18,0,0,1,2.05.56l-7.16-3a18,18,0,0,1,3.91,2.34l-6.07-4.69a25.68,25.68,0,0,1,2.55,2.56l-4.69-6.07a23.41,23.41,0,0,1,2.51,4.08l-3-7.16a64.24,64.24,0,0,1,2.49,9.06,75.44,75.44,0,0,0,5.3,15,38.42,38.42,0,0,0,11.29,13.93c5.22,4,12.09,6.33,18.46,8.28,14.66,4.48,30.43,6.26,45.73,6.45,28,.34,55.56-5.25,83.32-7.79,15.41-1.42,30.94-1.88,46.32.14l-8-1.07q6.49.92,12.86,2.42V202l-91.47,19.23-45.74,9.62c-14.36,3-29.43,6.82-41.67,15.29a87.8,87.8,0,0,0-30.5,37.46c-6.51,14.85-11.72,30.21-17.22,45.45l-31.8,88.19L58,517.34c-1.66,4.59-1.28,11.32,0,15.95a29.65,29.65,0,0,0,10.75,15.58c8.88,6.87,23.52,9.18,33.32,2.35,69.54-48.52,142.32-101.53,183.7-177.68a268.5,268.5,0,0,0,26.64-70.17c2.32-10.62.15-21.32-7.72-29.19-7.34-7.34-19.1-10.92-29.19-7.71-47.05,15-86.93,45-115.07,85.41-3.75,5.39-4.39,12.91-3.56,19.13s3.43,12.8,8.25,17.22c10,9.21,24.28,11.34,36.36,4.69a145,145,0,0,0,38.22-30.3c12.65-14.27,21.48-29.42,28.77-46.91l1.07-8A22.66,22.66,0,0,0,267,296.17c-2.43-5.76-6.58-11.34-12.27-14.34-11.67-6.17-26.86-5.17-36.36,4.69C176.5,330,132.06,378.3,120.68,439.75c-1.5,8.07-1.25,15.83,3,23.12,3.64,6.22,10.78,12.16,17.93,13.79,16.63,3.78,31.5-5,36.9-21,7.49-22.06,15.09-44.1,24.13-65.59l-3,7.17c10.34-24.38,22.62-48,38.76-69l-4.69,6.07a217.39,217.39,0,0,1,18.41-20.89,30.09,30.09,0,0,0,6.2-32.77,28.58,28.58,0,0,0-9.24-12c-5.73-4.43-11-5.48-18.17-6.44-17.26-2.31-35,2.3-50.2,10.34-13.21,7-17.82,24.32-12.28,37.46,5.71,13.52,20.89,21.5,35.4,17.37L306,298.31,356.21,284c14.46-4.11,28.91-9,43.85-11.06l-8,1.07a76.06,76.06,0,0,1,18.83-.32l-8-1.08a46.08,46.08,0,0,1,10.26,2.65l-7.17-3a36,36,0,0,1,7,4L407,271.54a35.22,35.22,0,0,1,5.17,5l13.24-50.15c-56.13,22-114.37,37.79-172.49,53.49-14.45,3.91-23.44,18.38-21.49,32.92.85,6.29,3.43,12.8,8.25,17.22,5.47,5,13.49,9.69,21.21,8.79L453,316.41l54.51-6.34-8-58.93-158.06,43c-15.14,4.11-25.93,21.51-21,36.9,5.32,16.43,20.37,24.18,36.91,20.95s32.91-5.68,49.46-7.92l-8,1.07c74.52-10,152.06-15.18,219.94-50.65A239.3,239.3,0,0,0,672,256.38c8.74-8.26,10.73-22,6.2-32.77-4.81-11.4-15.22-17.7-27.42-18.44-53.15-3.25-107.61,10.57-153.09,38.18-11,6.65-17.9,21.19-13.79,33.88a35.75,35.75,0,0,0,7.71,13.24c4.6,5,14.31,9.47,21.22,8.79,71-7.05,141.16-20.85,209.16-42.39,20.44-6.47,41-13.25,60.66-21.73l-7.17,3a117.1,117.1,0,0,1,28.37-8.3l-8,1.07a65.41,65.41,0,0,1,17.4-.18l-8-1.08a45.34,45.34,0,0,1,10.12,2.73l-7.16-3a38.18,38.18,0,0,1,8.1,4.72l-6.07-4.69a39.54,39.54,0,0,1,6.2,6.27l-4.69-6.08a47.81,47.81,0,0,1,5.45,9.42l-3-7.16c5.21,12.55,7.11,26.7,8.92,40.08l-1.07-8c4,30,6.27,62.68,25.42,87.63,5,6.48,9.7,11.52,17.92,13.78,7.19,2,16.75,1.09,23.12-3,13.8-8.9,19.06-26.44,10.76-41l-63-110.93c-5.94-10.46-18.25-15.89-29.89-14.32-12.42,1.67-20.72,10-24.94,21.49-19.59,53.14,4.14,109.3,26.74,157.22l47.12-36.35A960.32,960.32,0,0,0,716.55,194.91c-7.56-6.33-15.24-9.59-25.2-8.25s-16,6.5-21.92,14.33q-38.1,50.49-74.51,102.23c-4.08,5.81-5.17,16.5-3,23.12a31,31,0,0,0,10.75,15.58c11.1,8.58,29.54,9,39.39-2.34a487.5,487.5,0,0,1,68.84-65l-6.07,4.69q18.8-14.48,38.89-27.11l-36.36-4.7a25,25,0,0,1,3.81,3.68L706.46,245a26.13,26.13,0,0,1,2.69,4.56l-3-7.16a25.52,25.52,0,0,1,1.37,5.11l3,7.16a22.62,22.62,0,0,0,7.73,8.42,29,29,0,0,0,18.18,6.44c48.57-1.16,95.34-12.28,139.75-31.67,6.15-2.68,12.34-11.58,13.78-17.93a31,31,0,0,0-1.51-19.53,30.07,30.07,0,0,0-35.39-17.37,535.72,535.72,0,0,0-111.74,43.21L777.68,231l-76.35-89.09-10.77-12.56-21.21,51.21a679.12,679.12,0,0,0,104.31,2.74q26.07-1.35,52-4.7c18.93-2.45,37.54-6.1,56.37-9.08l-8,1.07a41.64,41.64,0,0,1,9.79-.17l-8-1.07a25.8,25.8,0,0,1,5.93,1.5l-7.17-3a18.27,18.27,0,0,1,2.41,1.34L871,164.44a12.66,12.66,0,0,1,1.88,1.78l-4.7-6.08a7.73,7.73,0,0,1,.89,1.45l-3-7.17a11.68,11.68,0,0,1,.7,2.59l-1.07-8,0,1,4.1-15.15a52.33,52.33,0,0,1-4.55,7l4.69-6.07a54.85,54.85,0,0,1-9.39,9.26l6.07-4.69a72.15,72.15,0,0,1-15.29,8.73l7.16-3c-10.37,4.33-21.39,6.73-32.49,8.23l8-1.07c-45.42,5.88-92.22-1-137.28-6.91-21.52-2.83-43-5.92-64.64-7.91-22.23-2.05-44.69-1.73-67-1.3-43.6.83-87,5.82-130.19,11.47-7.9,1-15.49,2.56-21.21,8.79a30.84,30.84,0,0,0-8.25,17.23c-.86,6.39,0,13.54,3.56,19.13,3.92,6.07,10.42,12.72,17.93,13.78,58.38,8.23,117,10.43,175.89,8.11,56.62-2.24,113-8.06,169.33-14.19L797,198.73c7.53-.82,15.33-2.33,22.88-2.22A369.74,369.74,0,0,1,863,200L855,199c14.75,2,29.28,5.26,43.06,11l-13.24-7.71a52.7,52.7,0,0,1,4.56,5l-4.7-6.07a34.44,34.44,0,0,1,4.12,7.13l-3-7.17a30,30,0,0,1,1.64,6.18l-1.07-8a31.31,31.31,0,0,1,0,7.24l1.07-8a40.21,40.21,0,0,1-2.6,9.24l3-7.17a69.1,69.1,0,0,1-8.36,13.93l4.69-6.07c-8.24,10.66-18.3,19.62-28.24,28.65l51.21,21.21,6.15-53.94c1-8.47,2.79-17.29,2.74-25.82A40.57,40.57,0,0,0,910.25,158c-3.82-6.56-11.35-12.91-18.76-14.6a56.94,56.94,0,0,0-12.69-1.08c-34.26.06-68.36,3.72-102.2,8.8-64.67,9.72-128,26.53-191.67,41-35.9,8.12-72,15.52-108.47,20.49l8-1.07c-47.46,6.37-95.55,8.42-143.14,2.2l8,1.07q-11.07-1.49-22-3.53V269l102.67-26.32L444.47,239c11.53-3,19.94-13.45,21.49-24.94,1.5-11.18-3.67-24.55-14.33-29.89-27.52-13.8-56.65-20.65-87.29-22.75-26.62-1.82-53.34.41-79.8,3.33-27,3-53.89,6.82-81,8.53a361.78,361.78,0,0,1-39.79.54c-6.65-.32-13.23-1.14-19.87-1.6a89.65,89.65,0,0,0-22,1.53c-14.47,2.54-26.07,12-34.08,23.87C84.1,203.11,82,209.5,78,214.81l4.69-6.07a31.2,31.2,0,0,1-5.24,5.16l6.07-4.69a33.94,33.94,0,0,1-5,3l44.07,17.93c-4.09-19.5-8.08-39-10.8-58.79l1.07,8c-3.14-23.45-4.39-47.15-1.34-70.66l-1.07,8a205,205,0,0,1,6-27.19c3.79-13.54,1.64-29.65-8.67-39.91a36.86,36.86,0,0,0-35.07-9.89C57.51,43.21,47.24,58,47.19,73.08c-.06,19.28,19.25,34.35,38,28.92a310.2,310.2,0,0,1,44.42-9.3l-8,1.07c44.62-5.86,89.73-3,134.34,1.44,45.76,4.57,91.35,9.89,137.28,12.5,94.19,5.35,188.63,3.47,282.84-.69,25.91-1.15,51.86-2.19,77.74-3.93,23-1.55,46.16-2,69.07,1l-8-1.07a184,184,0,0,1,46.92,12.35l-7.17-3c9.82,4.24,19.7,9.33,28.26,15.78l-6.07-4.69a45.38,45.38,0,0,1,6.67,6.4l-4.69-6.07a29.74,29.74,0,0,1,3.3,5.35l-3-7.17a24.61,24.61,0,0,1,1.39,4.77l-1.08-8a18,18,0,0,1,.2,2.55l55.9-15.14c-9.25-19.5-24.62-35.44-42.25-47.57-18-12.36-39.19-18.68-60.76-20.36v60a108.64,108.64,0,0,1,19.5.73l-8-1.07a101.69,101.69,0,0,1,25.35,6.87l-7.16-3a81.3,81.3,0,0,1,17,10l-6.07-4.7a66.07,66.07,0,0,1,11.15,11.21l-4.69-6.07a62.66,62.66,0,0,1,5.26,8.32l-4.1-15.14c9.9,80.42,5.62,161.63.79,242.25-1.36,22.77-2.77,45.53-3.94,68.31l14.86-25.91-39,19.9,44.07,17.93A176.93,176.93,0,0,1,892,402.35l1.08,8a107.36,107.36,0,0,1-.43-27.8l-1.07,8a65.13,65.13,0,0,1,4-15.36l-3,7.16a49.71,49.71,0,0,1,6.24-10.72l-4.69,6.07a47,47,0,0,1,7.59-7.46l-6.07,4.69a53.46,53.46,0,0,1,7.82-4.78l-44.07-33.88a184.86,184.86,0,0,1-8.09,23.7l3-7.16a182.11,182.11,0,0,1-22.87,39.12l4.69-6.07-1,1.23,36.35-4.69c-46.8-31-96.41-56.8-148.11-78.61l-15.95,57.86c18.75,4.22,38.33,6.11,57.5,4.28a209.76,209.76,0,0,0,31.72-5.18c10.38-2.64,20.14-6.59,30-10.77,9.37-4,14.86-16.39,14.86-25.9,0-11-5.86-20.09-14.86-25.91a283.25,283.25,0,0,0-56.37-27.68c-19.95-7.34-40.4-11.42-61.43-14.18-10.09-1.33-21.1,6.65-25.9,14.86a30.32,30.32,0,0,0,0,30.28,87.35,87.35,0,0,1,4.09,8.15l-3-7.17a81.92,81.92,0,0,1,5.54,20.49l-1.07-8a81.83,81.83,0,0,1-.07,19.72l1.07-8c-.3,2-.65,4-1.07,6l44.07-17.93-1-.73,6.07,4.7a37.33,37.33,0,0,1-5.64-5.74l4.69,6.07a45.62,45.62,0,0,1-5-8.76l3,7.17c-4.54-10.85-5.81-22.65-9.57-33.75-2.52-7.42-5.58-14.94-10.29-21.26a62.26,62.26,0,0,0-29.22-22.17c-21.4-8.12-47.8,1.18-58.29,21.79-4.79,9.43-6.49,19.35-6.67,29.87-.1,6.28.28,12.55-.45,18.81l1.07-8a36.08,36.08,0,0,1-2.1,8.17l3-7.17a31.55,31.55,0,0,1-3.48,6l4.69-6.08a35.4,35.4,0,0,1-5.68,5.6l6.07-4.7a51.66,51.66,0,0,1-10.3,5.86l7.16-3c-7.54,3.13-15.48,4.95-23.48,6.48q-16.8,3.23-33.62,6.42l-68.12,13L360,359.09l-77,14.69,16,57.85,237.92-83.11,68-23.75-23.11-54.83a592,592,0,0,1-85.11,44.77l7.17-3c-28.7,12.08-58.64,21.87-89.58,26.08l8-1.07c-15.63,2-31.42,2.56-47.07.53l8,1.07a135.88,135.88,0,0,1-15.34-3l21,36.91q16.84-59.26,33.71-118.53l-54.83,7.16c.67,1.26,1.27,2.5,1.84,3.81l-3-7.17a41.33,41.33,0,0,1,2.16,8.06l-1.07-8a47,47,0,0,1,0,11.24l1.07-8a56.24,56.24,0,0,1-3.85,13.78l3-7.16a67.71,67.71,0,0,1-7.5,12.6l4.69-6.08c-9.59,12.42-22.26,21.89-34.39,31.65l-41.19,33.16-83.07,66.87-47.46,38.21,6.07-4.69c-18.87,13.85-37.66,30.26-47.3,52.16-5.42,12.31-9,24.83-8.82,38.47.22,15.25,4.59,28.92,10.88,42.62l-3-7.16C140,630.87,194.59,689.71,264.51,704.82c22.2,4.79,43.63,4.86,66,1.36l7.17-3a22.64,22.64,0,0,0,8.41-7.72c3.91-5.06,6.74-11.61,6.45-18.18-.61-13.56-9-24.84-22-28.93a340.59,340.59,0,0,0-93.35-15.14L263,648l-54.95-92.81-7.74-13.06-4.69,36.35c30.72-27.13,60.56-55.3,91.87-81.76,7.45-6.3,15-12.47,22.73-18.44L304.18,483c22.17-17.07,45.8-32.15,71.63-43.06l-7.16,3c25-10.46,51.39-16.83,78.21-20.49l-8,1.07c25-3.34,50.33-4.5,75.57-4.51a403.93,403.93,0,0,1,48.4,3.26c16.58,2,33.39,3.8,50.07,1.88a175.76,175.76,0,0,0,29.21-5.78,160.85,160.85,0,0,1,21-5l-8,1.08a54.39,54.39,0,0,1,13.31-.29l-8-1.07a36.46,36.46,0,0,1,7.89,2l-7.17-3a31.81,31.81,0,0,1,6.21,3.54L661.3,411a36.41,36.41,0,0,1,4.67,4.45l13.24-50.14c-3.32.59-6.64,1.12-10,1.58l8-1.07c-57.46,7.47-114.43-7.7-171.83-8.11-60.2-.43-116.56,19.39-173.11,37.48-8.9,2.85-18,4.83-27,7.55-8.74,2.67-17.39,5.67-25.89,9-19.52,7.72-38.73,16.51-56.2,28.24-18.67,12.53-34.82,27.1-47.83,45.48a111.79,111.79,0,0,0-20,60.13,116.91,116.91,0,0,0,4.3,34.45A75.92,75.92,0,0,0,189,622.21c16.92,12.27,39.35,11.6,57.4,2.5,15.09-7.61,26-22.19,33.06-37.13,3.53-7.44,6.59-15.07,9.77-22.66l-3,7.16a262,262,0,0,1,33.62-57.37l-4.69,6.07a288.38,288.38,0,0,1,51-50.57L360,474.9a346.85,346.85,0,0,1,76.29-44.09l-7.17,3a412.91,412.91,0,0,1,80.46-24.34l-15.95-57.86c-33.32,9.83-66.43,20.44-99,32.6-39.11,14.62-78.14,30.95-114.12,52.27A312.14,312.14,0,0,0,232,471.45c-14.81,13.19-30,29.73-34.77,49.42-3.32,13.78-3.79,28.3-2.41,42.37,1.17,11.87,2.77,24,6.7,35.35,4.48,12.93,10.58,24.69,20,34.73,10.27,10.91,26,20,41.3,19.21,29.63-1.59,52.57-21.6,67-46.35A146.76,146.76,0,0,0,344.21,572c4-14.34,3.83-29.16,5.71-43.8l-1.07,8a67.42,67.42,0,0,1,2.57-11.23l-3,7.17a142.74,142.74,0,0,1,13.82-21.47l-4.69,6.07c12.08-15.49,26.48-29,42-41l-6.07,4.69a283.48,283.48,0,0,1,61.79-36.63l-7.17,3c10.41-4.36,20.94-8.07,32.13-9.66l-8,1.07c27.41-3.67,55.06-1.31,82.61-2.08a250.41,250.41,0,0,0,46.33-5.23c13.78-3,26.49-10.09,40.36-12.36l-8,1.07a43,43,0,0,1,6.42-.31l-8-1.07a179.42,179.42,0,0,1,25.29,8.62l-7.17-3c26.37,11.34,50.14,27.53,74.73,42.14,10.4,6.18,23.92,4.92,33.32-2.35a28.74,28.74,0,0,0,9.24-12c2.39-5.67,3.86-13.57,1.51-19.53l-7.57-19.21-36.9,36.91a165.7,165.7,0,0,1,29.2,9.08l-7.17-3a173.52,173.52,0,0,1,37.87,22.08l-6.07-4.7a176,176,0,0,1,31,31l-4.69-6.07A166.67,166.67,0,0,1,825.4,533.6l-3-7.17q.52,1.23,1,2.46c3,7.2,6.51,14.09,13.79,17.93a30.9,30.9,0,0,0,19.13,3.56c13.77-1.85,27.15-14.54,26-29.46a167.49,167.49,0,0,0-4.1-27.27c-2.21-8.91-5.69-17.23-9.32-25.65l-4.69-6.07a22.52,22.52,0,0,0-9.65-6.21c-6-2.51-13.21-3.56-19.54-1.51a35.72,35.72,0,0,0-13.24,7.72c-5,4.57-9.5,14.33-8.78,21.21,4.76,46,11.83,96.57,48,129.51,9.06,8.24,21.29,11,32.77,6.2a28.58,28.58,0,0,0,12-9.24c3.69-4.78,7.18-11.93,6.44-18.18a363,363,0,0,1,.62-89.24l-1.07,8a362.81,362.81,0,0,1,20.87-81.69l-57.86-16c-4.79,34.79-5.83,69.5-5.32,104.58.24,16,.09,32.18.92,48.19a177.05,177.05,0,0,1-1.14,32.14l1.07-8a119.65,119.65,0,0,1-7.84,29.77l3-7.17a83.32,83.32,0,0,1-10.44,18l4.7-6.07a69.59,69.59,0,0,1-11.66,11.67l6.08-4.69a68.43,68.43,0,0,1-14.73,8.57l7.17-3a81.52,81.52,0,0,1-19.16,5.15l8-1.07c-7.52,1-15,.71-22.51.9l-30.53.79q-30.54.81-61.09,1.59c-40.44,1-80.88,1.91-121.33,2.32q-30.08.31-60.16.24c-18.26-.06-36.55-.7-54.81-.56-23.07.18-46.13,4.1-69,6.79-27.85,3.28-56.55,6.6-84.52,2.93l8,1.08a93.22,93.22,0,0,1-22.73-5.77l7.17,3a52.6,52.6,0,0,1-11-6.25l6.07,4.69a40.7,40.7,0,0,1-6.45-6.27l4.69,36.36A67.17,67.17,0,0,1,324.77,670l-4.69,6.07a83.88,83.88,0,0,1,14.25-14.12l-6.08,4.69a125.54,125.54,0,0,1,28-16l-7.16,3a197.59,197.59,0,0,1,48.64-12.77l-8,1.07a196.06,196.06,0,0,1,51.05-.5l-8-1.08c2.44.34,4.87.73,7.29,1.19L433,586.75A356.18,356.18,0,0,1,389.28,609l7.16-3a357.16,357.16,0,0,1-40.11,14.12c-12.21,3.5-22.61,15.77-22,28.93a35.57,35.57,0,0,0,4.09,15.14c3,5.74,11.3,12.81,17.93,13.79,45.95,6.79,91.85,7.12,138,2.59S586.06,668,631.65,660.12c24.65-4.23,49.33-8.35,74.12-11.69l-8,1.07c48.5-6.45,97.61-9.71,146.38-4.23L829,589.37a50.76,50.76,0,0,1-8.46,4.72l7.16-3a60.56,60.56,0,0,1-14.51,3.77l8-1.08c-16.85,2-33.68-1.18-50.52-1.69-9.46-.29-19.17,1.19-28.62,1.7q-15.06.83-30.15,1.17a1117.34,1117.34,0,0,1-120.12-4c-22.5-1.9-44.94-4.42-67.32-7.41l8,1.07c-65.18-8.8-129.71-21.81-193.64-37.2V605.3q26.69-5.94,53.8-9.55l-8,1.08c113.65-15,228-1.07,341.85,3.78,31.87,1.36,63.77,2,95.66,1,15.67-.45,30.74-13.47,30-30-.72-16-13.19-30.25-30-30l-180.29,2.73-51.13.77a30,30,0,0,0-29.46,26c-.86,6.39,0,13.54,3.56,19.13,4.51,7,10.28,10.65,17.93,13.79,16.28,6.67,33.63,10.56,51,5.66,12.22-3.45,22.61-15.81,22-28.93s-8.86-25.69-22-28.93q-108.74-26.73-219.65-43.15-34.5-5.1-69.13-9.29l21.21,51.21c1-.93,2-1.81,3-2.66l-6.07,4.69a46,46,0,0,1,9.19-5.32l-7.16,3A73.35,73.35,0,0,1,382.38,546l-8,1.07c13.34-1.76,26.9-1.59,40.33-1.88q22.45-.48,44.92-.8,44-.63,88.05-.77c58.72-.25,117.43-.09,176.15-.15q50.32-.06,100.64-.46l-8-58.93c-26.12,9.74-52.51,19.39-80.26,23.21l8-1.07a163.45,163.45,0,0,1-30.4,1.19l8,58.93c21.46-6.7,43.23-14,63.25-24.38,13.69-7.09,29-18.08,32.71-34.07,4.46-19.13-5.71-37.4-23.2-45.6-13-6.08-26.36-9.38-40.45-11.6-39.25-6.19-79.11-7.86-118.79-8.46q-61.86-.93-123.72,2.24c-16.24.84-32.47,1.88-48.65,3.45-12.69,1.24-25.66,2.34-38.08,5.33a146.68,146.68,0,0,1-14.79,2.47l8-1.07c-9.74,1.25-19.48,2-29.27.87l8,1.07c-1.14-.14-2.28-.31-3.41-.51l17.93,44.07a81.78,81.78,0,0,1,4.69-7l-4.69,6.08a83.66,83.66,0,0,1,14.9-14.71l-6.07,4.69a108.06,108.06,0,0,1,22-12.63l-7.16,3c11.27-4.71,24.05-6.57,36-8.88,12.56-2.41,25.19-4.42,37.86-6.15l-8,1.07c69.64-9.32,140-9.41,210.08-13l-8-58.93-13,4.73,36.9,20.95L696.3,341.25,691.9,330c-2.94-7.52-6.58-13.72-13.79-17.93-6.43-3.77-15.9-5.36-23.11-3-16.12,5.22-24.6,20.47-21,36.91,6.74,30.42,41.58,35,65.73,45.14l-7.17-3c49.87,21.15,93.55,54.2,143.2,75.78,15.83,6.89,31.82,13.1,48.59,17.29,17.64,4.39,39.5-8.86,38-28.93l-1.1-14.38c-.61-8.05-2.93-15.36-8.78-21.21-5.21-5.21-13.74-9.12-21.22-8.79-15.91.71-30.42,13.19-30,30q1.72,68.22,1,136.47c-.17,15.69,13.92,30.72,30,30,16.39-.74,29.82-13.18,30-30Z"/></g></g></svg>