<svg xmlns="http://www.w3.org/2000/svg" preserveAspectRatio="none" viewBox="0 0 260 257"><defs><style>.cls-1{fill:#54592c;}</style></defs><g id="Layer_2" data-name="Layer 2"><g id="Layer_1-2" data-name="Layer 1"><path class="cls-1" d="M15.65,10.64C2.2,21.15-.52,34.72,1.11,47.52S8.27,72.89,9.64,85.69C12.42,111.8-2.22,137.75.29,163.86c1.33,13.71,7.36,27.15,10.2,40.8a88,88,0,0,1-1,39.65c-.35,1.4-.73,2.87.24,4.18,1.42,1.91,5.24,2.9,8.78,3.61,27.29,5.53,57.28,5.6,86.26,4s57.57-4.82,86.65-5.6c10.1-.27,20.5-.27,29.92-2.28,21.87-4.67,32.11-18.85,31.93-31.68s-8.1-25.21-11.18-37.93c-5.6-23.12,4.91-46.37,9.85-69.54,3.69-17.34,4.25-34.95-.15-52.24-2.35-9.23-6-18.82-.74-27.68,2.48-4.14,6.85-7.93,8.44-12.22s-.73-9.48-8-11.23c-6.27-1.51-13.39,0-19.84,1.28a198.24,198.24,0,0,1-59.78,1.89C153,6.55,135.17,1.53,115.86.54,81.77-1.17,44.35.87,15.48,10.89"/></g></g></svg>