<svg xmlns="http://www.w3.org/2000/svg" preserveAspectRatio="none" viewBox="0 0 1000.4 351.72"><defs><style>.cls-1{fill:#2c282c;}.cls-2{fill:none;stroke:#2c282c;stroke-miterlimit:10;}</style></defs><g id="Layer_2" data-name="Layer 2"><g id="Layer_1-2" data-name="Layer 1"><path class="cls-1" d="M12.93,153.59A683.79,683.79,0,0,1,.54,39.45C.36,32,.63,23.71,5.85,18.4c3.57-3.62,8.74-5.06,13.69-6.25C146.94-18.51,279.4,20,410.1,29.33c55.1,3.93,110.43,2.62,165.65,1.32l316.36-7.47c33-.78,70.88.5,92,25.88,18.55,22.27,16.81,54.52,14.08,83.37q-7,74.26-14.05,148.52c-1.38,14.66-3,30.06-11.46,42.15-13.86,19.88-41,24.38-65.19,26-66.89,4.62-134,.63-201-3.36l-140.89-8.4c-56.18-3.35-112.41-6.7-168.18-14.24-70.1-9.48-140.54-25.61-210.83-17.64-23.37,2.65-46.42,7.95-69.89,9.55-26.67,1.82-53.42-1.16-80-4.15-9.27-1-19.64-2.69-25.12-10.24-4.31-5.95-4.29-13.9-4.08-21.25Q9.3,216.69,11,154Z"/><path class="cls-2" d="M13.58,156.92c-.22-1.11-.44-2.22-.65-3.33A683.79,683.79,0,0,1,.54,39.45C.36,32,.63,23.71,5.85,18.4c3.57-3.62,8.74-5.06,13.69-6.25C146.94-18.51,279.4,20,410.1,29.33c55.1,3.93,110.43,2.62,165.65,1.32l316.36-7.47c33-.78,70.88.5,92,25.88,18.55,22.27,16.81,54.52,14.08,83.37q-7,74.26-14.05,148.52c-1.38,14.66-3,30.06-11.46,42.15-13.86,19.88-41,24.38-65.19,26-66.89,4.62-134,.63-201-3.36l-140.89-8.4c-56.18-3.35-112.41-6.7-168.18-14.24-70.1-9.48-140.54-25.61-210.83-17.64-23.37,2.65-46.42,7.95-69.89,9.55-26.67,1.82-53.42-1.16-80-4.15-9.27-1-19.64-2.69-25.12-10.24-4.31-5.95-4.29-13.9-4.08-21.25Q9.3,216.69,11,154"/><path class="cls-1" d="M13.57,153.83q-.36-6.69-.23-13.39c0-1.93-3-1.93-3,0q-.12,6.7.23,13.39a1.54,1.54,0,0,0,1.5,1.5,1.5,1.5,0,0,0,1.5-1.5Z"/><path class="cls-1" d="M12,155.23a1.5,1.5,0,0,0,0-3,1.5,1.5,0,0,0,0,3Z"/><path class="cls-1" d="M12,155.26a1.5,1.5,0,0,0,0-3,1.5,1.5,0,0,0,0,3Z"/><path class="cls-1" d="M12,155.48a1.5,1.5,0,0,0,0-3,1.5,1.5,0,0,0,0,3Z"/></g></g></svg>