<svg xmlns="http://www.w3.org/2000/svg" preserveAspectRatio="none" viewBox="0 0 877.98 624.18"><defs><style>.cls-1{fill:#f96;}.cls-2{fill:none;stroke:#f96;stroke-miterlimit:10;stroke-width:5px;}</style></defs><g id="Layer_2" data-name="Layer 2"><g id="Layer_1-2" data-name="Layer 1"><path class="cls-1" d="M838.21,53.24c24.53,25.4,39.36,60.76,37,96-1.44,22-9.26,43.07-13.34,64.76-7.49,39.82-2.29,80.76,1.46,121.1a1671.29,1671.29,0,0,1,6.17,213.1c-.37,10.63-.95,21.66-5.93,31.06-10.59,20-36.26,25.36-58.69,28.09-239.16,29-481.4,3.49-722.16,12-18.1.64-36.92,1.34-53.5-5.92s-30.08-25.13-26-42.76L2.5,569q11.75-199.1,8.83-398.71c-.67-46.13.31-98,33.51-130.07,19.67-19,47.64-27.19,74.92-28.81s54.52,2.67,81.72,5.32c66.92,6.52,134.37,3.18,201.52-.16L656.83,3.89C686.37,2.42,716.2,1,745.34,6,780.13,12.07,813.68,27.84,838.21,53.24Z"/><path class="cls-2" d="M2.5,569q11.75-199.1,8.83-398.71c-.67-46.13.31-98,33.51-130.07,19.67-19,47.64-27.19,74.92-28.81s54.52,2.67,81.72,5.32c66.92,6.52,134.37,3.18,201.52-.16L656.83,3.89C686.37,2.42,716.2,1,745.34,6c34.79,6.05,68.34,21.82,92.87,47.22s39.36,60.76,37,96c-1.44,22-9.26,43.07-13.34,64.76-7.49,39.82-2.29,80.76,1.46,121.1a1671.29,1671.29,0,0,1,6.17,213.1c-.37,10.63-.95,21.66-5.93,31.06-10.59,20-36.26,25.36-58.69,28.09-239.16,29-481.4,3.49-722.16,12-18.1.64-36.92,1.34-53.5-5.92s-30.08-25.13-26-42.76"/></g></g></svg>