<svg xmlns="http://www.w3.org/2000/svg" preserveAspectRatio="none" viewBox="0 0 914.24 1341.67"><defs><style>.cls-1{fill:#ff9;}</style></defs><g id="Layer_2" data-name="Layer 2"><g id="Layer_1-2" data-name="Layer 1"><path class="cls-1" d="M32.08,387.46q-4.75-43.4-5.78-87.09Q19,189.55,11.61,78.74c-1.34-20.26-2-42.68,10.79-58.41C37.44,1.87,64.54.2,88.35.1q372-1.59,743.56,23.09c18.42,1.22,38.88,3.47,51,17.43C893.14,52.5,894.29,69.49,895,85.18c16.13,385.08,32.26,771.22,3.29,1155.55C896,1270.3,892,1303,869.77,1322.54c-21.41,18.84-52.8,19.45-81.32,19.06l-655.85-9.06c-23.6-.32-48.22-.9-69.06-12C24.25,1299.73,11.77,1250,6.71,1205.83-4.38,1109,.53,1011.12,5.45,913.77Q18.77,650.61,32.08,387.46Z"/></g></g></svg>