<svg xmlns="http://www.w3.org/2000/svg" preserveAspectRatio="none" viewBox="0 0 839.76 684.1"><defs><style>.cls-1{fill:#54592c;}</style></defs><g id="Layer_2" data-name="Layer 2"><g id="Layer_1-2" data-name="Layer 1"><path class="cls-1" d="M500.6,645.78l79,1c27.32.35,55.11.06,81.65-7.25,7-1.92,14.5-7.3,17.93-13.79,3.57-6.75,5.86-15.67,3-23.11L660.34,545.2l1.07,8c-1.31-10.35-2.95-20.17-6.67-29.93a235,235,0,0,0-13-28.4c-7.86-14.49-16.78-28.41-23.3-43.6l3,7.17c-4.71-11.24-7.28-22.79-8.91-34.85l1.07,8c-2.9-22.06-4.66-44.42-16.5-63.93-12.52-20.61-32.69-34.88-57.18-35.91-10.44-.43-20.74,6-25.91,14.86-5,8.51-6.18,21.91,0,30.29a408.85,408.85,0,0,0,30.29,36.91c5.29,5.66,10.62,11.28,16.75,16a39.67,39.67,0,0,0,19.72,8.31c9.38,1.26,17.37-1.23,25.84-5,6.48-2.87,12.83-6.1,19.22-9.17a56.2,56.2,0,0,0,10.67-6.31,35.23,35.23,0,0,0,14-27.28c.27-13.2-7.85-23.62-15.8-33.17a87,87,0,0,0-11.52-11.43c-22.76-18.74-51-30.36-80.85-29.64-9.87.23-20.53,1.15-29,6.61A35.07,35.07,0,0,0,497,351.39c-.18,5.21,1,10.49,2.2,15.55a276.77,276.77,0,0,0,11.89,37.18c11.59,29.57,26.21,57.76,38.58,87l-3-7.17c3.14,7.48,6.13,15,8.8,22.68s5.54,15.46,6.66,23.44l-1.07-8a29.19,29.19,0,0,1,0,5.37l1.07-8a23.74,23.74,0,0,1-1.39,4.94l3-7.17a41.29,41.29,0,0,1-4.75,7.57l4.69-6.07c-4.46,5.73-9.13,11.32-14.87,15.83l6.07-4.69A38.8,38.8,0,0,1,548,534l7.16-3a26.77,26.77,0,0,1-6.4,1.76l8-1.08a25.39,25.39,0,0,1-4.53,0l8,1.08a23.5,23.5,0,0,1-5.22-1.38l7.17,3a26.36,26.36,0,0,1-4.63-2.69l6.07,4.69a30.78,30.78,0,0,1-4.67-4.6l4.69,6.08a37.1,37.1,0,0,1-4.55-7.73l3,7.17a41.78,41.78,0,0,1-2.5-9.38l1.07,8c-1.81-14.78,1.7-29.73,1.45-44.56a250.33,250.33,0,0,0-6.46-50.17c-6.28-27.95-16.24-55.54-27.14-82-3.3-8-6.56-16.16-11.43-23.37a85.55,85.55,0,0,0-21.81-22.51c-16.51-12-41.38-15-59.54-5.07-5.87,3.21-11.33,8.21-14.36,14.26-3.55,7.07-4.68,14.62-4.5,22.44a188,188,0,0,0,2.68,25.27A180.42,180.42,0,0,0,429.52,406C440.6,435,455.89,462.11,468,490.69l-3-7.17c5.12,12.17,10.33,24.92,12.27,38.05l-1.07-8a49.34,49.34,0,0,1,.14,12.79l1.07-8a30.67,30.67,0,0,1-1.85,6.78l3-7.17a25.2,25.2,0,0,1-2.42,4.22l4.69-6.07a22.41,22.41,0,0,1-3.48,3.54l6.08-4.69a25,25,0,0,1-4.18,2.45l7.16-3a31.73,31.73,0,0,1-7.43,1.92l8-1.07a48.54,48.54,0,0,1-10.91,0l8,1.07a27.73,27.73,0,0,1-6.57-1.81l7.17,3a24.44,24.44,0,0,1-2.89-1.68l6.07,4.69a19.22,19.22,0,0,1-3.22-3.28l4.69,6.07a25.83,25.83,0,0,1-2.22-4.15l3,7.17c-2.79-7.41-3.93-15.56-5.64-23.27l-5.37-24.25-11.07-50c-6.76-30.53-13.5-61.17-23.66-90.79a374.57,374.57,0,0,0-23.17-54.18c-9.06-17.07-34-19.43-47.12-6.08-6.9,7-14,14.21-18.36,23.16a89.16,89.16,0,0,0-9.07,47.95A127.61,127.61,0,0,0,351,373.08a200,200,0,0,0,10.53,26.34c6.06,13.05,13.28,25.53,19,38.76l-3-7.17A200.54,200.54,0,0,1,391,482l-1.07-8a351.38,351.38,0,0,1,2.7,47.65c-.08,15.78-.36,31.78-1.71,47.51l1.07-8a23.35,23.35,0,0,1-1.33,5l3-7.16a21.69,21.69,0,0,1-2,3.52l4.69-6.07a12.78,12.78,0,0,1-1.87,1.88l6.07-4.69a5,5,0,0,1-1.38.72l7.17-3-.72.17,8-1.07-.73,0,8,1.08a4,4,0,0,1-1.51-.43l7.17,3-.76-.48,6.07,4.69-.79-.73,4.69,6.07a7.41,7.41,0,0,1-1.13-1.86l3,7.17c-5.08-12.86-8.7-26.52-12.89-39.69q-6.45-20.27-12.52-40.65c-8-26.89-15.2-54-20.95-81.46Q386.3,383.6,383,359.68l1.08,8c-1.59-11.89-2.6-23.79-3.7-35.72-1.49-16.1-4.66-30.74-15.5-43.33-25.14-29.18-71.61-12.62-90.56,15-10.79,15.69-7.08,33.85-3.89,51.2q3.29,17.82,7.16,35.54c5.1,23.12,11.09,46.05,18.36,68.58q6.21,19.28,13.74,38.09c5.8,14.4,12.51,28.35,18.6,42.61l-3-7.16a71.13,71.13,0,0,1,5.1,17.23l-1.07-8a40.66,40.66,0,0,1,0,9.42l1.07-8a27.71,27.71,0,0,1-1.37,5.32l3-7.16a25.4,25.4,0,0,1-2.77,4.82l4.69-6.08a27.9,27.9,0,0,1-4.64,4.64l6.08-4.69a28.93,28.93,0,0,1-5.6,3.24l7.17-3a24,24,0,0,1-5.13,1.39l8-1.07a19.85,19.85,0,0,1-4.22,0l8,1.07a16.85,16.85,0,0,1-3.19-.84l7.17,3a16.57,16.57,0,0,1-2.92-1.67l6.08,4.69a17.56,17.56,0,0,1-1.94-1.82l4.69,36.35c15.35-28.89,14.69-62.09,6-93-3.83-13.63-9.1-26.79-13.83-40.12a381.45,381.45,0,0,1-11.83-40.55c-3.24-13.78-5.88-27.7-8.38-41.63-2.33-13-4-26.27-7.51-39-4.08-14.92-11.51-30.8-23.84-40.68-7.63-6.11-15.37-10.94-25-13.55a57.94,57.94,0,0,0-29-.36c-11.22,2.78-20.52,9.74-27.47,18.73-7.46,9.66-10.51,20.46-11.71,32.43-2,19.43,7.51,37.53,14.82,54.8l-3-7.16C222.68,395,231.12,419.42,239,444c7.74,24.26,16.18,49.16,19.89,74.42l-1.07-8a70.86,70.86,0,0,1,.33,18.17l1.07-8A45.25,45.25,0,0,1,256.39,531l3-7.17a35.78,35.78,0,0,1-3.89,6.59l4.69-6.08a36.86,36.86,0,0,1-6.25,6.17l6.07-4.69a33.32,33.32,0,0,1-6.54,3.72l7.17-3a28.94,28.94,0,0,1-6.06,1.59l8-1.07a25.33,25.33,0,0,1-5.15,0l8,1.07a23.28,23.28,0,0,1-5.06-1.39l7.16,3a23.11,23.11,0,0,1-3.78-2.22l6.07,4.69a23.28,23.28,0,0,1-3.15-3l4.69,6.07a21,21,0,0,1-2.74-4.69l3,7.17a24,24,0,0,1-.85-3.12l1.07,8a19,19,0,0,1,0-4.64l-1.07,8a35.19,35.19,0,0,1,2.19-6.72l-3,7.17c5.79-13.16,12.25-26.39,15.47-40.49,3.55-15.55,4.09-32.13-1-47.45-3.82-11.56-9.59-22.17-16.11-32.38-5.49-8.58-11.18-17.05-15.27-26.4l3,7.17a67.19,67.19,0,0,1-4.62-16.46l1.07,8c-1.14-8.88-.88-17.86-1.89-26.74-1.39-12.19-3.55-23.24-9.9-34-5.48-9.24-13.68-18-23.45-22.68-14.93-7.18-30.22-7-45.19-.09-9.81,4.54-17.84,13.17-23.5,22.21-6.47,10.32-8.93,21.8-10.12,33.72A72.09,72.09,0,0,0,142.24,401c4,11.5,9.57,20.54,17.35,29.83,10.19,12.19,24,20.73,33.82,33.29l-4.69-6.07a56.58,56.58,0,0,1,6.52,11l-3-7.17a58.22,58.22,0,0,1,3.87,14.56l-1.07-8a94.19,94.19,0,0,1-.54,23l1.07-8c-2.78,20-8.33,39.37-9.83,59.57l1.07,8a22.55,22.55,0,0,0,5.37,10.2c3.83,5,9.31,9.33,15.59,10.76,13.23,3,26.66-2.08,33.88-13.79l29.9-48.5L325.62,422c8.55-13.86,16.88-27.89,25.68-41.6,13.86-21.61,28-43.05,42-64.57,14.46-22.23,29.1-44.35,43.37-66.69l.77-1.19-17.93,13.79a1035.19,1035.19,0,0,1,125.67-25l-8,1.08q23.93-3.19,48-5.29c15.63-1.36,31.42-1.53,47-3.13,8.12-.84,14.72-2.13,21.92-6.36a39.12,39.12,0,0,0,17-21.8c5.28-16.27-2-34.89-17.39-42.7-10.4-5.29-22.54-6.05-34-6.83a158.77,158.77,0,0,0-23.89.23c-7.72.64-15.74,2.82-21.21,8.79A30.8,30.8,0,0,0,566.35,178c-1.87,13.94,6.83,29.81,21.49,32.92C634,220.66,680.36,230.65,724,249l-7.17-3a318,318,0,0,1,46.69,24.35c19,12.1,45.84-3.61,45.14-25.9a784.4,784.4,0,0,1,1.84-83.28c1.43-19-20.39-34.71-38-28.93-13.94,4.58-28,9-42.53,11.1l8-1.07a97.13,97.13,0,0,1-24.45.3l8,1.07a93,93,0,0,1-23-6.59l7.16,3C682.8,130.21,661.87,114.63,637,110c-17.65-3.32-34-2.26-51.63.55-13.22,2.1-26.23,5.36-39.49,7.18l8-1.07c-16.9,2.18-33.75,1-50.59-1.24l8,1.07c-29.15-4-58.56-10.53-88.11-7.36-28.68,3.07-56.28,11.46-81.08,26.46a190.3,190.3,0,0,0-37.37,29.57c-13,13.36-11.26,37.89,6.07,47.12S347.31,225.66,367,226c17.9.3,35.82-2.63,53.42-5.58,33.8-5.69,67.14-13.76,100.69-20.73,18.93-3.93,37.94-7.48,57.1-10.09l-8,1.07c8.85-1.18,17.71-2.16,26.61-2.88l-8-58.93c-51.92,14.75-104.07,29.47-157.67,36.71l8-1.07c-8.66,1.14-17.34,2.11-26,2.82-7.9.66-15.92,1.45-23.82.59l8,1.07a36.51,36.51,0,0,1-8.48-2.14l7.17,3a29.07,29.07,0,0,1-5.38-3.11l6.07,4.69a33.19,33.19,0,0,1-5.05-5.21l4.69,6.07c-7.05-9.58-11.76-21.09-17.67-31.39-6.11-10.66-12.38-21.4-19.62-31.34-9-12.32-19.33-24.46-33.29-31.34a77.85,77.85,0,0,0-28.89-8.11,50.17,50.17,0,0,0-22.46,3.21,90.14,90.14,0,0,0-21.16,11.79,82.22,82.22,0,0,1-16.56,9.92l7.17-3c-9.73,3.94-20,5.88-30.32,7.71l-34.22,6.09c-22.81,4-45.63,8.86-68.57,12.07l8-1.07a50.86,50.86,0,0,1-12.57.21l8,1.07a29.59,29.59,0,0,1-6.35-1.75l7.16,3a26,26,0,0,1-3.67-2.16l6.07,4.69a24.13,24.13,0,0,1-3.81-3.75l4.69,6.08a23,23,0,0,1-2.16-3.59l3,7.17a19.6,19.6,0,0,1-1.14-3.9l1.07,8a17.68,17.68,0,0,1,0-3l-1.08,8a17,17,0,0,1,.75-3l-3,7.17a18.87,18.87,0,0,1,1.59-2.85l-4.69,6.07a20.52,20.52,0,0,1,3-3.07l-6.07,4.69a34.56,34.56,0,0,1,6.86-3.87l-7.17,3c15.45-6.38,32.15-10.23,48.67-12.52l-8,1.07a223.21,223.21,0,0,1,58.2-.06l-8-1.07c18,2.47,35.29,8.11,53.18,11.08,20.5,3.39,40.55,3,61.21,2.24,37.62-1.38,75-3.87,112.46-7.56,18.46-1.82,36.95-3.47,55.5-3.88s37.38.29,56,1.31c38,2.08,76,4.64,113.93,7l128.22,7.92c9.3.58,18.1-4.75,23.55-11.82,6.06-7.84,7.38-16.53,5.37-26.15-4.57-22-19.39-39.36-36.91-52.4C756.84,48.49,737,42.15,718,38.12c-40.22-8.54-81.06-10.07-121.92-6.31-24.14,2.22-48.15,5.73-72.17,9l8-1.07c-24.59,3.3-49.25,6.39-74.06,7.36a437.72,437.72,0,0,1-74.42-3.53l8,1.07Q380.15,43.07,369,41l-8,58.93,16,1.75c6.86.74,16.66-3.83,21.21-8.79a30.84,30.84,0,0,0,8.25-17.23c1.87-13.89-6.82-29.86-21.49-32.91A838.28,838.28,0,0,0,185.94,25.25,815.66,815.66,0,0,0,84.12,35.1C62.54,38.58,44.82,54,41.22,76.05,38.3,93.91,37.64,112.31,37,130.37q-.52,13.74-.6,27.5c-.07,13.63-.94,27.9,7.87,39.31a36.63,36.63,0,0,0,28.64,14.43c6.09.19,12.28-1.36,18.28-2.37Q105,206.92,119,205.05l-8,1.08c73.75-9.84,148.3-10.73,222.58-9.56,21.08.33,42.16.82,63.24,1.31v-60l-35.54-.21-85.33-.5-103.25-.61L83.45,136c-14.44-.09-28.91-.42-43.36-.26h-.6c-16.5-.1-29.61,13.83-30,30Q6.07,308.87,2.66,452L1,523.35c-.58,24.14-2.4,48.43,1.3,72.4a82.6,82.6,0,0,0,42.48,59.84c22.54,12.3,48.12,17,73.37,19.52,22.78,2.32,45.81,2.16,68.68,2.18,23.72,0,47.43-.34,71.14-.81,47.42-.93,94.83-2.32,142.26-2.11,46.34.2,92.39,2.91,138.58,6.43,46.44,3.55,92.55,5.54,138.84-.92,21.1-3,42.09-7.84,61.87-15.87,21.9-8.89,43.06-20.62,57.93-39.53A129.57,129.57,0,0,0,809,607.85a166.19,166.19,0,0,0,9-19.74,161.1,161.1,0,0,0,8.12-28.33c4.81-24,7.06-48.71,8.38-73.17,2.53-47.08,2.42-94.37,3.3-141.5.9-47.6,2.45-95.25,1.83-142.87-.3-22.52-.75-45.26-3.42-67.65-2.89-24.3-7.85-48.72-21.34-69.65A128.27,128.27,0,0,0,764,19.79c-22.92-11.29-47-16.58-72.33-18.73C668.87-.88,645.84.2,623,1.47c-23.51,1.31-47,3.32-70.42,5.38-46.82,4.11-93.74,8.44-140.8,7.82S318.28,7.33,271.49,3.86A848.94,848.94,0,0,0,131.12,5Q113.62,6.65,96.21,9c-12.21,1.62-25.35,2.43-37,6.79C44.35,21.33,31.44,30.63,23.89,45,18.53,55.2,15.64,65.84,14,77.14A521.43,521.43,0,0,0,8.29,153q0,8.31.34,16.63c.33,8.47-.26,18.71,4.74,25.86,2.07,3,4.43,5.75,6.63,8.61l15.45,20-3-7.16c5.41,15.66,16.17,28.58,31.16,36,13.25,6.55,26.54,9.58,41.06,11.53,29.1,3.91,59.27,1.49,87.11-8.12,16-5.53,31.29-12.9,46.85-19.5l-7.17,3c15.89-6.67,32.08-11.76,49.18-14.16l-8,1.07a178,178,0,0,1,46.8,0l-8-1.07q5.64.8,11.22,1.92l8-58.93a1200.59,1200.59,0,0,0-154.9,2.82q-22.17,1.85-44.28,4.52c-7.86.95-15.54,2.62-21.21,8.79A30.84,30.84,0,0,0,102,202.05c-1.88,14,6.84,29.74,21.49,32.91,71.76,15.55,144,30.25,217.78,29.17,20.44-.3,40.8-.59,61.11,2.12l-8-1.07c18.93,2.63,37.54,7,56.28,10.68a488,488,0,0,0,63.37,8.31c38.81,2.44,77.75-.12,116.34-4.41,21.21-2.36,42.81-6.54,64.17-3.67l-8-1.07c9.52,1.45,18.5,4.54,27.35,8.25l-7.17-3c22.65,9.62,44.4,21.17,69.69,21.06l-30-30c-1,19.43-1.69,38.91-3.11,58.31l1.07-8a6.72,6.72,0,0,1-.58,2.29l3-7.16-.66,1,4.69-6.07-.71.58,6.07-4.69-.76.34,7.17-3-.8.12,8-1.07-.82-.08,8,1.07-.83-.25,7.16,3a7.86,7.86,0,0,1-1.67-.94l6.07,4.69a20,20,0,0,1-3-3l4.69,6.07c-7.56-10.44-14.45-21-24.53-29.24a140.63,140.63,0,0,0-35.35-21.55c-25.81-10.89-53.73-14.33-81.64-13.39-15.5.52-30.94,2.26-46.35,4l8,1.08c-2.5-.45-5-.91-7.48-1.34-7-1.23-13.53-1.15-20.54-.87-13.41.53-26.84,1-40.26,1.37-26.33.67-52.69.74-79-.69-15.07-.82-30.09-2.16-45.05-4.13l8,1.07a478.28,478.28,0,0,1-63.9-13.23c-23.41-6.49-46.65-11.77-71-13.24-44.26-2.66-88.2,5.8-132.19,9.09q-18.72,1.4-37.48,1.88c-11.47.29-23.45,1.17-34.86-.23l8,1.07a35.59,35.59,0,0,1-8.43-2.19l7.17,3a21.21,21.21,0,0,1-3.86-2.24l6.07,4.69a18.7,18.7,0,0,1-1.81-1.75l4.69,6.07a12.82,12.82,0,0,1-1.67-2.86l3,7.17a14.06,14.06,0,0,1-.58-2.57L54.25,279.36l84,64.79,11.89,9.17-13.79-33.88c-8.49,26.47-7,55.23-.46,81.93,6.24,25.3,18.34,48.1,28.51,71.89l-3-7.17A90.94,90.94,0,0,1,167.68,487l-1.07-8a54.71,54.71,0,0,1,.18,13.41l1.08-8a65.57,65.57,0,0,1-4.63,16.34l3-7.17c-6.22,14.18-15.69,27-25.11,39.14l4.69-6.07q-6.3,8.1-13.07,15.84c-4.29,4.9-8.62,10.22-13.71,14.32l6.08-4.69A20.49,20.49,0,0,1,122,554l7.16-3a8.13,8.13,0,0,1-2.22.61l8-1.07a7.23,7.23,0,0,1-2.32-.07l8,1.07-.94-.26,7.16,3a7,7,0,0,1-1.66-.85l6.07,4.69a11.9,11.9,0,0,1-2-2l4.69,6.07a18.09,18.09,0,0,1-1.46-2.57l3,7.17a27,27,0,0,1-1.58-6l1.07,8a106.68,106.68,0,0,1,.48-26.72l-1.07,8c3.65-25.84,14-50,19.68-75.39,7-31.11,5.94-62.35-1-93.37a247.67,247.67,0,0,0-13.32-42.06C155,328,145.48,317.27,133,314.52c-10.4-2.3-20.69-.51-29.15,6-6.71,5.18-10.27,11.52-13.35,19.36-10.2,26-11.48,55.38-10.72,83,.82,29.81,4,59.73.1,89.45l1.07-8c-1.7,12.2-4.31,24.23-5.86,36.46a94.41,94.41,0,0,0,1.55,33.25A72.14,72.14,0,0,0,93,605.24a55.12,55.12,0,0,0,14.37,11.38c3.9,2.18,8,3.79,11.65,6.48l-6.07-4.69a19.65,19.65,0,0,1,2.38,2.36l-4.69-6.08a18.62,18.62,0,0,1,1.65,2.74l-3-7.17a18.63,18.63,0,0,1,.94,3l-1.07-8a13.67,13.67,0,0,1,.07,3l1.07-8a7.08,7.08,0,0,1-.5,1.87l3-7.17a7,7,0,0,1-1,1.67l4.69-6.08-.7.73L129,583.62c-2.43.57-4.87,1-7.34,1.39l8-1.08a82.33,82.33,0,0,1-21.1,0l8,1.07a84.61,84.61,0,0,1-20.38-5.53l7.16,3a80.77,80.77,0,0,1-17.17-10L71,628.42l42.26,5.13c10.13,1.22,21.06-6.58,25.9-14.86,5.17-8.84,5.86-21.52,0-30.29-.57-.85-1.13-1.72-1.72-2.57-4.63-6.72-10.18-11.28-17.93-13.79-3.5-1.13-7.1-1-10.68-1.13-4.61-.12-9.22-.4-13.81-1l8,1.07a63.77,63.77,0,0,1-15.69-4l7.17,3a38.27,38.27,0,0,1-8-4.65l6.07,4.69a32.12,32.12,0,0,1-5-5.14L92.25,571a32.66,32.66,0,0,1-3.46-6.16l3,7.16a42.93,42.93,0,0,1-2.39-9.61l1.07,8c-1.13-10.06-.12-20.34.29-30.42l1.34-32.51,2.69-65.78,2.69-65.78c.66-16,2.5-32.34,1.17-48.32-.46-5.44-1-10.88-1.37-16.32-.64-9.21,0-18.66.08-27.89l-58.92,8C41.35,309.85,56.75,327,73.4,334.73c11.35,5.27,22.17,7.72,34.67,8.71a161.34,161.34,0,0,0,24.18-.41c36.57-2.62,72.82-8.63,109-14.62,19.14-3.18,38.27-6.33,57.49-8.93l-8,1.07c26.4-3.53,53.16-6.28,79.73-2.85l-8-1.07c19.38,2.69,37.67,9.34,56.19,15.36a339.63,339.63,0,0,0,55.13,13c40.42,6,81,6.88,121.79,7.35,20.68.24,41.69-.21,62.24,2.41l-8-1.07a100.36,100.36,0,0,1,25.46,6.58l-7.17-3a67.11,67.11,0,0,1,12.9,7.46V312.84l-44.38,24.33,45.15,25.9,0-7.13c0-12.67-9.3-26-22-28.93a35.78,35.78,0,0,0-15.95,0c-7.93,1.81-13.36,7.58-17.93,13.79-12.18,16.52-17.4,36.95-19.14,57.1-1.61,18.66,1.56,38,6.69,55.93,4.9,17.13,11.88,33.64,18.77,50.05,7.28,17.33,14.65,34.71,26,49.83,8.81,11.72,18.2,23.17,32.68,28,15.66,5.19,33.24-.4,44.34-12.29,15.91-17.06,21.31-40.21,24.24-62.6,2.2-16.86,3-34,3.91-50.95.93-18,1.31-36.05.08-54-1.48-21.51-4.66-43.32-11.65-63.79-7.18-21.06-18.83-44.87-40.64-54.08a29.85,29.85,0,0,0-15.15-4.1,22.59,22.59,0,0,0-11.55,2.58c-8.32,3.51-15.17,10.41-17.37,19.45-17.3,71,3.6,141.5,20.65,210.28,4.56,18.41,8.92,37,11.55,55.78l-1.07-8a22.17,22.17,0,0,1,.07,4.46l1.07-8a7.93,7.93,0,0,1-.57,2l3-7.16-.5.91,4.69-6.07a5.58,5.58,0,0,1-1.56,1.54l6.08-4.69-1,.54,7.17-3c-6,2.28-13.31,2.34-19.66,3.23l-21.24,3c-14.14,2-28.27,4-42.42,5.95l8-1.08a451.77,451.77,0,0,1-47,4.32c-15.69.45-31.22-.93-46.79-2.67-15.34-1.73-30.63-3.23-46.08-3.33-15.78-.1-31.55.82-47.29,1.91-31.43,2.2-62.74,4.23-94.27,3.54s-62.73-3.93-94-7.92c-17.37-2.21-34.78-4.36-52.28-5.25a288.16,288.16,0,0,0-59.26,3.25l-7.16,3a22.67,22.67,0,0,0-8.42,7.72c-4,5.12-6.64,11.55-6.44,18.18L133.65,615c.49,16.22,13.35,30,30,30l77.2.08c14.54,0,28.83.18,43.24-2.24,12-2,23.29-6.54,35.36-8.2l-8,1.07a115.18,115.18,0,0,1,23.48-.51v-60l-27.3,1.19c-7.9.34-15.54,3.11-21.22,8.78-5.2,5.21-9.12,13.74-8.78,21.22.73,16.27,13.18,30,30,30l22.49,0c15.69,0,30.72-13.81,30-30-.76-16.92-13.19-29.17-30-30a152.19,152.19,0,0,0-21.67.43c-1.73.16-3.47.37-5.2.58a29.85,29.85,0,0,0-15.14,4.1,33.83,33.83,0,0,0-6.13,4.75c-.93.86-1.82,1.77-2.73,2.66-8.64,8.43-10.8,21.87-6.2,32.77,4.43,10.5,15.52,19,27.42,18.44q89.91-4.21,180-4l-25.91-14.86,5.69,8.61,17.93-44.07a14.61,14.61,0,0,1-2.52.58l8-1.07a23.68,23.68,0,0,1-5.05,0l8,1.07c-9.44-1.6-17.67-6.94-27.21-8.48-12.32-2-24-2-36.43-1.11-7.68.58-15.77,2.87-21.21,8.79s-8.76,13.08-8.79,21.21l0,8.86c-.05,15.72,13.8,30.67,30,30a1540.88,1540.88,0,0,0,192-20.37l-36.9-21,6.76,18.18c.24.63.47,1.27.71,1.91,3.12,8.18,7.16,14.18,15,18.49a53.37,53.37,0,0,0,12.27,4.67c9.58,2.27,19.38,2.45,29.14,1.91a281.34,281.34,0,0,0,104.94-26.74c3.44-1.61,6.37-3.93,9.46-6.13,5.5-3.92,11.32-7.54,16-12.47,11.82-12.5,18.7-28.77,22.49-45.36,4.07-17.81,6.37-36.17,8.25-54.32,1.75-17,2.68-34,3-51.06.8-38.27-1.28-76.52-3.38-114.71-.44-7.95-3-15.48-8.79-21.21-5.2-5.21-13.74-9.13-21.21-8.79-7.76.35-15.81,2.9-21.21,8.79-5.22,5.68-9.23,13.25-8.79,21.21,3.3,60.16,6.53,120.75-1.43,180.7l1.08-8c-2.21,16.26-4.38,33.25-10.73,48.51l3-7.17A59.19,59.19,0,0,1,728,564.44l4.69-6.07a43.09,43.09,0,0,1-6.89,7.07l6.07-4.69c-3.15,2.38-6.52,4.54-9.74,6.83-4.52,3.22-9.58,5.26-14.68,7.42l7.16-3A248.59,248.59,0,0,1,653,588.76l8-1.07c-11.87,1.57-24.35,3-36.3,1.68l8,1.07a38.47,38.47,0,0,1-9.07-2.36l7.17,3-1.23-.56,13.79,17.93-7.47-20.09c-2.66-7.14-6.73-14.19-13.79-17.92-7.54-4-14.74-4.44-23.12-3q-24.9,4.2-49.93,7.57l8-1.07q-66.75,8.91-134.12,11.73l30,30,0-8.86-30,30c9-.67,18-1.24,27.06-.16l-8-1.07c7.05,1,13.2,3.49,19.76,6.07a51.42,51.42,0,0,0,32.36,2.08C512,638.83,522.81,616,512,599.66l-4.26-6.47c-.48-.71-.94-1.44-1.42-2.14-5.36-7.87-12.43-13-21.91-14.33a69.39,69.39,0,0,0-9.42-.54q-21,0-41.91.19-42.28.43-84.55,1.87-24,.81-48.07,1.94l21.21,51.21,2.79-2.71-21.22,8.78a154.67,154.67,0,0,1,26.87-1v-60l-22.49,0v60l27.3-1.19c7.9-.35,15.54-3.12,21.22-8.79,5.2-5.2,9.12-13.74,8.78-21.21-.34-7.76-2.89-15.81-8.78-21.22-6.13-5.62-12.91-8.12-21.22-8.78-12.71-1-25.48.22-38,2.64-10.21,2-19.94,5.83-30.25,7.36l8-1.07c-8.67,1.12-17.4,1-26.12,1l-28.57,0L163.65,585l30,30-1.23-40.66-22,28.93c1.5-.23,3-.45,4.51-.66l-8,1.07c49.12-6.45,98.13,5,146.94,9.17a724.93,724.93,0,0,0,74.57,2.55c24.79-.43,49.46-2.59,74.19-4.17,24.39-1.56,48.65-1.9,73,.65,12,1.26,24,2.84,36,3.62a271.72,271.72,0,0,0,38-.43c26.52-2,52.87-6.38,79.2-10.1l36.41-5.14c11.47-1.61,21.84-7.2,28-17.38,6.37-10.56,5.42-21.51,3.65-33.1-8.21-53.52-27.36-104.7-34.69-158.39l1.08,8c-3-22.88-4-46-1-69l-1.07,8A203.23,203.23,0,0,1,725,317.8l-44.07,17.92a35.71,35.71,0,0,1,7.81,4.56l-6.07-4.69a45.24,45.24,0,0,1,7.11,7.33l-4.69-6.08a74,74,0,0,1,8.56,15.29l-3-7.17c6.35,15.3,10.07,31.6,12.28,48l-1.07-8c2.63,20.43,2.82,41.06,2,61.61-.78,20-1.67,40.34-4.33,60.22l1.07-8a112,112,0,0,1-6.77,26.74l3-7.17a63.29,63.29,0,0,1-6.74,12.33l4.69-6.07a29.37,29.37,0,0,1-5,5.11l6.07-4.69a22.09,22.09,0,0,1-3,1.73l7.16-3a17.33,17.33,0,0,1-3.24.91l8-1.07a11.69,11.69,0,0,1-2.29,0l8,1.07a16.83,16.83,0,0,1-3.55-.91l7.16,3a24.11,24.11,0,0,1-4.22-2.61l6.07,4.69a75.58,75.58,0,0,1-10.53-11.57l4.69,6.07c-9.66-12.81-16.5-27.33-22.74-42l3,7.16c-10-23.61-20.22-47.62-23.9-73.15l1.07,8a116.13,116.13,0,0,1-.19-30.49l-1.07,8a91,91,0,0,1,5.83-21.76l-3,7.16a75.89,75.89,0,0,1,8.66-15.16l-55.91-15.14,0,7.13A30.21,30.21,0,0,0,636.65,389c9.46,5.53,20.81,5.19,30.29,0l44.37-24.33c9.2-5,14.86-15.56,14.86-25.91a29.94,29.94,0,0,0-14.86-25.9C699.67,304.21,685,299,670.82,296.55c-15.24-2.62-30.5-3.42-45.93-3.78-29.32-.69-58.67-.43-88-1.74-16.52-.74-33-2-49.39-4.19l8,1.07A345.25,345.25,0,0,1,436,274.58c-9.67-3.11-19.25-6.51-29-9.41a225.23,225.23,0,0,0-36.55-7.47c-21.05-2.66-42.22-1.57-63.24.79-23.19,2.61-46.26,6.18-69.28,10-23.35,3.84-46.68,7.85-70.14,11l8-1.08c-12.22,1.64-24.46,3.07-36.75,4.09-11.66,1-23.47,1.95-35.13.5l8,1.07a60.92,60.92,0,0,1-14.31-3.72l7.16,3A46.87,46.87,0,0,1,95,277.68l6.07,4.69a42.43,42.43,0,0,1-6.35-6.29l4.69,6.08A35,35,0,0,1,95,274.59l3,7.16a31.92,31.92,0,0,1-1.69-6.38c-1-6.66-8-14.87-13.78-17.93a31,31,0,0,0-19.13-3.56,30,30,0,0,0-26,29.47c-.07,9.89-.75,19.94.08,29.81L39,332a85.47,85.47,0,0,1-.18,10.61L38,364.27l-1.75,42.57-3.54,86.67-1.75,42.57c-.62,15.24-1.83,30.25,1.12,45.36,3.76,19.31,18,34.45,35.72,41.92,13.84,5.85,28.81,7.35,43.76,7.61L85.63,616.11l1.72,2.58,25.91-45.14L71,568.42l-8,1.07a22.55,22.55,0,0,0-10.2,5.37c-5,3.83-9.32,9.3-10.76,15.58a35.78,35.78,0,0,0,0,15.95c1.84,8,7.6,13.22,13.79,17.93,19.36,14.74,46.49,22.31,70.7,20,11.33-1.09,24.19-2.17,32.35-11.26,8.89-9.91,12.65-23.74,8.91-36.73-3.19-11.08-10.1-19.41-19.55-25.76-4.5-3-9.7-4.79-14.12-7.94l6.07,4.69a34.82,34.82,0,0,1-6.19-6.18l4.69,6.07a42.47,42.47,0,0,1-4.89-8.66l3,7.17a54.57,54.57,0,0,1-3.2-12l1.07,8a81.79,81.79,0,0,1,.44-21.54l-1.07,8c2.3-16.09,5.87-31.9,7-48.16a358.11,358.11,0,0,0,.21-39.86c-1-26.59-3.37-53.33,0-79.85l-1.07,8a139.48,139.48,0,0,1,8.21-32.82l-3,7.16a10.78,10.78,0,0,1,1-1.84l-4.69,6.07a5.2,5.2,0,0,1,1.43-1.45L137.15,370l.85-.45-7.16,3,.86-.24-8,1.07.86,0-8-1.07a5,5,0,0,1,1.7.42l-7.17-3a7.48,7.48,0,0,1,1.62,1L106.68,366a19.58,19.58,0,0,1,2.19,2.27l-4.69-6.07a24.49,24.49,0,0,1,2.23,3.76l-3-7.17a235.07,235.07,0,0,1,15.15,57l-1.08-8a171.47,171.47,0,0,1,.29,44.58l1.07-8c-3.16,22.52-11.33,43.8-17.22,65.66a217.27,217.27,0,0,0-6.87,38.72c-1.18,14.35-.45,30.15,6.85,42.9a37.93,37.93,0,0,0,31,18.72c12.29.55,23.11-5.26,31.69-13.65a265,265,0,0,0,22.22-25.45C195,560.6,203.39,549.66,210.6,538c6.56-10.63,12.54-22.64,14.73-35a90.32,90.32,0,0,0-4.51-49c-5.44-14.08-12.51-27.41-18.4-41.3l3,7.17c-7-16.72-12.59-34-15-52.05l1.07,8a123.71,123.71,0,0,1-.14-31.12l-1.07,8a105,105,0,0,1,4-17.24c2-6.35,1-13.57-1.51-19.54-2.75-6.5-6.68-10-12.28-14.34l-84-64.79-11.9-9.17-7.16-3-8-1.07a29.73,29.73,0,0,0-18.18,6.44,28.7,28.7,0,0,0-9.23,12,15,15,0,0,0-2,7.58,22.65,22.65,0,0,0,.53,12c.8,5.88,4.08,11.05,7.62,15.63a40.31,40.31,0,0,0,13.66,11.52c9.21,4.65,19,6.6,29.3,6.88,17.48.49,35.06-.13,52.52-1.11,35-2,69.61-7.42,104.56-9.66,19.54-1.26,39.16-1.29,58.61,1.18l-8-1.07c18.84,2.53,36.9,8.1,55.21,13a447.62,447.62,0,0,0,55.27,10.87c39.63,5.38,79.37,6.86,119.33,6.17,21.38-.37,42.75-1.22,64.11-2.1l-8-1.07c4.28.77,8.55,1.55,12.87,2.13,5.58.75,11.07-.28,16.66-.88,4.73-.5,9.47-1,14.21-1.38,18.38-1.58,36.89-2.1,55.22.33l-8-1.07A138.38,138.38,0,0,1,710,320l-7.17-3a111.16,111.16,0,0,1,23.41,13.53l-6.07-4.69a90.38,90.38,0,0,1,15.68,15.53l-4.69-6.07c6.72,8.82,11.58,18.79,21.9,24.17,13,6.81,28.66,5.34,39.57-4.82,8-7.47,10.31-17.31,10.9-27.79,1-18.51,2-37,2.94-55.56.38-7.12-3.55-16.4-8.79-21.21-5.85-5.38-13.09-8.82-21.21-8.79a67.77,67.77,0,0,1-8.66-.51l8,1.07c-9.07-1.28-17.67-4.29-26.1-7.8l7.17,3c-15.52-6.56-30.73-14.79-47.23-18.61-19.36-4.49-38.63-3.58-58.15-1.22-35.29,4.25-70.67,7.84-106.27,7.85a460.18,460.18,0,0,1-60.62-3.83l8,1.08c-32.25-4.41-63.68-13.16-96.06-16.86-30.72-3.5-61.76-.37-92.58-1.88-17.36-.85-34.66-2.58-51.88-4.86l8,1.07c-40.57-5.45-80.6-14.07-120.57-22.73l-8,58.92a1199,1199,0,0,1,154.69-8.59q22.26.21,44.49,1.25c14.91.69,27.58-11.94,29.47-26,1.86-13.83-6.81-30-21.49-32.92a212.9,212.9,0,0,0-82.39-.57c-25.22,4.72-48.13,16.16-71.59,26.08l7.17-3c-15.55,6.52-31.38,11.53-48.13,13.8l8-1.07a169.32,169.32,0,0,1-43,0l8,1.07c-9-1.23-18-3-26.4-6.37l7.17,3a51.27,51.27,0,0,1-11.25-6.39L92.2,201A37,37,0,0,1,87,195.92L91.71,202a29.27,29.27,0,0,1-3.71-6.2L91,203c-2-5.1-3.36-8.64-6.47-12.68l-7.68-10L65.06,165l4.1,15.14a479.12,479.12,0,0,1,3.38-92l-1.07,8c1.15-8.45,2.49-16.9,5.77-24.83l-3,7.16a44.14,44.14,0,0,1,4.53-8l-4.69,6.07a34.93,34.93,0,0,1,5.71-5.82l-6.07,4.69a38.75,38.75,0,0,1,7.5-4.3l-7.17,3c9.54-3.86,20-4.82,30.16-6.18l-8,1.07A850.48,850.48,0,0,1,215,61.53c39.57.31,78.83,4.21,118.18,8s78.77,6,118.43,4.55,79.09-5.45,118.58-8.8c22.18-1.89,44.37-3.58,66.61-4.54,21.68-.94,43.48-1.4,65.06,1.36l-8-1.07a160,160,0,0,1,40.31,10.49l-7.17-3a120.14,120.14,0,0,1,26.28,15.26l-6.07-4.69a97.69,97.69,0,0,1,16.23,16.16l-4.69-6.07A94.69,94.69,0,0,1,770.34,109l-3-7.17c4.93,11.75,7.71,24.16,9.46,36.75l-1.07-8c3.31,24.94,3.71,50.36,4,75.49.27,26.4-.25,52.81-.75,79.21-1,52.94-1.88,105.87-3,158.81-.61,29.31-1.66,58.65-5.51,87.74l1.07-8c-2.34,17.25-5.58,34.47-12.32,50.6l3-7.17a100.37,100.37,0,0,1-11.9,20.79l4.69-6.07a89.09,89.09,0,0,1-15.06,15.13L746,592.5a126.89,126.89,0,0,1-28.45,16.19l7.17-3c-20.57,8.5-42.46,13.56-64.46,16.54l8-1.07c-70.05,9.16-140.79-2.93-210.87-5.62-74.71-2.86-149.46.27-224.16,1.4-21.14.31-42.27.47-63.41.29-20.15-.18-40.36-.47-60.36-3.12l8,1.07c-14.26-2-28.48-5.12-41.81-10.68l7.17,3a79,79,0,0,1-16.87-9.66L72,602.53a55.46,55.46,0,0,1-9.32-9.37l4.69,6.07a53.84,53.84,0,0,1-5.62-9.7l3,7.16a72,72,0,0,1-4.79-18.15l1.07,8c-1.5-12-1-24-.7-36l1-41.11,2-83,4-166.77,2.24-93.85-30,30L75,196l85.34.5,103.24.61,89.25.53c14.45.09,28.92.42,43.36.26h.61c15.69.09,30.72-13.86,30-30-.74-16.57-13.18-29.6-30-30-83.69-2-167.66-3.92-251.1,4.23-25.76,2.52-51.34,6.19-76.87,10.35l8-1.07a21.86,21.86,0,0,1-4.5.18l8,1.07a7.35,7.35,0,0,1-2.06-.53l7.16,3-.92-.5,6.07,4.69A5.38,5.38,0,0,1,89,157.79l4.69,6.07-.52-1,3,7.16a9.1,9.1,0,0,1-.61-2.17l1.07,8c-.88-7.13-.33-14.64-.26-21.81q.12-11.85.57-23.68c.57-15,1.15-30.23,3-45.16l-1.07,8a39.38,39.38,0,0,1,2.29-9.14l-3,7.17a24.44,24.44,0,0,1,2.28-4l-4.69,6.07a20.51,20.51,0,0,1,3.29-3.23L93,94.78a25.27,25.27,0,0,1,4-2.24l-7.17,3c7.75-3.07,16.59-3.59,24.79-4.7l-8,1.07a804.5,804.5,0,0,1,167.13-4.87q23.6,1.78,47.05,5l-8-1.07q28.28,3.86,56.24,9.67l8-58.92-16-1.75c-6.86-.75-16.66,3.83-21.21,8.79A30.81,30.81,0,0,0,331.59,66c-1.84,13.66,6.78,30.19,21.49,32.92,33.74,6.26,68.13,9.43,102.45,8.27s68.27-6.36,102.21-10.93l-8,1.07c44.93-6,89.87-10.54,135.07-4.57l-8-1.07c18.39,2.51,37.1,5.87,54.3,13l-7.16-3a90.29,90.29,0,0,1,19.25,11.08l-6.07-4.69A71.73,71.73,0,0,1,749,119.72l-4.69-6.07A59.79,59.79,0,0,1,752,126.76l-3-7.16a53.87,53.87,0,0,1,2.7,9l28.93-38L577,78c-33.27-2.06-66.62-4.62-100-3.49s-66.35,5.88-99.58,8.21c-18.67,1.31-37.37,2.12-56.08,2.82-18.53.7-37.29,2.1-55.76-.25l8,1.07c-14.49-2-28.51-6.28-42.81-9.23a260.38,260.38,0,0,0-48.28-5.48,263.45,263.45,0,0,0-48.38,4.22,201.09,201.09,0,0,0-39.88,10.9c-10.56,4.2-19.44,9-26.53,18.13a41.66,41.66,0,0,0-7.23,37c6.62,22.75,28.87,36.1,51.89,35.51,9.43-.25,18.87-2.3,28.14-4l22-3.92,44.86-8c15.51-2.76,31.65-4.59,46.66-9.52,8.9-2.93,17.74-6.73,25.43-12.14,5.71-4,11.05-8.51,17.43-11.45l-7.16,3a33.46,33.46,0,0,1,8.27-2.31l-8,1.08a36.47,36.47,0,0,1,8.61.14l-8-1.07a44.69,44.69,0,0,1,9.61,2.74l-7.17-3a51,51,0,0,1,9.78,5.68L296.85,130a75.15,75.15,0,0,1,12.69,12.83l-4.69-6.07c12.52,16.21,22.58,34.75,32.06,52.85,6.28,12,13.61,23.1,25.44,30.38,11.36,7,25.42,8.79,38.51,8.19,44.83-2.07,89.53-11.11,132.95-22,23.79-6,47.4-12.7,71-19.4A30.05,30.05,0,0,0,626.3,153.8c-1.84-13.72-14.55-27.22-29.46-26C541.05,132.3,487,146.43,432.29,157.4c-14.78,3-29.61,5.71-44.55,7.72l8-1.07c-14.12,1.85-28.38,2.78-42.54.93l8,1.07a87.57,87.57,0,0,1-21.33-5.76l7.16,3c-2-.88-4-1.83-5.91-2.87l6.07,47.12a162.78,162.78,0,0,1,16.83-15l-6.07,4.69a165.58,165.58,0,0,1,35.68-20.68l-7.16,3a165,165,0,0,1,41-11.13l-8,1.07c17.38-2.22,34.68-1.13,52,1.18l-8-1.07c23.8,3.25,47.64,8.26,71.74,8.23,23.92,0,46.88-6.82,70.38-10.13l-8,1.07a107.11,107.11,0,0,1,28-.48l-8-1.07a92.33,92.33,0,0,1,21.53,6.16l-7.17-3c22.41,9.47,42.7,24.42,66.75,29.85,30.58,6.91,60.59-.65,89.65-10.2l-38-28.93a784.4,784.4,0,0,0-1.84,83.28l45.15-25.91c-44.64-28.45-96.17-44.24-147.35-56.12-14.17-3.29-28.4-6.32-42.64-9.34l-8,58.93a160.57,160.57,0,0,1,34.3.83l-8-1.07a45.79,45.79,0,0,1,8.45,1.67l-7.16-3a8.62,8.62,0,0,1,1.78.93l-6.07-4.69a5.68,5.68,0,0,1,1.44,1.37l-4.69-6.07.52.84-3-7.17a5.58,5.58,0,0,1,.53,1.83l-1.07-8a7,7,0,0,1-.07,1.94l1.07-8a8,8,0,0,1-.6,1.91l3-7.16a9.47,9.47,0,0,1-1,1.76l4.69-6.07a9,9,0,0,1-1.4,1.5l6.07-4.69a15.2,15.2,0,0,1-2.92,1.71l7.16-3a24.8,24.8,0,0,1-4.66,1.15l8-1.07c-10.08,1.12-20.35,1.12-30.47,1.83q-15.8,1.11-31.55,2.71-34.75,3.51-69.28,9.16-31.26,5.08-62.17,12.11-15.44,3.5-30.77,7.49c-6.51,1.69-12.7,4-17.61,8.86-9.26,9.26-3.25,3.92-4.74,6.14-.19.29-.37.58-.56.86-18.6,28.21-36.84,56.66-55.26,85C318.2,321.33,306.34,339,295.22,357l-55.69,90.32-48.84,79.22-.87,1.41,55.9,15.14q.3-4,.81-7.89l-1.08,8c4.16-30.48,16.06-61.73,6.39-92.43C247,435.22,237.72,422.09,225.92,411c-8.55-8-18-15.13-25.32-24.35l4.69,6.07A56.51,56.51,0,0,1,198,380.31l3,7.17a56.29,56.29,0,0,1-3.33-12.42l1.07,8a56.7,56.7,0,0,1,0-14.14l-1.07,8a49,49,0,0,1,3.19-11.7l-3,7.17a42.54,42.54,0,0,1,4.52-7.71l-4.69,6.07a35.1,35.1,0,0,1,5.36-5.47L197,369.91a26.9,26.9,0,0,1,5.48-3.22l-7.17,3a24.42,24.42,0,0,1,5.1-1.34l-8,1.07a24.7,24.7,0,0,1,4.3,0l-8-1.07a23.68,23.68,0,0,1,5,1.25l-7.17-3a26.73,26.73,0,0,1,5.39,3.1L185.89,365a33.88,33.88,0,0,1,5.29,5.35l-4.69-6.08a43.2,43.2,0,0,1,5,8.68l-3-7.17a51,51,0,0,1,3,11.67l-1.07-8c1.61,12.27,1.37,24.6,3.23,36.87,1.56,10.3,5.58,20.06,10.33,29.28,7.3,14.14,17.66,26.52,23.91,41.22l-3-7.16a62.54,62.54,0,0,1,4,14.06l-1.08-8a60.73,60.73,0,0,1,0,15.3l1.07-8c-1.4,9.88-4.73,19.25-8.56,28.43l3-7.16c-2.86,6.75-6.1,13.38-8.71,20.23a44.92,44.92,0,0,0-1.46,27.06c4.35,16.22,17.32,28.87,33.28,33.71,13.8,4.18,30.09,1.31,42.13-6.44A64.56,64.56,0,0,0,314.66,546c8.65-23.66,1.55-50.1-4.64-73.46-5.48-20.7-12-41.16-18.73-61.47-8.34-25-18-49.28-28.3-73.53l3,7.16c-2.72-6.54-5.1-13.13-6.09-20.18l1.07,8a42.66,42.66,0,0,1,0-9.45l-1.07,8a36,36,0,0,1,2.4-8.82l-3,7.17a31.26,31.26,0,0,1,2.8-4.86l-4.69,6.07a26.83,26.83,0,0,1,3.87-4l-6.07,4.69a25.48,25.48,0,0,1,4.58-2.79l-7.17,3a25.38,25.38,0,0,1,6-1.64l-8,1.07a30.65,30.65,0,0,1,6.28,0l-8-1.07a35.2,35.2,0,0,1,8.32,2.25l-7.16-3a39.5,39.5,0,0,1,7.6,4.41l-6.07-4.69a37.81,37.81,0,0,1,6.3,6.28L253.21,329a55.4,55.4,0,0,1,6.31,10.91l-3-7.17c4.61,11,6.36,22.91,8.42,34.6,2.33,13.21,4.65,26.42,7.33,39.57,2.63,12.88,5.61,25.69,9.31,38.31s8.44,25.09,12.94,37.56c4.91,13.61,9.39,27.43,11.37,41.81l-1.07-8a102.57,102.57,0,0,1,.16,26.2l1.07-8a75.53,75.53,0,0,1-4.65,17.49l3-7.17c-.86,2-1.79,4-2.81,5.87a31,31,0,0,0,4.69,36.35c11.31,12.18,30.13,16.31,45.73,11,15.08-5.16,27.08-15.67,33.29-30.39,12.68-30.06-6-59.06-17.49-86.09l3,7.17a615.19,615.19,0,0,1-27-80.17c-7.2-27.06-13.62-54.74-17.69-82.45l1.08,8a35.77,35.77,0,0,1-.25-7.67l-1.07,8a20.84,20.84,0,0,1,1.31-4.85l-3,7.17a24.07,24.07,0,0,1,1.95-3.19l-4.69,6.07a40,40,0,0,1,6.46-6l-6.07,4.7a60.46,60.46,0,0,1,11.95-7.14l-7.17,3a35.94,35.94,0,0,1,8.25-2.33l-8,1.08a25.43,25.43,0,0,1,5.85.06l-8-1.07a22.28,22.28,0,0,1,4.5,1.38l-7.17-3a22.54,22.54,0,0,1,3.65,2.28l-6.07-4.69a23.63,23.63,0,0,1,2.8,2.86L317.75,325a27.59,27.59,0,0,1,3.08,5.24l-3-7.16A50.81,50.81,0,0,1,321,335.56l-1.07-8c1,7.67,1.34,15.41,2.14,23.11,1.1,10.54,2.5,21.06,4,31.55,2.47,16.89,5.65,33.68,9.35,50.36,7.43,33.46,17,66.43,27.17,99.14,5,16.13,10.25,32.21,15.47,48.29,2.45,7.53,5.18,14.66,10.93,20.38a34.33,34.33,0,0,0,32.95,8.87c14-3.82,24.54-16.75,27.61-30.67,2.15-9.71,1.94-20.22,2.35-30.13.34-8,.59-16,.66-24a357.31,357.31,0,0,0-2.4-48.4c-2.53-20-6.14-39.66-13.77-58.42s-18-36.22-25.9-54.85l3,7.17a107.33,107.33,0,0,1-7.66-26.66l1.08,8a76.63,76.63,0,0,1-.1-18.78l-1.07,8a58.19,58.19,0,0,1,3.85-14.33l-3,7.16a48.17,48.17,0,0,1,5.76-9.76l-4.69,6.07c2.69-3.35,5.85-6.31,8.86-9.38l-47.12-6.07c4.17,7.85,8,15.89,11.43,24.08l-3-7.17c11.33,27.09,19,55.47,25.68,84,7.13,30.55,13.67,61.24,20.45,91.86l5.2,23.5c.71,3.22,1.32,6.49,2.33,9.64a56.59,56.59,0,0,0,10.74,19.65c7.32,9.06,18.68,13.51,29.89,15,9.61,1.29,19.85,1.24,29.12-2,11.73-4.07,22.32-11.58,28.34-22.7a61.58,61.58,0,0,0,7.16-28.39c.28-14.29-4-28.46-8.92-41.71-11.19-30.21-27.17-58.21-39.7-87.82l3,7.17c-6.56-15.68-11.93-31.84-14.23-48.73l1.07,8c-.82-6.46-1.6-13.29-.94-19.79l-1.07,8,.27-1.15-3,7.17.5-1.06L469,357.79a5.44,5.44,0,0,1,1.35-1.44L464.28,361a9.16,9.16,0,0,1,1.75-1l-7.17,3a27.37,27.37,0,0,1,6.61-1.71l-8,1.07a32.12,32.12,0,0,1,6.93.14l-8-1.07a37.6,37.6,0,0,1,7.92,2.22l-7.17-3a44,44,0,0,1,9.25,5.5l-6.07-4.69a50.19,50.19,0,0,1,7.73,8l-4.69-6.07a87.66,87.66,0,0,1,10,18.23l-3-7.17c6.83,16.44,12.84,33.37,18.35,50.29,5.64,17.29,10.3,34.92,12.77,53l-1.07-8a182.46,182.46,0,0,1,1.45,33.12c-.29,5.5-1,11-1.38,16.48a101,101,0,0,0,1.22,24.48c5,30.65,35,54.71,66.25,46.08,12.9-3.56,24.09-12.2,32.74-22.18,10.56-12.19,19.92-24.83,20.43-41.68.37-12.43-4.23-25.12-8.33-36.71-4.17-11.79-9.05-23.34-14.05-34.8-9.21-21.13-19.56-41.74-28.56-63l3,7.17c-3.66-8.7-7.1-17.5-10.09-26.45-2.9-8.67-5.91-17.73-7.27-26.79l1.07,8a8.07,8.07,0,0,1,0-2.14l-1.08,8,.25-1-3,7.17.46-.94-4.69,6.07.71-.82-6.07,4.69a6,6,0,0,1,1.87-1.1l-7.17,3a20,20,0,0,1,3.31-.75l-8,1.07a89.56,89.56,0,0,1,22,.05l-8-1.07a96,96,0,0,1,23.49,6.38l-7.16-3a96.22,96.22,0,0,1,21,12.3l-6.07-4.69a91.33,91.33,0,0,1,15.51,15.62l-4.69-6.08a34.81,34.81,0,0,1,4.44,7l-3-7.17.31,1.13-1.07-8,.08,1.14,1.07-8-.2,1.14,3-7.17-.46,1,4.69-6.07a6,6,0,0,1-1.5,1.59l6.07-4.69c-3.94,2.69-8.67,4.46-13,6.52-4.62,2.22-9.21,4.54-13.9,6.61l7.17-3a26.53,26.53,0,0,1-4,1.26l8-1.07a10.27,10.27,0,0,1-2.71.15l8,1.08a8.71,8.71,0,0,1-2.48-.58l7.16,3a18.48,18.48,0,0,1-3-1.82l6.08,4.69c-6.38-5.32-12-11.75-17.6-17.89q-8.66-9.57-16.55-19.77l4.69,6.08q-2.61-3.4-5.17-6.87l-25.9,45.14c1.1.05,2.17.13,3.27.26l-8-1.07a34.87,34.87,0,0,1,8.2,2.31l-7.16-3a41.29,41.29,0,0,1,7.36,4.35l-6.07-4.69a51.47,51.47,0,0,1,8.59,8.55l-4.69-6.07a64.49,64.49,0,0,1,8,13.67l-3-7.17c3.84,9.28,5.46,19.23,6.8,29.13l-1.07-8c1.73,13.21,2.81,26.69,6.28,39.59,3,11.23,7.86,22.09,13.1,32.44,8.52,16.84,19.18,32.56,26.65,49.94l-3-7.17A102.55,102.55,0,0,1,602.33,560l-1.07-8c.5,3.91.59,7.51,2,11.08l2.34,6.14,7.59,19.95,11.21,29.45,20.95-36.91A164,164,0,0,1,623.78,586l8-1.08c-21.35,2.71-42.94,2-64.4,1.71l-66.76-.87c-15.7-.2-30.72,14-30,30,.74,16.43,13.18,29.79,30,30Z"/></g></g></svg>