<svg xmlns="http://www.w3.org/2000/svg" preserveAspectRatio="none" viewBox="0 0 947.58 667.62"><defs><style>.cls-1{fill:#54592c;}</style></defs><g id="Layer_2" data-name="Layer 2"><g id="Layer_1-2" data-name="Layer 1"><path class="cls-1" d="M180.72,98l83.12-2.83c13.5-.46,27.21-1.66,40.7-1.38,5.24.11,10.56.89,15.79,1.33,9.61.81,19.41.17,29.06.24q20.48.15,40.93.79,40.5,1.26,80.89,4.45,46,3.65,91.81,9.77l-8-1.07q6.9.93,13.8,1.91c8.34,1.18,15.54,1.41,23.12-3,6.22-3.64,12.16-10.77,13.79-17.93,3.42-15-4.53-33.47-21-36.9l-42.07-8.79c-7.92-1.65-16-1.15-23.12,3-6.22,3.65-12.16,10.78-13.79,17.93-1.74,7.68-1.37,16.3,3,23.12s10.24,11,17.93,13.79a219.85,219.85,0,0,0,102.76,11.47l-8-58.93c-2,.38-3.93.7-5.91,1l8-1.07a97.35,97.35,0,0,1-23.88,0l8,1.07a97.93,97.93,0,0,1-23.07-6.16l7.16,3a102.73,102.73,0,0,1-10.73-5.3L558,102.26l165.75,22.85c8,1.1,15.91,1.62,23.11-3a31.05,31.05,0,0,0,12.28-14.35c6.06-14.38.16-28.85-12.28-37.46C724.16,54.58,694,46.85,666.63,50.5c-7.92,1.06-15.48,2.54-21.21,8.79a30.84,30.84,0,0,0-8.25,17.23c-.86,6.39,0,13.54,3.56,19.13,4,6.14,10.38,12.59,17.92,13.78A876.23,876.23,0,0,1,799.86,144l16-57.86A264.51,264.51,0,0,1,763.6,70.28l7.17,3a269.13,269.13,0,0,1-24.55-12L731.07,117.2l60.2,3.9c18.64,1.21,37.58,1.54,56.1,4l-8-1.07A67.67,67.67,0,0,1,856,128.39l-7.16-3a42.54,42.54,0,0,1,7.71,4.52l-6.07-4.69a36.37,36.37,0,0,1,5.63,5.67l-4.69-6.08a42.3,42.3,0,0,1,4.76,8.51l-3-7.16a80,80,0,0,1,4.32,18l-1.07-8A402.11,402.11,0,0,1,856,242.48l1.07-8c-1.05,7.58-2.28,15.14-3.75,22.65-1.28,6.58-2.3,13.49-4.84,19.72l3-7.17a28,28,0,0,1-2.27,4.07l4.69-6.07a17.61,17.61,0,0,1-2.2,2.37l6.07-4.69a8.42,8.42,0,0,1-1.71,1.09l7.17-3a6.76,6.76,0,0,1-1.91.61l8-1.08a6.85,6.85,0,0,1-2.12,0l8,1.07a7,7,0,0,1-2.09-.6l7.17,3a8,8,0,0,1-1.79-1.14l6.08,4.69a10.67,10.67,0,0,1-1.51-1.57l4.69,6.07a23.31,23.31,0,0,1-2.3-4l3,7.17c-4.83-12-6.64-25.76-8.93-38.42-2.42-13.38-4.53-26.81-7.16-40.15-5.52-27.94-14-56.31-30.35-80l-17.93,44.07,1.26-.19-8,1.07a27.91,27.91,0,0,1,6.33.12l-8-1.07a29.92,29.92,0,0,1,6.08,1.8l-7.16-3a29.73,29.73,0,0,1,5.42,3.3L814,160.57a28.91,28.91,0,0,1,3.57,3.6l-4.69-6.07.76,1L839.56,114c-63.2-.27-125.95-8.39-188.83-13.78-31.74-2.73-63.56-4.71-95.43-4.66-31.68,0-63.34,1.71-95,1.51-35.5-.22-70.54-4.22-105.68-8.94l8,1.07c-36.95-5-74-10.43-111.37-10.63A439.3,439.3,0,0,0,141.32,92.2l16,57.86a622.89,622.89,0,0,1,80.37-16.41l-8,1.07a629,629,0,0,1,167,0l-8-1.08a623.26,623.26,0,0,1,89.85,19.1l-7.17-54.83c-3.11,1.69-6.27,3.21-9.53,4.6l7.17-3a136,136,0,0,1-33.52,8.54l8-1.08c-17.08,2.16-34.29,2.14-51.46,2.31q-29.07.3-58.11,1.78-58.07,3-115.75,10.66c-23.88,3.17-47.69,6.74-71.4,11-6.22,1.11-11.91,6-15.59,10.75-3.91,5.06-6.73,11.61-6.44,18.18a35.62,35.62,0,0,0,4.1,15.14c3.11,5.88,11.22,12.63,17.93,13.79,84.43,14.6,169.5,9.79,254.5,4,41.42-2.8,82.88-5.62,124.41-5.92,20.82-.15,41.66.33,62.43,1.77,21.31,1.48,42.45,4.4,63.68,6.66a410,410,0,0,0,67.76,1.57c21.25-1.24,42.63-3,63.85-.33l-8-1.07a116.66,116.66,0,0,1,28.52,7.41l-7.17-3c2.3,1,4.56,2,6.79,3.17l-6.07-47.11a42.42,42.42,0,0,1-4.67,4.52l6.07-4.69a46.13,46.13,0,0,1-10,5.8l7.17-3a87.68,87.68,0,0,1-20.76,5.1l8-1.07c-19.4,2.55-39,4-58.47,5.83-20.47,1.93-41,3.75-61.46,5.34-40.67,3.15-81.44,5.38-122.23,5.64-79.95.51-159.27-10.24-239.11-11.92-46.57-1-93.33,1.85-139,11.42-6.8,1.42-14.7,7.69-17.93,13.78a31.69,31.69,0,0,0-3,23.12c3.37,13.1,5.91,26.82,10.37,39.58,4.64,13.27,14.36,23.62,28.35,26.92,10,2.35,19.94.57,29.57-2.3a518.32,518.32,0,0,1,78.66-16.47l-8,1.07c64.06-8.47,128.83-7.44,193.3-7.13l203.51,1,56.39.27c18.26.09,37.17-1.2,55.31,1.21l-8-1.07a60.35,60.35,0,0,1,13.26,3.52l-7.17-3a39.82,39.82,0,0,1,8.16,4.8l-6.07-4.69a39.35,39.35,0,0,1,5.6,5.65l-4.69-6.07a33.26,33.26,0,0,1,3.89,6.74l-3-7.16a30.67,30.67,0,0,1,1.36,4.9l-1.07-8a25.38,25.38,0,0,1,0,6.4l1.07-8a25.19,25.19,0,0,1-1.44,4.89l3-7.17a27.76,27.76,0,0,1-2.61,4.39l4.69-6.07a28,28,0,0,1-3.58,3.64l6.08-4.69a27.7,27.7,0,0,1-4.34,2.68l7.16-3a26.41,26.41,0,0,1-5.38,1.59l8-1.07c-9.74,1.27-20.09-.62-29.85-1.3q-15.76-1.09-31.56-2-31.12-1.74-62.29-2.72c-41.86-1.36-83.74-1.84-125.62-1.89s-83.73.33-125.59.71c-40.9.37-81.82.79-122.66,3-42.53,2.31-85.07,6.66-127,14.42-11.33,2.1-22.1,4-32.58,9.07-11.65,5.61-22.22,16.7-25,29.55a38.75,38.75,0,0,0,4.64,28.43c5.43,9.27,14.93,14.95,24.91,18.05,11.18,3.48,23.56,4.51,35.18,5.37,20,1.47,40.12.15,60.12-.73q31.31-1.4,62.6-3.07c42-2.23,84-4.79,126-7.42s84-5.36,126-7.92q31.72-1.93,63.46-3.73c20.28-1.13,40.61-2.61,60.94-2.47a248.61,248.61,0,0,1,29.37,1.84l-8-1.07c22,3,42.13,11.09,62.74,19,21.32,8.18,44.18,14.95,67.29,13l-30-30a24.15,24.15,0,0,1,0,5.17l1.07-8a26.89,26.89,0,0,1-1.39,5l3-7.17a30.84,30.84,0,0,1-3.3,5.67l4.69-6.08A33.32,33.32,0,0,1,806,329.3l6.07-4.69a39.45,39.45,0,0,1-6.26,3.56l7.16-3a56.33,56.33,0,0,1-13.27,3.55l8-1.07c-16.58,2.15-33.63.89-50.13-1.29l8,1.07c-26.24-3.6-51.89-10.29-77.87-15.31a444.52,444.52,0,0,0-86-8.17c-27.79.11-55.51,2.27-83.24,3.94C491,309.51,463.56,310.5,436.1,311c-54.49,1.05-109-.5-163.46.36-26.43.41-53.35,2.34-79,8.92a183.81,183.81,0,0,0-40.1,15.26c-14.09,7.47-26.84,20.2-31.21,35.87-7,25,9.24,48.71,33.06,55.8,10.09,3,21.06,2.37,31.15-.19,6.79-1.72,13.14-4.89,19.63-7.47,26.81-10.66,55.09-17,83.63-20.84l-8,1.08c29.87-4,60-5.33,90.08-6.1q48.57-1.24,97.17-1.34,98.41-.28,196.77,3.78c35.94,1.48,72.12,2.56,107.82,7.24l-8-1.07c18.23,2.46,37.54,5.33,54.81,11.9l-7.17-3a34,34,0,0,1,6.6,3.71l-6.07-4.7a24.26,24.26,0,0,1,3.41,3.31l-4.69-6.07a15.66,15.66,0,0,1,1.6,2.78l-3-7.17a7.77,7.77,0,0,1,.46,2l-1.07-8v1l1.07-8a6.7,6.7,0,0,1-.44,2l3-7.16a7.74,7.74,0,0,1-1.14,2l4.69-6.07a8.63,8.63,0,0,1-1.72,1.64l6.07-4.69a19.7,19.7,0,0,1-3.24,1.72l7.17-3c-9.46,3.43-19.86,5-29.79,6.33l8-1.07c-22.52,2.94-45.25,2.83-67.91,2-22.39-.78-44.78-1.89-67.17-2.93-44.28-2.07-88.56-4.22-132.87-5.5-90.8-2.63-181.57-1.08-271.67,11.34C215.23,393.54,166.42,404,119,419.22A31,31,0,0,0,103.4,430c-4.31,5.58-5.79,11.09-6.44,18.18-1.36,15,8.48,29.72,21.2,36.8,9.57,5.32,20.75,7.69,31.63,7.81,10.33.12,20.83-1.15,31.14-1.78l31.55-1.93c43.51-2.71,87-5.55,130.5-8.83,86.37-6.51,172.32-15.64,258.19-26.88,24-3.14,48-6.07,72.13-7.91,21.89-1.67,44.44-3.4,66.3-.53l-8-1.08a93.26,93.26,0,0,1,22.75,6l-7.17-3a65.8,65.8,0,0,1,13,7.56l-6.07-4.7c6.17,4.84,11.2,10.82,16.76,16.29,8.35,8.22,17.48,14.54,28.54,18.43,21.16,7.43,49.4-.27,59.79-21.24L804.45,440l-7.05,51.83-3.52,25.92c-1,7.41-1.45,15.19-4.11,22.23l3-7.16a25.56,25.56,0,0,1-2.59,4.55l4.69-6.07a22,22,0,0,1-2.84,2.79l6.07-4.69a25.11,25.11,0,0,1-3.45,2l7.16-3a39,39,0,0,1-9.24,2.28l8-1.07c-83.65,10.39-168.94,8.2-252.93,4.09-84.84-4.16-169.54-11.22-254.47-13.31-23.64-.59-47.3-.78-71-.42-23.14.35-46.76,2.88-69.81,0l8,1.07c-6.62-.91-13.4-2.15-19.6-4.7l7.16,3a35.71,35.71,0,0,1-5.61-3.27l6.07,4.69a28,28,0,0,1-4.53-4.38l4.69,6.07a22,22,0,0,1-1.79-3l3,7.17a14.2,14.2,0,0,1-.84-3.13l1.07,8a7.94,7.94,0,0,1,.08-2.12l-1.08,8a8.55,8.55,0,0,1,.66-2.1l-3,7.16a9.16,9.16,0,0,1,1.31-2.05l-4.69,6.07a10.4,10.4,0,0,1,1.82-1.69L139,549.49a24.21,24.21,0,0,1,3.34-1.85l-7.17,3c8.29-3.27,17.37-4.81,26.16-6l-8,1.07c20.59-2.66,41.49-2.41,62.21-2.83l65.62-1.35c43.1-.88,86.2-1.93,129.31-2.43,43.33-.5,86.69-.35,130,1.57,41.78,1.86,83.15,6.26,124.66,11.12,40,4.69,80.73,7.42,120.24-2.29A196.59,196.59,0,0,0,817.8,538c7.54-3.33,14-8.29,18.22-15.52a34.16,34.16,0,0,0,3.48-24.93c-1.85-7-4.76-11.5-9.21-17-14.07-17.44-36.39-23.94-57.75-26-17.35-1.71-34.87.88-52.15,2.25q-32.31,2.58-64.72,3.74c-43.5,1.6-87,1.48-130.54.16-86.91-2.64-173.59-10-260.16-17.9l-31.47-2.89v60q106.9-1.36,213.68-7.34Q553.45,486.39,659.35,475q26.56-2.89,53.09-6.17,13-1.6,26.07-3.31,8.09-1,16.15-2.14c6.83-.92,12.28-3.83,17.36-8.38,5.53-5,10.74-10.33,16.1-15.48l71.56-68.81L889,342.51c2.39-2.3,4.82-4.58,7.18-6.91.33-.32.68-.63,1-1,10.27-10.52,9.91-26.72,8.23-40.43-1.26-10.22-2.95-20-6.56-29.7-2.66-7.15-6.72-14.2-13.78-17.93A30.91,30.91,0,0,0,865.92,243c-13.68,1.84-27.29,14.55-26,29.46a965,965,0,0,1,1.82,138.86c-.92,15.69,14.46,30.69,30,30,7.76-.35,15.81-2.9,21.22-8.79,5.69-6.2,7.91-12.87,8.78-21.21,2.13-20.21.12-41-4.91-60.61-3.7-14.5-18.53-23.43-32.91-21.49s-26.28,14.44-26,29.46l1.78,102.13.9,51.07.43,24.65c.13,7.76.67,15.63-.16,23.36l1.07-8a35.55,35.55,0,0,1-1.93,7.81l3-7.16a25.26,25.26,0,0,1-2.62,4.57l4.69-6.08a27.23,27.23,0,0,1-3,3l6.07-4.69c-5.24,4-11.62,6.37-17.63,8.93l7.17-3a330,330,0,0,1-83.6,22.76l8-1.07a329.94,329.94,0,0,1-64.23,2.11v60a506.34,506.34,0,0,0,93.87-17.55,30.07,30.07,0,0,0,21.49-32.92c-1.81-13.49-14.59-27.54-29.46-26-65.44,6.75-131.24,13.16-197.11,10.43-18.6-.77-37.17-2.31-55.63-4.74l8,1.07a494.28,494.28,0,0,1-65.35-13.18l-15.95,57.86c12.7,2.29,25.25,2.58,37.67-1.57a31.5,31.5,0,0,0,15.58-10.75c3.66-4.74,7.24-12,6.44-18.18-.85-6.56-1.47-12.16-4.84-18a37.85,37.85,0,0,0-7.12-9,45.23,45.23,0,0,0-21.14-10.93c-12.39-2.41-25.09-1.77-37.64-1.74Q411.3,544,376,544.94c-10.26.28-21,5.43-25.91,14.85-5.46,10.44-6.75,23-.35,33.51A38.81,38.81,0,0,0,364,607.19c10.36,5.76,21.42,5.64,32.87,5.61l51.27-.14a30,30,0,0,0,29.46-26c1.87-13.88-6.82-29.89-21.49-32.91a398.2,398.2,0,0,0-66.35-8.13c-22.42-.78-44.51,1-66.71,4L339,607.5l55.63-10.88c6.76-1.33,14.74-7.77,17.92-13.79a30.84,30.84,0,0,0,3.56-19.13c-2-15.15-14.38-25.22-29.46-26a205.34,205.34,0,0,0-83.33,13l8-1.07-26.84,1.34c-15,.76-27.42,10.85-29.46,26-.86,6.39,0,13.54,3.56,19.13,3.92,6.07,10.42,12.72,17.93,13.78,6.23.88,12.35,2,18.64,1.37,11-1.16,20.41-4.45,28.43-12.35a34.78,34.78,0,0,0,7.7-38c-5.95-14.11-19.62-20.49-34.35-19.85-13.18.57-26.23,3.3-39.16,5.78q-17.94,3.45-36,5.88l8-1.07a658.17,658.17,0,0,1-85,5.72l8,1.07-37.06-5c-8.38-1.13-15.49-1.44-23.12,3-6.22,3.64-12.16,10.78-13.79,17.93-3.37,14.79,4.47,33.76,21,36.9,9.83,1.88,19.6,2.95,29.56,1.84a110.23,110.23,0,0,0,34.43-9.62c4.18-1.86,8.5-6.9,10.76-10.76A29.62,29.62,0,0,0,178,573.55c-1.45-10.83-9.93-22.88-21.48-24.94-15.64-2.78-31.24-4.05-47-2.11a175.13,175.13,0,0,0-26,4.71c-6,1.67-11.68,4.4-17.78,5.54l8-1.07a18.25,18.25,0,0,1-4.67.06l8,1.08a8.31,8.31,0,0,1-2.07-.65l7.17,3-.93-.53,6.07,4.69a6.93,6.93,0,0,1-1.61-1.54l4.69,6.07-.69-1.13,3,7.17a9.41,9.41,0,0,1-.77-2.52l1.07,8c-.86-8,.79-16.72,1.31-24.73q.8-12.27,1.44-24.56,1.35-25.44,2-50.91,1.39-50.94.22-101.9c-.29-12.71-9.07-26-22-28.93-12.52-2.85-27.64,1.7-33.88,13.79C30.53,384.4,33.89,409,50.22,427.8c6.88,7.91,19.43,10.4,29.19,7.72,9.13-2.52,19.49-11,21-21a714.42,714.42,0,0,0,7.27-113.76c-.48-36-2.93-72-5.39-108L46.35,208l11.92,18c8.32,12.54,23.25,18.28,37.47,12.28,13-5.47,22.29-21.2,17.37-35.39a219.83,219.83,0,0,1-10-41.7l1.07,8c-2.78-20.94-1.51-41.95-1.38-63l-4.09,15.14a120.31,120.31,0,0,0,11.59-24.94c2.35-6.78.83-17.14-3-23.12C103,66.66,97,61.42,89.3,59.4c-17.85-4.68-34.42,2.86-44.48,17.79-7.11,10.55-4.61,27.81,4.69,36.35,9.83,9,24.52,11.66,36.36,4.69l20.69-12.18-15.14,4.1a266,266,0,0,0,85.14-9.22L160.61,43.07a30.77,30.77,0,0,1-5.43,1.26l8-1.07c-5.85.65-11.68,0-17.54-.14-9.78-.27-19.36,1.4-28.11,5.86C106.73,54.49,98.21,66,95.92,77.89,94,87.86,94.1,98.08,94,108.18c-.2,36.63,4.48,72.58,11.27,108.52,3.57,18.87,7.33,37.71,9.94,56.75l-1.08-8c3.07,23,4.2,46.35,1.17,69.47l1.08-8a161.17,161.17,0,0,1-10.36,39.27l3-7.17a140.59,140.59,0,0,1-6.63,13.57l55.91,15.14A1019.12,1019.12,0,0,1,167,279.21l-1.08,8q3.83-28.29,9.18-56.33c2.84-14.83-2.92-29.29-17.37-35.39-6-2.51-13.2-3.56-19.53-1.51-6.89,2.23-14.95,6.8-17.93,13.79C103,248.29,85.63,289.57,78.91,333.43a286.07,286.07,0,0,0-2.58,69.78c2,22.2,5.36,44.24,6.52,66.52a501,501,0,0,1-1.77,75c-.67,6.91,3.78,16.61,8.79,21.21a30.83,30.83,0,0,0,17.22,8.26c14.15,1.9,29.53-6.88,32.92-21.49a1180.46,1180.46,0,0,0,27.62-185.89c1.55-22.69-26.66-37.42-45.15-25.9l-86.67,54-12.52,7.8,45.14,25.9L69,163.16l.08-36.28c0-11.91-.6-24,.84-35.9l-1.07,8A54.62,54.62,0,0,1,72,86.88l-3,7.16a45.22,45.22,0,0,1,5.18-9l-4.69,6.07a49.92,49.92,0,0,1,8.86-8.75L72.2,87.05A71.79,71.79,0,0,1,86.48,79l-7.16,3C96,75,114.19,72.86,132,70.46l-8,1.08C217.31,59.1,311.65,58.21,405.56,62c94.51,3.8,188.74,12.22,283.12,18.19,26.63,1.69,53.27,3.19,79.92,4.33q20,.84,39.94,1.42c12.2.34,24.45.36,36.58,1.87l-8-1.08a92.46,92.46,0,0,1,22.26,5.65l-7.17-3a69.55,69.55,0,0,1,15,8.82l-6.07-4.69a80.55,80.55,0,0,1,12.85,13l-4.69-6.08a99.21,99.21,0,0,1,12.58,21.8l-3-7.17A128.43,128.43,0,0,1,887,146.62l-1.07-8c3.39,27.08.85,54.65-.39,81.79L881.71,305q-3.84,83.67-7.66,167.33l-2.18,47.56c-.65,14.15-.88,28.39-2.65,42.45l1.07-8a98.56,98.56,0,0,1-5.85,23.44l3-7.16A62.49,62.49,0,0,1,859.81,584l4.69-6.07A62.29,62.29,0,0,1,854.42,588l6.07-4.69a81.1,81.1,0,0,1-16.88,9.77l7.17-3c-17.33,7.3-36.17,10.05-54.68,12.59l8-1.07c-96.9,13-194.33,2.36-291-7.62-48.39-5-96.86-9.72-145.52-10.94-49-1.22-97.94.9-146.87,2.78-27.67,1.06-55.34,2.05-83,2.32-13.68.13-27.37.09-41.06-.21-13.34-.29-27-.18-40.26-2l8,1.08a41.79,41.79,0,0,1-8.44-2.21l7.17,3a29.3,29.3,0,0,1-4.83-2.71l6.07,4.69a28.23,28.23,0,0,1-4.21-4l4.69,6.07a32.62,32.62,0,0,1-4.1-7l3,7.17a56.08,56.08,0,0,1-3.24-13.07l1.07,8c-1.92-15.7-1.48-31.9-1.54-47.69q-.1-26.53,1-53.06,2.12-52.61,8.87-104.87l-1.07,8L96,319,82.19,337c18.49-7.86,29.84-28.64,33.53-47.47,3.14-16.06,4.61-32.58,6.79-48.8,1.13-8.38,1.44-15.49-3-23.12-3.64-6.22-10.77-12.15-17.93-13.78-7.68-1.75-16.3-1.37-23.11,3-6,3.9-12.78,10.43-13.79,17.93q-2.13,15.81-4.25,31.63c-1.35,10-2.34,20.11-6.13,29.53l3-7.17a43,43,0,0,1-4.71,8.2l4.69-6.07a35.83,35.83,0,0,1-5.64,5.71l6.07-4.69c-4.05,2.91-8.12,4.22-11.86,8-4.63,4.63-5.4,7.37-7.76,13.35-.34.85-.66,1.7-1,2.55L32.35,318,18.64,353.35c-3,7.74-7.15,15.65-8.26,23.91q-5.47,40.8-8,81.93Q-.09,498.27,0,537.44c0,13.17.2,26.35.76,39.5.6,14.13,2.71,27.56,9.11,40.28,7.1,14.09,21.71,24.49,37.07,27.41,14.54,2.76,29.71,2.73,44.45,3.12,26.21.7,52.44.42,78.64-.27,53-1.39,106-4.52,159.11-4.82,52.86-.31,105.46,3.42,158,8.63,104.08,10.32,209,24.28,313.46,10.71,26.5-3.44,52.53-7.06,76.86-18.78s41.75-34.08,48.29-60.22c6.24-24.9,5.56-51.73,6.72-77.22l3.71-81,7.26-158.52c1.23-26.85,2.6-53.7,3.66-80.55,1.05-26.29.8-53.89-7.57-79.11-8.44-25.44-23.36-47.71-45.7-62.88-23-15.6-51.58-16.89-78.39-17.56-52.75-1.34-105.44-4.41-158.08-8C552.74,11,448.12,1.8,343.17.23,290.74-.55,238.24.58,186,4.88c-28,2.3-55.87,5.58-83.66,9.65-20.37,3-41.8,7.73-59,19.7C32.74,41.58,23.1,50.82,17.58,62.67c-7.06,15.16-8.43,30.88-8.46,47.4Q9,149.88,9,189.7L8.6,350.75l-.17,77.86c0,22.27,25.69,38,45.15,25.91l86.67-54,12.52-7.8-45.14-25.9q-2.55,37.14-7.5,74.06l1.07-8q-7.1,52.33-19,103.85l58.93,8a501.75,501.75,0,0,0-.16-100c-1.71-16.73-4.15-33.4-5.28-50.2a245.15,245.15,0,0,1,1.5-48.29l-1.07,8c5.54-40.3,20.09-78.52,35.8-115.8l-3,7.16,3.21-7.56L117.22,214.9A1065.84,1065.84,0,0,0,98.37,387.78c-.33,12.63,9.5,26.08,22,28.93,12.82,2.92,27.24-1.85,33.88-13.79,15.82-28.44,22.42-60.72,22.87-93.06.46-32.14-5.41-64.13-11.4-95.59-3.38-17.74-6.83-35.47-9.24-53.37l1.07,8q-2.7-20.67-3.3-41.52c-.41-13.4-1.12-27.42.46-40.76l-1.08,8a30.5,30.5,0,0,1,1-4.24l-3,7.16A19.3,19.3,0,0,1,153.58,94l-4.7,6.07a18.92,18.92,0,0,1,2.1-2.19l-6.07,4.69a17,17,0,0,1,3.32-2l-7.16,3a23.8,23.8,0,0,1,4.84-1.27l-8,1.07c13.07-1.6,25.63,1.83,38.63-2.48,7.4-2.46,13.91-6.93,17.93-13.79,3.76-6.43,5.35-15.9,3-23.11-5-15.48-20.69-25.41-36.9-21a247.11,247.11,0,0,1-31.52,6.48l8-1.07a243.63,243.63,0,0,1-29.56,2.1c-11.35.08-22-1.63-32.43,4.37-6.54,3.75-13,7.65-19.5,11.47l41.05,41.05.68-1-4.69,6.07a8.82,8.82,0,0,1,1.77-1.68l-6.07,4.69a9.66,9.66,0,0,1,2.15-1.15l-7.16,3a9.2,9.2,0,0,1,2.37-.56l-8,1.07a9,9,0,0,1,2.43.09l-8-1.07,1.19.31-21-36.9c-.66,1.92-1.38,3.81-2.16,5.69l3-7.17c-4,9.21-10.17,16.78-10.51,27.35-.07,2.32,0,4.64,0,7,0,6.29-.14,12.54-.39,18.83a239.13,239.13,0,0,0,12.93,86.76l54.83-23.12-11.92-18C91,167,77.33,159.67,64.28,163.9c-12,3.88-23,15.48-22,28.92,4.71,68.85,9.33,138.24.16,206.93l1.07-8q-.46,3.42-1,6.84l50.14-13.24a21.41,21.41,0,0,1-1.6-1.94l4.7,6.07a29.51,29.51,0,0,1-3-5.47l3,7.16a32.65,32.65,0,0,1-1.62-6.06l1.07,8a31.61,31.61,0,0,1,0-7.53l-1.07,8a30.65,30.65,0,0,1,1.64-6l-3,7.17a21.49,21.49,0,0,1,1.09-2.27l-55.9-15.14q1.23,54.45-.42,108.92-.84,27.23-2.42,54.42-.8,13.59-1.76,27.18c-1,13.91.27,28,11.45,38,12.28,11,29,12.22,44,6.77a136.78,136.78,0,0,1,27.88-7l-8,1.07a132.87,132.87,0,0,1,33.52-.06l-8-1.07c2.12.29,4.22.62,6.32,1l-7.16-54.83-1.42.63,7.17-3a72.05,72.05,0,0,1-17.88,4.89l8-1.07a73.23,73.23,0,0,1-17,0l8,1.07c-1.54-.22-3.06-.47-4.58-.76l-16,57.85,36.15,4.88c15.55,2.09,31.49,1,47.13,0,18.9-1.14,37.69-3.26,56.44-5.85s37-6.85,55.61-9.44l-8,1.07a92.42,92.42,0,0,1,14.29-1l-8-1.07,1,.2-7.16-3,.9.49L282,592.82l.6.78-7.72-13.24.26.94-1.07-8,0,1,1.07-8-.27,1,3-7.16a7.15,7.15,0,0,1-1.09,1.87l4.69-6.07a9.29,9.29,0,0,1-1.53,1.54l6.08-4.69a15.82,15.82,0,0,1-2.81,1.58l7.17-3a22.63,22.63,0,0,1-3.26.85l8-1.07a38.39,38.39,0,0,1-9.52-.13l8,1.07-1.15-.16-8,58.92,23.88-1.2c1,0,2-.07,2.95-.14,7-.56,12.95-3.06,19.57-5.12A186,186,0,0,1,360.38,598l-8,1.07a188.74,188.74,0,0,1,34.27-1.33l-8-58.93-55.62,10.89c-7.06,1.38-14.4,7.75-17.93,13.78-3.76,6.43-5.35,15.91-3,23.12s6.85,14.26,13.79,17.93l7.16,3a30.19,30.19,0,0,0,15.95,0l1.69-.22-8,1.07a350.86,350.86,0,0,1,90.19,0l-8-1.07q12.69,1.71,25.23,4.29l8-58.93-33,.09-15.64,0c-5.28,0-10.81.52-16.05-.14l8,1.07a23.46,23.46,0,0,1-3.28-.91l7.17,3a17.4,17.4,0,0,1-2.81-1.54l6.07,4.69a6.83,6.83,0,0,1-1.32-1.31l4.69,6.07-.42-.72,3,7.16-.24-.76,1.07,8,0-.8-1.07,8,.19-.83-3,7.17.44-.84L376,604.94q25.15-.69,50.34-.94,12.38-.12,24.74-.13c7.6,0,15.42-.47,23,.33l-8-1.07a31.34,31.34,0,0,1,6.56,1.56l-7.16-3a18.13,18.13,0,0,1,3.6,2L463,599a9.2,9.2,0,0,1,1.39,1.33l-4.69-6.07a8,8,0,0,1,1,1.59l-3-7.17a7.46,7.46,0,0,1,.62,1.85l-1.07-8,.13,1,22-28.93a51.17,51.17,0,0,1-7.62,1.91l8-1.07a47.53,47.53,0,0,1-11,.16l8,1.07c-1-.12-2.07-.29-3.1-.5-8.1-1.45-15.79-1.26-23.12,3-6.22,3.64-12.16,10.78-13.79,17.93-3.61,15.85,4.76,32.45,21,36.9,83.17,22.88,170.41,22.22,255.7,15.26,23.48-1.92,46.93-4.28,70.36-6.7l-8-58.93a465.06,465.06,0,0,1-67.48,14.38l8-1.07q-9.18,1.21-18.41,2.1c-8.13.78-15.25,2.83-21.21,8.79-5.2,5.2-9.12,13.74-8.79,21.21.77,17.13,13.19,28.91,30,30a348.18,348.18,0,0,0,155.81-25.94c16.1-6.74,33.12-13.39,41.15-30.29,7.3-15.36,6.45-31.55,6.16-48.08L899.52,452l-1.63-93.33-58.93,8a157.43,157.43,0,0,1,3.49,17.89l-1.07-8a151.83,151.83,0,0,1,.34,34.75h60a965,965,0,0,0-1.82-138.86l-58.92,8a102.26,102.26,0,0,1,5.48,21.73l-1.07-8a103.73,103.73,0,0,1,.56,19.22l8.79-21.22-42.27,40.65L745,397.7l-15.57,15,21.21-8.79q-100.3,13.41-201.22,21.53T347.39,437.1q-56.92,2-113.89,2.72c-15.68.2-30.73,13.66-30,30,.35,7.76,2.9,15.81,8.79,21.21,6.16,5.66,12.89,8,21.21,8.79,72.3,6.65,144.63,13.28,217.12,17.46s144.89,5.9,217.3,2.67q30.65-1.37,61.21-4c15.69-1.35,31.46-3.18,47.17-1.08l-8-1.07a67.85,67.85,0,0,1,16.49,4.44l-7.17-3a49,49,0,0,1,9.24,5.39L780.82,516a40.79,40.79,0,0,1,7,7l-4.7-6.08.75,1.21-3-7.17a5.83,5.83,0,0,1,.74,2.58v-16l-.2,1.31,3-7.16-.5,1,4.69-6.07a5.91,5.91,0,0,1-1.65,1.54l6.08-4.69a66.29,66.29,0,0,1-7.67,3.63l7.16-3a170.07,170.07,0,0,1-42.43,11.23l8-1.08c-45.35,5.87-90.85-2.67-135.87-7.48-49.72-5.31-99.74-7.33-149.73-7.76s-100.12.71-150.17,1.74l-76.12,1.56c-24.89.51-49.89.41-74.76,1.81-30.15,1.71-79.47,5.63-81.35,45.36-.84,17.62,11.59,34,27,41.51,13.94,6.81,29.61,9.07,45,9.95,12,.69,24,0,36-.36s24.21-.62,36.33-.71c24.81-.19,49.62.21,74.42,1,99.9,3.14,199.49,12.49,299.4,15.23,49.75,1.37,99.59,1.08,149.25-2.48q18.52-1.32,37-3.27c6.93-.74,14.17-1,20.85-3.13,11.39-3.53,21.19-10.26,27.51-20.55,6.87-11.17,7.71-23.73,9.42-36.35l5.17-38L862.31,456c1.09-8,1.63-15.9-3-23.12a31.08,31.08,0,0,0-14.34-12.28c-12.91-5.44-30.81-1.15-37.46,12.28a20.11,20.11,0,0,1-1.59,2.68l4.69-6.07a17.91,17.91,0,0,1-2.83,2.81l6.07-4.69a20.61,20.61,0,0,1-3.49,2l7.17-3a25.68,25.68,0,0,1-5,1.35l8-1.07a30.28,30.28,0,0,1-7.61-.05l8,1.07a33.13,33.13,0,0,1-7.42-2.13l7.17,3a40.28,40.28,0,0,1-7.5-4.72l6.07,4.69c-7.34-6-13.11-13.6-20.34-19.7a100.54,100.54,0,0,0-33.6-19c-20-6.82-42.22-6.9-63.12-6.19C656.31,385.38,611,392.12,565.62,398c-90.51,11.82-181.5,19.52-272.55,25.77q-38.53,2.65-77.09,5-19.28,1.2-38.55,2.37c-10.84.66-22.23,2.47-33.06,1.17l8,1.08a38.65,38.65,0,0,1-9.28-2.46l7.17,3a22.58,22.58,0,0,1-4.14-2.43l6.07,4.69a17.65,17.65,0,0,1-1.91-1.86l4.69,6.08a15.19,15.19,0,0,1-1.36-2.17l3,7.17a12.9,12.9,0,0,1-.73-2.49l1.07,8a14.76,14.76,0,0,1,0-2.82l-22,28.93c48.49-15.53,98.39-26.09,148.81-32.92l-8,1.07c81.88-11,164.68-12.23,247.16-10.19,41.28,1,82.53,2.88,123.78,4.81s82.77,5.28,124.06,4.38c22.74-.49,46.28-2.55,68.2-8.86a48,48,0,0,0,20.76-11.61c9.27-9,12.22-22.35,9.69-34.69-3.39-16.48-18.2-27.17-33-32.7-20.89-7.81-44.13-10.65-66.12-13.41-21.22-2.67-42.58-3.87-63.93-4.95Q575,331.38,443.45,332.52c-42.11.36-84.39.57-126.4,3.68-41.67,3.09-83.9,9.11-123.13,24.06-9.24,3.52-18.21,8.35-28.08,9.84l8-1.07a32.21,32.21,0,0,1-6.87.05l8,1.07a28.87,28.87,0,0,1-5.93-1.6l7.16,3a25.16,25.16,0,0,1-4.2-2.37l6.07,4.69a21.4,21.4,0,0,1-3.36-3.3l4.7,6.07a18.91,18.91,0,0,1-1.75-3.06l3,7.17a21.44,21.44,0,0,1-.93-3.54l1.07,8a19.71,19.71,0,0,1,0-3.52l-1.07,8a20.66,20.66,0,0,1,1.25-4.49l-3,7.16a28.33,28.33,0,0,1,3.24-5.21l-4.69,6.08a42.11,42.11,0,0,1,5.61-5.48L176,392.41c5.3-4.08,11.24-6.88,17.36-9.49l-7.16,3c15.73-6.52,32.29-10.4,49.14-12.69l-8,1.07c25.57-3.32,51.38-3.12,77.11-3,28.67.16,57.33.34,86,.2s57.31-.58,85.95-1.65c28.47-1.06,56.88-3.17,85.33-4.69,31.68-1.7,63.52-2.23,95,2l-8-1.08c28.44,4,56.2,11.51,84.44,16.57,15.8,2.83,31.84,5.13,47.89,5.78a176.68,176.68,0,0,0,21.09-.28c8.71-.69,17.74-1.66,25.92-4.9,12.77-5.05,22.52-12.06,30.59-23.2,6.12-8.45,9.85-20.49,8.82-30.94-.77-7.78-2.73-15.65-8.79-21.21-5.59-5.13-13.36-9.43-21.21-8.79a92.47,92.47,0,0,1-19.18-.48l8,1.07c-18.7-2.62-36.16-10-53.64-16.76-8.72-3.39-17.51-6.68-26.53-9.19-11.9-3.32-24.24-5.07-36.51-6.3-21.05-2.1-42.25-1-63.33.15q-32.61,1.74-65.22,3.71c-87,5.19-173.87,11.21-260.85,15.94q-37,2-74.07,3.68c-23.56,1-47.34,2.61-70.81-.53l8,1.08c-6-.88-12.38-1.72-18.09-4l7.17,3a17.64,17.64,0,0,1-3.25-2l6.07,4.69-.89-.88,4.69,6.07a8.93,8.93,0,0,1-1.29-2l3,7.16a7.66,7.66,0,0,1-.63-1.93l1.08,8a6.81,6.81,0,0,1-.08-1.91l-1.07,8a11.61,11.61,0,0,1,.79-2.76l-3,7.17a11.42,11.42,0,0,1,1.05-1.75l-4.69,6.07a22.27,22.27,0,0,1,4-4l-6.08,4.69a37.52,37.52,0,0,1,6.51-3.67l-7.17,3c9.13-3.66,19.67-4.74,29.31-6.45q16-2.83,32.11-5l-8,1.07C309,303,394.08,304,478.62,303.34c86.37-.65,172.82-.6,259.1,4q15.79.84,31.56,1.9c10.51.71,21.53,2.6,32.06,2,17.77-1.05,31.88-8.62,42.26-23.08,8.34-11.62,10.51-28.28,6.33-41.88-4.39-14.28-13.81-25.45-26.06-33.71-11.08-7.48-24.48-9.85-37.46-11.22-10.3-1.09-20.78-.69-31.11-.74l-31.72-.15L463.67,199.2c-83.85-.41-169-1-250.93,19.66-9,2.27-17.93,5.73-27.07,7.27l8-1.07a22.41,22.41,0,0,1-5,.09l8,1.07a10,10,0,0,1-2.28-.58l7.17,3a8.36,8.36,0,0,1-2-1.13l6.07,4.69a8.44,8.44,0,0,1-1.79-1.84l4.7,6.07a11.64,11.64,0,0,1-1.29-2.41l3,7.17c-2.24-6.2-3.5-12.85-5.14-19.24l-5.23-20.34-21,36.9q16.67-3.48,33.55-5.74l-8,1.08c81.64-10.72,163.88-.8,245.52,4.44,84.19,5.4,168,1.5,251.94-6,23.41-2.1,46.8-4.39,70.19-6.69,24.28-2.4,50.57-6,67.75-25.46,6.49-7.32,9.57-15.42,8.25-25.2-1.18-8.8-6.06-17.71-14.32-21.91-21-10.67-43.4-15.19-66.83-16-19.69-.65-39.33,1.37-59,2.23-43.63,1.89-86.6-7.09-130-9.46-85.83-4.7-171.43,5.89-257.08,9.55-48.2,2.07-96.61,1.87-144.51-4.42l8,1.07q-10.86-1.46-21.66-3.32v57.86q30.75-5.5,61.71-9.69l-8,1.07q55.91-7.5,112.27-10.61,28.17-1.54,56.37-2c16.93-.25,33.92,0,50.8-1.55,23.15-2.16,45.18-6.88,65.78-18.08,10.53-5.71,15.87-18.44,14.33-29.89a30.15,30.15,0,0,0-21.49-24.94c-90.67-26.42-186-31.83-279.26-18.2A615.7,615.7,0,0,0,141.32,92.2c-15.13,4.15-25.94,21.5-20.95,36.9,5.09,15.73,20.6,25.1,36.9,21A415.24,415.24,0,0,1,204,141l-8,1.08a415.77,415.77,0,0,1,75.72-2.91c25.46,1.33,50.75,4.64,76,8l-8-1.07c33.65,4.53,67.33,9.37,101.3,10.55,32.26,1.12,64.52-.44,96.76-1,64.78-1.06,129,6.14,193.35,12.09,36,3.33,72.15,6,108.35,6.19a30.19,30.19,0,0,0,25.91-14.86c5-8.49,6.18-21.91,0-30.28-4-5.46-6.9-9.06-12.06-13a56,56,0,0,0-15.62-8.68c-9.73-3.84-19.53-3.27-29.62-1.73-8.92,1.36-16.17,9.61-19.44,17.37-3.49,8.25-3.84,19,1.51,26.7a142.35,142.35,0,0,1,13.59,24.86l-3-7.17C813,196.34,816.62,228,822.36,258.84c3.36,18.09,6,39.57,19.4,53.28,14.12,14.46,38,14,52.42.38,8-7.61,12.38-17.95,14.76-28.56a434.1,434.1,0,0,0,10.23-117q-.74-14-2.44-27.95c-1.41-11.3-2.84-21.89-7.27-32.4-8.8-20.84-26.6-35-48.83-39.5-21.2-4.3-43.47-4.32-65-5.72L731.07,57.2c-12.54-.81-26.15,9.85-28.92,22C699.23,92,704,106.49,715.93,113.1A288.09,288.09,0,0,0,799.86,144c8,1.56,15.89,1.21,23.12-3,6.22-3.65,12.16-10.78,13.79-17.93,3.77-16.58-5-31.57-20.95-36.91A875.67,875.67,0,0,0,674.61,51.58l-8,58.92a95.43,95.43,0,0,1,24.7,0l-8-1.07a97.62,97.62,0,0,1,23.83,6.54l-7.17-3a96.83,96.83,0,0,1,16.54,9.19l23.12-54.83L573.93,44.4c-8-1.1-15.92-1.62-23.12,3a31.07,31.07,0,0,0-12.27,14.35c-5.69,13.48-.8,30,12.27,37.46,26.59,15.13,56.84,19.27,86.71,13.54,6.75-1.3,14.76-7.79,17.93-13.79A31,31,0,0,0,659,79.85c-.85-6.29-3.43-12.8-8.25-17.22-5.42-5-13.56-9.8-21.22-8.79a203.1,203.1,0,0,1-52.08.11l8,1.07a203.87,203.87,0,0,1-42.71-10.51l-16,57.86,42.07,8.79L584.8,53.3c-57.88-8.2-116-13.94-174.45-16.46-28.44-1.23-56.89-1.69-85.35-1.53-5.61,0-11.28-.79-16.87-1.27-9.95-.83-20.17.26-30.14.6L180.72,38c-15.66.53-30.74,13.41-30,30,.71,15.79,13.2,30.57,30,30Z"/></g></g></svg>