<svg xmlns="http://www.w3.org/2000/svg" viewBox="0 0 485.19 342.11"><g id="Layer_2" data-name="Layer 2"><g id="Layer_1-2" data-name="Layer 1"><path d="M80.47,43.65c-10.23-7.83-23.74-8.93-36.16-9.09-2.77,0-5.54-.11-8.31-.09-2,0,.89.42-1-.11-.23-.06-2.22-.24-1-.3l-.46-.29q1.22,1,.33.18c-1.1-1,.87,1.18,0-.11s.23,1.44,0-.09-.51-.24-.08,0c-.15-.07,0-1.44,0-1.6.06,1.81-.09.51.07-.14a14.32,14.32,0,0,1,.5-1.57c-.11.3-.76,1.35-.07.31.24-.35,1.29-1.7,0-.29.35-.4,2.06-1.72.45-.67a16.38,16.38,0,0,1,1.72-1c-1.34.64.74-.17.88-.21,0,0,2.15-.3,1.11-.23s1.25,0,1.15,0c.13,0,2.49.19.91,0a19.88,19.88,0,0,1,2.17.45c.72.19,1.42.43,2.13.65s.93.35.28.08c.45.2.89.41,1.33.64a36.6,36.6,0,0,1,6.37,4.26c2.52,2.07,4.93,4.27,7.45,6.34a75.06,75.06,0,0,0,35,15.94,115.38,115.38,0,0,0,21.15,1.74q5,0,10-.47c1.68-.14,3.35-.39,5-.48a14.9,14.9,0,0,1,1.89,0c-1-.15-1-.13-.22.07a3.53,3.53,0,0,1-2.29-1.73L130,50a3.32,3.32,0,0,1,1.73-2.31c-.61.34-.65.38-.12.1a2.05,2.05,0,0,1,1.24-.33c1.05.19,1.17.16.35-.1-2.37-.91-5.6.14-7.29,1.93L99.62,77.15l3.31-1.93-23.76,4-11.89,2-5.48.92-2.74.47L57.23,83c-2,.25-1.21.42,2.33.53l2.69,2.69L62,85.8l1,3.78-.69,2.6-2.69,2.69.32-.16-5.78.75.38.07-5.24-9.22-11.9,37.51c-1.39,4.37,2.44,9.89,7.23,9.49a345.75,345.75,0,0,1,78.79,2.47l-5.24-9.23-1.6,4,3.44-4.49a19.84,19.84,0,0,0-7.89,8.51c-.83,1.64-1.51,3.37-2.22,5.06-.16.38-.31.75-.47,1.12.36-.85.38-.89,0-.11s-.67,1.46-1,2.17-.8,1.37-1.22,2c1-1.52-.48.46-.82.78,1-.91-.54.3-.74.43-.78.39-.81.42-.08.12-.44.16-.88.3-1.33.43s-.91.23-1.37.32c.83-.08.79-.07-.12,0s-1.91.08-2.87,0c-.47,0-1-.06-1.43-.11.82.11.78.1-.11,0s-1.93-.41-2.89-.67c-4.23-1.15-8.27-2.89-12.5-4a50.09,50.09,0,0,0-13-1.74,50.88,50.88,0,0,0-25.68,7,7.59,7.59,0,0,0-1.51,11.78c5.91,6.21,14.6,7,22.62,8,7.47.93,15,1.51,22.45,2.29,13.66,1.42,28.83,4,40.95,11.05l1.79-13.7-18.28,3.63-3.9.78a5.38,5.38,0,0,1-.89.17c-.4,0,.94-.23,1-.24-.12.23-3.33,0-3.75,0H51.36c-3.93,0-7.68,3.45-7.5,7.5a7.63,7.63,0,0,0,7.5,7.5H85l-6.48-3.72,18.56,25.48,4.48-11c-.66.18-1.31.35-2,.5-.18,0-1.86.36-.79.2a26.94,26.94,0,0,1-3.59.23c-1.21,0-2.42,0-3.62-.1-.67-.05-1.34-.12-2-.19-1.34-.15.91.15-.43-.06-5.23-.8-10.33-2.19-15.48-3.37a89,89,0,0,0-16.24-2.4c-2.31-.09-4.62-.11-6.92-.33,1.23.12-.38-.06-.62-.11-.61-.12-1.2-.29-1.8-.45-.43-.11-1-.37-.27,0a14.27,14.27,0,0,1-1.92-1.14c-3.11-2.08-7.53-.85-9.68,1.94s-2.33,7.5.59,9.84c8.34,6.72,19.23,9.48,29.15,13.08V200.06a40.83,40.83,0,0,1-19.83,2.73c-4.5-.41-9,5.18-7.24,9.49l8.62,21.11c1.3,3.2,3.62,5.4,7.23,5.5q41.76,1.26,83.54.42l-2-14.74L90.44,243.28,83.89,246c-2.85,1.16-4.93,3-5.37,6.23-.37,2.8.92,6.14,3.58,7.47,16.2,8.14,34.29,9,51.87,5.63,17.27-3.34,33.28-11.09,48.54-19.6s30.74-18.34,46.24-24.62c16.94-6.87,34.82-10.94,52.63-14.85,2.4-.53,4.81-1.09,7.24-1.49.16,0,1.46-.15.38-.05.65-.06,1.31-.11,2-.13.39,0,.79,0,1.18,0,.07,0,2.38.24,1.07,0,.38.07.76.16,1.13.25s1.65.53.75.15a15.19,15.19,0,0,1,2.28,1.32c.19.12,1.23.86.46.3s.52.44.67.56c.71.61,1.4,1.24,2.09,1.88,6.06,5.6,13.2,12.21,22.18,9h-4c6.12,1.58,12.23,3.24,18.37,4.73a19.91,19.91,0,0,0,7.3,0q6.82-.81,13.62-1.86,12.48-2,24.81-4.81,14.07-3.27,27.82-7.73l-8.47-3.45c-.31-.77-.34-.76-.11,0a2.08,2.08,0,0,1,0-1.57c.37-.17-1.19,2.39-.09.59a11.23,11.23,0,0,1-.67,1.16c-.44.63-.52.76-.22.38s.2-.26-.31.36c-.33.37-.66.73-1,1.08-2.32,2.43-5,4.43-7.41,6.79a55.17,55.17,0,0,0-12.49,19.67l14.73,2,1.72-19.86c.23-2.57-1.58-5.23-3.71-6.48-2.51-1.47-5-1.12-7.57,0-10,4.46-17.4,13.21-21.13,23.39l14.73,2c-1.53-11.41-3.94-23.06-14.17-29.9-2.48-1.66-6.09-1.14-8.33.59a7.65,7.65,0,0,0-2.69,7.88c.17.87.17.84,0-.1a10.8,10.8,0,0,1,0,1.27c.12,1.52.38-1.06,0,.53-.16.63-.34,1.23-.53,1.85.46-1.54-.23.43-.46.81s-1.58,2-.51.82c-.44.47-.88.92-1.35,1.36,1.12-1.06-.18.11-.54.32a12,12,0,0,1-1.12.6c.81-.34.81-.36,0-.07l8.47,3.44-.25-.51,1,3.78c.11.91-.91,2-1.16,2.78,0-.06.89-.8.26-.28s.24-.14.31-.18c.38-.25.74-.51,1.1-.78a24.07,24.07,0,0,0,4.34-4,29,29,0,0,0,5.49-10.5c2.26-8,1-16.52-1.53-24.32s-5.76-15.56-8.47-23.4q-4.18-12.12-7.81-24.44-4.06-13.83-7.39-27.85a7.48,7.48,0,0,0-8.23-5.37c-3.41.46-6.84,3.64-6.5,7.37a454.16,454.16,0,0,0,21.93,104.52q4.77,14.09,10.48,27.84l3.45-8.47-37.73,26.47-5.35,3.75,10.27,2.69L323.26,257a7.56,7.56,0,0,0-8.47-3.44c-2.88.93-5.92,3.91-5.51,7.23l8.09,64.85,1.13,9,9.49-7.23a585.56,585.56,0,0,0-102.81-18.84,576.9,576.9,0,0,0-103.4-.3C102,310,82.33,312.74,62.84,316.43c-3.86.74-6.42,5.59-5.24,9.23,1.38,4.25,5,5.86,9.23,5.24,42.84-6.34,85-18.49,127.75-21.53,42-3,84.18.76,126.23-1.56,23.62-1.3,47.29-4.54,69.88-11.77,8-2.55,6.64-14.58-2-14.73L273,279.25v15l76.42-3.09c3.91-.16,7.68-3.34,7.5-7.5-.18-4-3.3-7.61-7.5-7.5A412.52,412.52,0,0,0,246.64,292a7.53,7.53,0,0,0-5.37,8.23c.53,3.93,3.6,6.11,7.37,6.51,2,.21,4,.44,6,.69.95.12,1.13.14.55.06l1.27.18,3,.44q5.5.86,11,1.94,11.55,2.3,22.85,5.61a247.55,247.55,0,0,1,42.33,16.68l5.77-13.71c-29.63-7-59.33-13.93-89.41-18.81s-60.67-7.91-91.2-6.56A299.12,299.12,0,0,0,109,300c-3.64.81-5.84,4.72-5.37,8.23s3.64,6.82,7.37,6.5a1443.24,1443.24,0,0,1,176.7-4.24q25.11.94,50.19,2.77v-15l-106,3-106,3-60,1.68v15c55.35-6.63,111.23-5.35,166.78-2.29,15.77.87,31.53,1.88,47.29,2.9,3.93.25,7.68-3.63,7.5-7.5-.19-4.4-3.3-7.08-7.5-7.5L123.33,290.76l-43.78-4.4v15q84.55-5.75,169.35-5.94,23.88-.06,47.76.34v-15l-94.47,7-94.47,7-53.31,3.93,2,14.74a75.93,75.93,0,0,1,17.82-2.75c6.44-.38,12.89-.43,19.32-.86,11.33-.77,22.93-2.83,32.88-8.59,22.62-13.09,25.38-42.5,22.33-66a118.72,118.72,0,0,0-11.36-37.38c-2.59-5.27-5.39-10.44-7.9-15.75a64.52,64.52,0,0,1-5.24-14.62c-.13-.6-.24-1.21-.36-1.82-.45-2.28,0,1.41-.12-.89-.08-1.2-.16-2.39-.14-3.59,0-.71.06-1.42.11-2.13.12-1.52.07-.45,0-.13a29.46,29.46,0,0,1,1.2-4.54c.45-1.27-.81,1.47.26-.62.34-.66.68-1.33,1.06-2,.25-.43.52-.84.79-1.25,0-.05,1.49-1.91.6-.83a42.39,42.39,0,0,1,5.86-5.66c-1.06.86.87-.65.87-.65.61-.44,1.22-.88,1.84-1.31,1-.71,2.07-1.4,3.12-2.08,2.58-1.69,5.2-3.35,7.82-5q8-4.93,16.16-9.52a403.37,403.37,0,0,1,76.34-33l-9.23-9.23c-.39,1.36.47-.71,0,0s.69-1.07.16-.16c-.41.7-.86.65,0,.12-.19.12-1.61.92-.62.43s-.27.18-.45.1c-.56.13-.36.13.59,0l-.57,0c-.2.35-.87-.27.31.13-.44-.15-1.86-.8-.34,0l-1.79,13.7A492.12,492.12,0,0,1,327,83q14.34-.63,28.7-.45l-3.79-14A124.07,124.07,0,0,1,313,87c-3.46,1-7,1.79-10.5,2.48q-2.75.53-5.51,1l-1.59.23c.55-.08.55-.08,0,0-.93.11-1.86.22-2.78.31a133.46,133.46,0,0,1-22.35.39c-3.92-.26-7.68,3.63-7.5,7.5.19,4.33,3.3,7.15,7.5,7.5a399.73,399.73,0,0,1,44,6c6.76,1.29,13.74,2.45,20.3,4.56.62.2,1.22.43,1.83.64,1.51.51-1-.54.57.24a34.5,34.5,0,0,1,3.23,1.85c-1.39-.9,0,0,.33.33.55.52,1.06,1.26.35.22.14.2,1.15,2.08.73,1.11s.25,1.13.3,1.37l5.24-9.22L292,133.63c-7,2.56-7.25,12,0,14.47A128.87,128.87,0,0,1,344,181.57L347.27,169a241.9,241.9,0,0,1-29.76,9.89q-7.49,2-15.09,3.43c-2.46.47-4.93.91-7.4,1.3q-2,.32-3.93.6l-.88.13-.19,0-2.2.28c-3.75.46-6.82,2.5-7.36,6.5a7.51,7.51,0,0,0,5.37,8.23q10.25,3.1,20.24,7c6.2,2.43,12,5,18.55,8.19a270,270,0,0,1,36.81,21.82q2.47,1.76,4.91,3.55c.76.56,1.51,1.13,2.26,1.7l1,.73c1.06.81-.65-.51.4.31q4.95,3.84,9.7,7.93L385,237.83a143.27,143.27,0,0,1-23.16.22,126.17,126.17,0,0,1-21.75-3.49l-2,14.73,55.08,5.81v-15q-62.42.54-124.84-1-17.82-.44-35.65-1v15a775.63,775.63,0,0,1,199.64-.4c17.62,2.25,36.55,5.44,54.56,9.11l2-14.73q-61.59,7-123.39,12.06t-123.69,8.43c-10.85.59-21.72,1.22-32.6.95-11.17-.27-20.69-1.34-31.45-4.61v14.47l21.39-4.48c3.65-.77,5.84-4.76,5.37-8.23a7.52,7.52,0,0,0-7.36-6.5q-49.51-2.23-99.09-1.52-14,.19-28,.65v15l107.14-12,30.75-3.44-2-14.73c-9.82,4.06-18.32,9.92-26.77,16.27-8,6-16,12.23-25.21,16.18,1.19-.51.09,0-.14,0-.65.24-1.3.49-2,.72-1.11.39-2.23.73-3.35,1a36.09,36.09,0,0,1-7.57,1.33,56.85,56.85,0,0,1-8.15-.05c-.68-.05-1.35-.12-2-.19-1.53-.16,1.75.3-.86-.1-1.63-.26-3.25-.56-4.86-.92-11.56-2.6-20.9-7.31-31.21-13.38-11.75-6.92-23-14.69-35.29-20.68l-1.79,13.7A527.5,527.5,0,0,1,206,253.58c13.25,1.58,27.19,3.86,40.82,6.62l2-14.73L95,234.74l-43.48-3v15a1008.77,1008.77,0,0,1,111.06,8.19c17.8,2.23,36,4.92,54.13,7.86,18.37,3,36.71,6.21,55,9.58,20.57,3.8,41.11,7.76,61.65,11.73l4-14.46c-34.7-6-69.93-8-105.11-7.07-34.85.89-69.59,4.4-104.15,8.84-19.94,2.56-39.84,5.41-59.74,8.28-3.68.53-5.81,4.94-5.37,8.23s3.66,7,7.36,6.5c34.42-4.22,68.85-8.45,103.32-12.26,34.3-3.8,68.69-7.5,103.14-9.7,18.68-1.2,37.78-1.42,55.63,2.28l2-14.73c-35.81,3.06-71.78.48-107.36-4.05-35.06-4.47-71.13-10.63-106.53-16.17l-60.68-9.49-2,14.73,113.8,4.35L285,253.69l64.16,2.45a7.48,7.48,0,0,0,7.37-6.5c.52-3.89-1.83-6.9-5.38-8.23-36.67-13.73-75.87-19.53-114.91-20.16-39.63-.64-79.17,3.9-118.25,10.09-22,3.48-43.85,7.55-65.71,11.69-3.66.69-5.83,4.82-5.37,8.23s3.63,6.75,7.36,6.5q57.17-3.76,114.22-9t113.94-12q31.9-3.81,63.76-8.08c3.88-.52,7.7-3.08,7.5-7.5-.17-3.89-3.3-7.73-7.5-7.5-39.59,2.13-79.24,3.2-118.89,3.47s-79-.27-118.51-1.31q-33.48-.88-67-2.21l2,14.73c48.93-8.66,98.57-17.42,147.36-23.54,49.31-6.19,99-10,148.72-8.91a656.66,656.66,0,0,1,82.33,6.78l2-14.73q-61.05,2.35-122,6.38T180.41,204q-34.35,3.21-68.67,6.94c-3.89.42-7.69,3.15-7.5,7.5a7.63,7.63,0,0,0,7.5,7.5q78.58-.63,157-6.95,22.08-1.78,44.12-4c3.89-.4,7.69-3.17,7.5-7.5a7.64,7.64,0,0,0-7.5-7.5q-51.83-1.68-103.59-4.79-51.52-3.1-103-7.64-29.08-2.58-58.12-5.59v15c43.95-3.49,87.42-11.3,130.53-20.35,21.28-4.46,42.5-9.22,63.74-13.87q15.82-3.47,31.66-6.81c10.64-2.22,21.33-4.73,32.13-6.14a104.34,104.34,0,0,1,16.87-.78c1.5.07,3,.21,4.49.36,2.86.28-.75-.19.65.08.58.11,1.17.19,1.75.3a56.44,56.44,0,0,1,6.89,1.73c1.13.37,2.24.78,3.35,1.2,2.11.8-.73-.35.49.21.64.3,1.28.6,1.92.92a45.85,45.85,0,0,1,6,3.62c.15.11,1.3,1,.63.46s.94.81,1.12,1c.87.77,1.7,1.57,2.5,2.42.31.33.63.68.93,1,.17.19,1.35,1.69,1,1.13s.33.5.43.65c.46.68.89,1.37,1.31,2.08L363,154.82c-9.85-.68-19.63,1.7-28.75,5.25-4.86,1.9-9.63,4.05-14.38,6.22-2.1,1-4.2,1.92-6.31,2.86-2.82,1.26-3.36,1.51-6,2.54a78.33,78.33,0,0,1-29.73,5.76c-11.38,0-22.73-1.33-34-2.37l-141.76-13L22.52,154.8v15q47.43,4.08,95,6.61,47.78,2.53,95.6,3.49,26.83.54,53.67.58a7.49,7.49,0,0,0,7.36-6.51c.48-3.51-1.71-7.41-5.37-8.23A503.6,503.6,0,0,0,72.1,161a493.49,493.49,0,0,0-53.85,12.4,7.65,7.65,0,0,0-5.51,7.24c.14,3.12,2.21,6.59,5.51,7.23C39.6,192,61,196.11,82.76,197.75s43.09-.29,64.61-2.21l130.16-11.61,74-6.59c3.9-.35,7.69-3.2,7.5-7.5-.2-4.46-3.31-7-7.5-7.5q-50.82-6-101.82-10.54T147.6,144.32c-17.43-1-35.5-2.07-51.48,6.28a7.57,7.57,0,0,0-3.44,8.47,7.78,7.78,0,0,0,7.23,5.51c34.15,1.67,68.38.51,102.43-2.43,34.66-3,69.15-7.78,103.51-13.17,19.07-3,38.11-6.18,57.15-9.38,3.67-.61,5.82-4.88,5.37-8.23-.52-3.85-3.59-6.21-7.36-6.5-41.08-3.15-82.3-1.6-123.36,1-40.84,2.56-81.63,6.13-122.55,7a686.71,686.71,0,0,1-69.4-1.68c-3.92-.32-7.67,3.67-7.5,7.5.2,4.42,3.31,7,7.5,7.5,33,3.57,65.73-4.7,97.18-13.72,15.75-4.52,31.44-9.24,47.39-13.05q24.55-5.86,49.61-9.36a528.89,528.89,0,0,1,55.55-4.57l-2-14.73a772.08,772.08,0,0,1-106.06,16A794.44,794.44,0,0,1,79.49,108Q49,106.33,18.78,102.26v15a1182.19,1182.19,0,0,1,170.89-10.42q24.09.28,48.14,1.55v-15q-72.06,3-144.21,3-20.61,0-41.21-.22c-8.51-.09-10.12,12.43-2,14.74,18.26,5.18,36.88-1.37,53.08-9.71,7.59-3.91,15-8.23,22.7-11.85a76.06,76.06,0,0,1,10.76-4.19,58.42,58.42,0,0,1,11.89-2.42c9.42-.78,18.35.29,27.23,1.9s18,3.6,27,5.49c17.36,3.66,34.69,7.59,51.73,12.58,9.49,2.77,18.89,5.88,28.11,9.46,4.77,1.84,8,3.21,12.65,5.3s9.19,4.36,13.68,6.75l3.79-14a878.73,878.73,0,0,1-121.17,4.65q-17.13-.53-34.23-1.73l2,14.73a1092.45,1092.45,0,0,1,137-24.79q19.77-2.28,39.6-3.82l-2-14.73a211.27,211.27,0,0,1-21.21,5.28,204.61,204.61,0,0,1-20.89,3A335.75,335.75,0,0,1,247.75,94c-30.24-1.07-60.38-4.92-90.37-8.78C140.36,83,123.26,80.63,106,78V92.47c39-9.67,78-19.38,118-20.75a255.58,255.58,0,0,1,28.09.5c4.05.32,8.1.73,12.13,1.27-1.42-.19,1.41.21,1.67.25l2.93.46q3.11.51,6.2,1.11a197.44,197.44,0,0,1,24,6.23c3.84,1.27,7.65,2.66,11.39,4.18l1.36.56c1.15.48-.9-.39.23.1.9.39,1.79.78,2.68,1.19q2.83,1.28,5.62,2.66a150.61,150.61,0,0,1,22.91,14l1.16.88c-1.07-.82.74.59.77.61q1.28,1,2.52,2.07c1.77,1.48,3.49,3,5.18,4.57a133.45,133.45,0,0,1,9.63,10l-2.2-5.3c.1,1.31.12-.42.17-.62a4.4,4.4,0,0,1,2.12-2.82c-1.2.7.49-.12.48-.1s-.85.25-1,.3c-1.22.4.05,0,.36,0-.38,0-.75.05-1.12.05s-.74,0-1.11,0c-1.77-.05,1.86.32-.91-.14-4.93-.83-9.89-1.55-14.83-2.33l-30.59-4.8L252.58,97,129.76,77.71,60.7,66.87V81.33c45.58-7.8,92.51-11.68,139.08-14.66q70.74-4.53,141.69-3.92,40.11.34,80.18,2.34a7.55,7.55,0,0,0,7.5-7.5c-.2-4.33-3.3-7.16-7.5-7.5-48.81-3.93-97.78-5.41-146.74-5.36s-97.69,1.62-146.5,3.72c-27.51,1.18-55,2.54-82.53,3.9l2,14.73c29-7.87,58-12.43,87.5-15,30-2.6,60.22-3.18,90.36-3,17,.08,34,.39,51.07.71v-15a789.36,789.36,0,0,1-94.06,1.85c-31.43-1.12-62.79-3.67-94.08-6.72-17.67-1.73-35.32-3.62-53-5.51v15a749,749,0,0,1,120.25-4.44,730.44,730.44,0,0,1,118.3,14.77q33.39,7,66,16.94c7.33,2.24,12.38-7.29,7.3-12.53-14.17-14.62-36-14.14-54.72-11.93-24.12,2.85-48.66,6.48-72.24,9.56-48,6.27-96.67,11-144.92,5.1-3.75-.46-8-1.12-12.17-2a98.75,98.75,0,0,1-12.07-3.41c-1-.36-2-.74-3-1.12-1.91-.74.89.41-.26-.1-.48-.22-1-.42-1.44-.64q-2.84-1.3-5.54-2.86a53.22,53.22,0,0,1-5-3.35c1.26.94-.37-.31-.8-.69-.89-.76-1.74-1.56-2.56-2.4s-1.29-1.43-1.93-2.16c-.25-.28-.78-1.13.11.16-.27-.39-.56-.77-.83-1.17-.49-.72-.94-1.45-1.37-2.2-.23-.42-.46-.84-.67-1.27s-1-2.36-.32-.6a51.18,51.18,0,0,1-1.53-5.13c-.47-1.8,0,.73-.11-.59a14.85,14.85,0,0,1-.06-2c.06-1.72.11-.62,0-.34.26-.87.3-1,.1-.4.43-.68.52-.82.25-.42-.62.71,1.05-.89.95-.81-.89.69.15,0,.29-.11C28.89,22.62,30,22,31.17,21.4c.49-.23,1-.47,1.49-.68-1.1.46,1.39-.51,1.25-.46,1.28-.47,2.58-.9,3.89-1.28a72.27,72.27,0,0,1,8-1.84l1.63-.27c2.62-.43-.67.07.87-.13s3-.34,4.54-.46c11.47-1,23.07-.65,34.57-.61q18.38.06,36.74.45,36.74.78,73.42,2.82Q271.15,23,344.34,32.26q9,1.13,18,2.34v-15C319.65,23,277,26.35,234.18,28c-42.62,1.63-85.36,1.55-127.89-2a661.18,661.18,0,0,1-70.06-9.48L38,30.2a68.81,68.81,0,0,1,12.52-7.7c.37-.17,3-1.34,1.77-.82,1.09-.45,2.2-.87,3.31-1.27,2.33-.83,4.71-1.56,7.12-2.18,2.19-.57,4.4-1.05,6.63-1.46,1.18-.22,2.37-.41,3.55-.6,2.29-.36-.86.1.52-.07L76,15.8c4.9-.52,9.82-.75,14.74-.79,20.55-.18,41,2.75,61.48,4,45.09,2.78,90.51,1.24,135.38,7.21l1.3.18,2.47.35c1.64.24,3.28.5,4.92.76,3,.48,6,1,9,1.57q9.13,1.72,18.16,4a240.09,240.09,0,0,1,34.69,11.67l1.79-13.71a355.2,355.2,0,0,1-59.31,5.1c-20.35.17-40.68-1-61-2.56-40.46-3.22-80.8-8.4-121.41-9.34a420.52,420.52,0,0,0-69.68,3.81l9.22,9.22,5.6-16L56.1,26.82q85.54,9,171.53,12.67,24.3,1,48.59,1.6a7.48,7.48,0,0,0,7.37-6.5c.46-3.4-1.69-7.58-5.37-8.23-46.73-8.3-94.11-12.08-141.49-13.85-13.23-.5-26.46-.84-39.7-1.1a7.59,7.59,0,0,0-7.5,7.5c.2,4.42,3.31,7.06,7.5,7.5l74.56,7.93C196.31,37,221.06,40,245.94,40.46A271.82,271.82,0,0,0,288.42,38L280,27,259.72,61.75l-28.47,49A113.2,113.2,0,0,1,212.38,135L224.16,144a70.12,70.12,0,0,1,6.38-8.95,84.7,84.7,0,0,1,8.28-8.45c.72-.63,1.44-1.26,2.18-1.87l1.11-.91c.14-.1,1.31-1,.66-.52s.54-.39.67-.49l1.17-.84c.88-.62,1.77-1.23,2.67-1.82a85.94,85.94,0,0,1,10.65-6c.86-.4,1.73-.8,2.62-1.17-1.27.53,1.29-.5,1.53-.59q2.85-1.08,5.78-1.94A81.64,81.64,0,0,1,279.42,108c5.09-.75,10.21-2,13.53-6.28,3.8-4.92,4.3-11.51.06-16.37-3.53-4-10.05-5.65-15.14-6.52a55,55,0,0,0-18.15,0c-3.67.58-5.82,4.91-5.37,8.23a7.49,7.49,0,0,0,7.36,6.51l41.12.24,5.82,0c5.16,0,10-6.62,6.47-11.29-3.16-4.14-6.89-6-12.05-6.47-3.56-.34-7.19.23-10.75.27a136.63,136.63,0,0,1-23.44-2c-16.59-2.72-32.93-6.92-49.71-8.41a107.32,107.32,0,0,0-28.41,1.14l4,14.47a62.14,62.14,0,0,1,17.56-3.31,176,176,0,0,1,19.76.32c13.57.82,26.95,1.82,40.48-.14,3.67-.53,5.81-4.94,5.37-8.23-.52-3.86-3.6-6.2-7.37-6.5l-63.1-5L200,58.12c-2.87-.23-6.17-.93-9-.28-2.25.51-3.63,2.25-4.88,4s-2.53,3.64-3.79,5.45l-32.24,46.24-9.64,13.82c-3.33,4.78,1.14,11.29,6.48,11.29h28.8l-7.5-7.5v15.7c0,4.28,3.44,7.2,7.5,7.5A238.77,238.77,0,0,0,268.5,143l-5.78-13.71-27.35,16.11a7.64,7.64,0,0,0-3.45,8.47c1,3,3.88,5.77,7.24,5.5,7.83-.6,15.69-1.2,23.56-1a73.83,73.83,0,0,1,21.76,3.55c7.63,2.4,15.41,5,23.52,3.94a14.11,14.11,0,0,0,3-.5c1.14-.45-1.38-.21-.43,0,.78.14,1.64.11,2.43.17a19.88,19.88,0,0,0,6.57-.25,104.08,104.08,0,0,1,25.53-3.33l-6.48-11.29-10.93,20c-1.87,3.45-1,8.33,2.69,10.26a7.68,7.68,0,0,0,10.27-2.69L375,126.82l4.91-7.35a7.55,7.55,0,0,0-1.18-9.09,7.9,7.9,0,0,0-9.09-1.17,18.16,18.16,0,0,0,0,32.73l-1.52-11.78a19.53,19.53,0,0,1-3.47,2.87c-.67.45-1.36.86-2.06,1.26-.27.15-2.62,1.31-1.83,1-2.85,1.19-4.94,3-5.38,6.23A7.53,7.53,0,0,0,359,149c1.86,1.11,3.68,2.28,5.44,3.55a46,46,0,0,1,4.45,3.71c.4.36.79.73,1.18,1.11s1,.65.61.58,1.34-7,1.74-6.83c.42-.19.36-.19-.16,0l-.86.29L364,153.84c-4.46,1.49-7.15,6.71-4.48,11,4.68,7.58,14.4,11.6,23,8.57,4.42-1.57,7.18-6.65,4.48-11a25.52,25.52,0,0,0-33.75-8.78c-4.61,2.6-4.41,8.12-1.52,11.78,15.09,19.16,39.87,30.29,64.19,29.28a7.56,7.56,0,0,0,3.78-14c-6.66-4.48-13.66-8.78-21.44-11a33.61,33.61,0,0,0-12.08-1.35,38.48,38.48,0,0,0-13.15,3.9,38.27,38.27,0,0,1-4.38,1.91c-.67.23-1.36.4-2.05.58-1.41.35-.48.09-.12.06-.47,0-.95,0-1.42.06-.3,0-1.45-.16-.09.09-.34-.06-.66-.16-1-.24-1-.21.26.14.2.16s-1.32-.86-.19,0c-.27-.21-.47-.48-.72-.7-.61-.56.13.08.19.22-.6-1.3-.2-.23-.1,0a13.19,13.19,0,0,1-.4-1.26c-.12-.44-.19-.88-.29-1.32,0,.14.08,1.17.05.29s-.11-1.62-.13-2.44c0-1.85.08-3.71.14-5.56l.44-13.1,1-29.93h-15l4.9,54.6c.35,3.9,3.2,7.69,7.5,7.5s7-3.31,7.5-7.5a512,512,0,0,0,3.34-52.66q.15-13.42-.4-26.85c-.08-2-.24-3.92-.23-5.88,0-.41,0-2.16,0-.88.08-2.3.17.08-.07-.21.1.12-1,.76-.05.06a3.07,3.07,0,0,1-2.65.87c-1.84-.27-2.39-1.22-3-2.71s-.27-1.22-.57-2c0,.13-.52,1.37-.07.34-.16.37-.37.72-.56,1.07-.56,1.09-1.14,2.17-1.71,3.25l-13.93,26.36c-1.83,3.47-1,8.32,2.69,10.26a7.68,7.68,0,0,0,10.26-2.69,453.07,453.07,0,0,0,26.53-44c2.38-4.51-.47-12-6.48-11.28-4.07.46-7.67,2.18-9.6,6-1.8,3.56-2,8,.3,11.45L375.54,76c.77-.33-.76.31-1,.38-.66.26-1.32.5-2,.73-1.21.42-2.42.8-3.65,1.14a57.83,57.83,0,0,1-7.9,1.68c.77-.1-.37,0-.54,0-.7.07-1.41.14-2.11.19-1.28.09-2.55.15-3.83.16a65.07,65.07,0,0,1-8.48-.48l6.48,11.29a17.55,17.55,0,0,1,5.35-6,39.91,39.91,0,0,1,5-2.85c.65-.32,1.31-.62,2-.91-1.28.55,1.31-.48,1.55-.57,8-2.94,16.35-5,23.51-9.7A7.58,7.58,0,0,0,393,61.68c-1.31-3.1-5.38-5.76-8.85-4.34a81,81,0,0,1-41.27,5.79c-3.77-.42-7.87,3.79-7.5,7.5l2.72,27.86,7.5-7.5c-.87,0-1.75-.08-2.62-.18,1.83.21-.89-.21-1.23-.29-.85-.19-1.69-.43-2.51-.7-.31-.1-2.79-1.14-1.26-.43a35.61,35.61,0,0,1-4-2.19c-.74-.47-1.47-1-2.16-1.5,1.29,1-.79-.74-1-.94-.65-.59-1.27-1.21-1.87-1.85-.19-.21-1.93-2.3-.93-1a31.3,31.3,0,0,1-2.5-3.85c-.42-.76-.81-1.55-1.17-2.34.69,1.55-.31-1-.41-1.26-.26-.83-.49-1.68-.68-2.53-.07-.33-.45-3.06-.25-1.25l-7.5,7.5,22-2.68c3.88-.47,7.69-3.11,7.5-7.5-.17-3.84-3.31-7.77-7.5-7.5a173.94,173.94,0,0,1-50.3-3.78c-4.33-1-10,2.12-9.49,7.24q5.1,53.21,12,106.21,3.52,26.93,7.49,53.78c1.12,7.58,1.4,16.53,5.8,23.11,4.94,7.4,13.41,9.95,22,9.45,9.06-.54,18.54-2.68,25.41-9,7-6.44,9.45-17.22,4.86-25.71a7.59,7.59,0,0,0-8.47-3.45A243.59,243.59,0,0,0,320,228.66c-8,3.64-15.8,7.83-23.7,11.74s-14.09,6.79-22.49,9.18q-2.88.82-5.8,1.42c-1,.21-2.08.39-3.12.55,1.18-.18-1.64.18-1.92.2a53.14,53.14,0,0,1-6.31.18c-1.06,0-2.11-.12-3.17-.19s-1.06-.12-.4,0c-.54-.07-1.07-.16-1.6-.25l-2,14.73c49.83,4.77,99.76-1.31,149.26-6.77l41.68-4.6c3.88-.43,7.69-3.14,7.5-7.5-.17-3.7-3.33-8-7.5-7.5-24.84,2.74-49.68,5.58-74.53,8.18s-49.73,4.71-74.7,4.92a403.44,403.44,0,0,1-41.71-1.73c-3.7-.36-6.91,3.13-7.36,6.5s1.68,7.61,5.37,8.23c29.66,5,54.74-12.91,80.48-24.5a213.43,213.43,0,0,1,22.74-8.59l-8.47-3.45c.68,1.25-.15-.71.27.63s.13-.82.13.57c0,.42,0,.89,0,1.31,0-.13.28-1.21.06-.36s-.37,1.51-.61,2.26c.37-1.15-.13.25-.37.68s-1.1,1.7-.35.73A13,13,0,0,1,340,236.7a10.74,10.74,0,0,1-1.07.94c.64-.48,0-.06-.29.12-.64.38-1.28.75-1.94,1.11,0,0-1.11.54-.45.24s-.47.18-.49.19a38.57,38.57,0,0,1-5.07,1.44c-.75.15-1.49.28-2.24.41a3.83,3.83,0,0,1-1,.14,45.73,45.73,0,0,1-4.68.28c-.85,0-1.68,0-2.53-.11,1.24.09-.37-.07-.81-.17a15.49,15.49,0,0,1-2-.6c1.19.45-.6-.41-1-.66-.72-.49.06,0,.14.09l-.75-.76c-.58-.63,0,0,.09.13-.26-.39-.48-.8-.73-1.2-.67-1.12,0,.44-.38-.82q-.41-1.2-.72-2.43c-1.81-7.3-2.46-15-3.54-22.47-4.58-31.44-8.6-62.51-12.21-94.29Q295.29,91.15,292.69,64l-9.49,7.23a190.09,190.09,0,0,0,54.28,4.31v-15l-22,2.68c-3.67.45-8,3.09-7.5,7.5,2.11,19.17,18.11,34.73,37.62,35.31,3.77.11,7.89-3.54,7.5-7.5l-2.72-27.86-7.5,7.5a93,93,0,0,0,45.26-6.33l-5.78-13.7a41.35,41.35,0,0,1-10.66,5c-4,1.38-8,2.6-11.94,4.2-8.15,3.36-16,8.18-20.18,16.22-2.87,5.43.82,10.61,6.47,11.28a71.7,71.7,0,0,0,37-5.89c3.55-1.54,4.78-7.22,2.7-10.27q-1.05-1.67.32,1.92c-.25,1.14-.27,1.3-.07.48-.77,1.86-1.72,2.47-3.91,2.72L375.67,72.5a451,451,0,0,1-26.52,44l13,7.57,14.57-27.58c3-5.67,5.81-12.12.91-17.74-4.23-4.84-11.44-4.14-16.06-.38-4.2,3.42-4.86,9.11-4.65,14.17.23,5.25.43,10.49.52,15.74q.28,16-.44,31.94-.79,17.81-2.85,35.53h15l-4.9-54.6c-.35-3.9-3.2-7.69-7.5-7.5a7.65,7.65,0,0,0-7.5,7.5l-.94,27.59-.47,14a66.15,66.15,0,0,0,.32,12.43,17,17,0,0,0,19.1,14.53c4.71-.55,8.76-2.35,13-4.34.51-.23,1-.48,1.53-.7l.14-.06a21.89,21.89,0,0,1,2.77-.91c.51-.14,1-.26,1.56-.35.88-.17.13,0,0,0a22.84,22.84,0,0,1,3.51-.07c.39,0,.78.05,1.16.09-1.15-.11.51.09.72.14a30.32,30.32,0,0,1,3.09.77,27,27,0,0,1,5.39,2.13,105.6,105.6,0,0,1,12.08,7.26l3.79-14a69.53,69.53,0,0,1-8-.1c-.73-.06-1.46-.12-2.19-.2-.08,0-2.41-.32-.9-.1-1.21-.18-2.41-.38-3.6-.62a71.7,71.7,0,0,1-7.78-2q-2.08-.67-4.14-1.47c-.15-.06-1.87-.77-1.13-.45.55.24-1.2-.54-1.45-.66a71,71,0,0,1-7.09-3.8c-1.15-.69-2.27-1.42-3.38-2.18-.6-.41-1.19-.85-1.79-1.27-1-.73.08.09-.51-.38a68.82,68.82,0,0,1-11.58-11.62l-1.52,11.78c.18-.1,1.68-.91.74-.44s.73-.24.8-.27c.39-.11.79-.18,1.17-.3,1.33-.43-.73-.09.1-.06s1.84,0,2.74-.05c1.4,0-.68-.28.12,0,.47.15,1,.19,1.49.32s.78.24,1.18.34c1.72.47-.66-.46.19,0s1.61.86,2.39,1.33c1.43.86-.39-.59.17.1.3.37.78.69,1.11,1s.54.6.81.9c-1.1-1.23,0,.18.22.47l4.48-11c-.61.22-1.21.36-1.84.53.65-.18.92,0,.09-.06-.49,0-2.07-.37-.56,0a14.28,14.28,0,0,0-1.56-.4c-.88-.15,1.19.74-.27-.12-.16-.1-1.64-1-.86-.46s-.53-.55-.68-.68c-1.11-1,.49.85-.36-.53l-4.48,11c3.76-1.26,8.24-2.14,11.68-4.13a10,10,0,0,0,3.91-13.72c-1.74-3.12-4.77-5.55-7.51-7.75a82.92,82.92,0,0,0-9.54-6.69l-1.8,13.71a44,44,0,0,0,14-9c3.21-3.1,2.9-9.75-1.51-11.78-.37-.16-2.41-1.56-1.27-.57a10.31,10.31,0,0,1-.94-.93c.47.67.46.65,0-.06-.25-.45-.65-1.87-.38-.59a11.45,11.45,0,0,1-.33-1.28c.09.91.12.92.06,0s0-.89-.07,0a11.45,11.45,0,0,1,.33-1.28c-.34,1.2.11-.1.37-.59.48-.72.49-.74,0-.07a11.78,11.78,0,0,1,.94-.93c-1.12,1,.89-.41,1.27-.58L366.94,111.9l-34.32,51.35-4.91,7.35,13,7.57,10.93-20c2.69-4.94-.67-11.29-6.48-11.28a116.12,116.12,0,0,0-24.72,2.7c-.87.19-1.75.39-2.62.61-.43.11-.88.19-1.31.33-2.4.78.2-.11.22.2,0-.05-1.74-.13-1.85-.13a44.65,44.65,0,0,0-4.61-.33,18.46,18.46,0,0,0-3.6.69s-1.29.2-.63.12-.9,0-1,.05c-.82,0-1.63,0-2.45-.05-.41,0-.82,0-1.23-.1.8.09-.24-.05-.47-.09a97.35,97.35,0,0,1-11.12-3.07,94,94,0,0,0-23.87-4.37c-8.9-.45-17.8.23-26.66.91l3.78,14,27.35-16.11a7.51,7.51,0,0,0,3.07-9.36c-1.39-3.28-5.28-5.53-8.85-4.35a224.27,224.27,0,0,1-88.8,10.86l7.5,7.5v-15.7a7.61,7.61,0,0,0-7.5-7.5H146.9l6.47,11.28,15.53-22.26L193.69,77.1l5.75-8.25L193,72.57l77.59,6.1-2-14.73c1.05-.16-1.14.14-1.35.16-.83.09-1.67.17-2.51.23-1.68.14-3.36.23-5.05.28-3.1.1-6.21.07-9.31,0-6.66-.22-13.31-.76-20-1.14-13.27-.74-26.89-.67-39.62,3.62-3.71,1.26-6.53,5.22-5.24,9.23s5.08,6,9.23,5.24c1.94-.35,2.91-.49,4.19-.62q2.88-.3,5.77-.41a108.91,108.91,0,0,1,11.57.19c1.79.12,3.58.28,5.37.47l2.48.28,1.25.16c.52.06.55.07.07,0l.83.12q5.61.83,11.19,1.87c15.43,2.86,30.79,6.5,46.5,7.49a106.74,106.74,0,0,0,12.52.11c1.88-.1,3.73-.19,5.6-.21.12,0,1.24.06.3,0s.43.14.56.14c.94,0-.84-.63-.09-.1s-.61-.8-.69-.91l6.48-11.28-41.12-.25-5.82,0,2,14.73a47.37,47.37,0,0,1,10.17,0,44.09,44.09,0,0,1,5.69,1.38c.53.16,1.06.35,1.59.53.07,0,1.33.55.49.17s.37.26.56.33c.59.22-.39-.37-.62-.74a2.43,2.43,0,0,1-.3-1.66c0-2.73-.45.12-.05-.72s-.18.2-.25.27c.27-.29.54-.55.8-.83-.08.09-1.28.71-.27.26a7.39,7.39,0,0,1-1.1.35,28.82,28.82,0,0,1-3.45.68,98,98,0,0,0-10.33,2,93.72,93.72,0,0,0-39.23,21.45,91.12,91.12,0,0,0-16.2,19.72c-4.47,7.3,5.76,15.08,11.78,9.08a125.23,125.23,0,0,0,20.14-25.43L254.27,101l31-53.36,7.59-13.06a7.55,7.55,0,0,0-.59-8.33c-2-2.59-4.78-3.12-7.88-2.69-23.42,3.26-48.67,2.08-72.67-.07-24.38-2.18-48.71-5-73-7.62L97,11.41v15c46.45.91,92.94,2.89,139.06,8.64,12.44,1.55,25.36,3.5,38.14,5.77l2-14.73q-86-2.07-171.73-9.58Q80.28,14.38,56.1,11.82c-3.4-.36-6.22,2.61-7.23,5.51l-5.6,16a7.42,7.42,0,0,0,1.93,7.29c2.07,2.08,4.55,2.33,7.3,1.93,8.74-1.25,19.49-2.25,29.16-2.78,10.13-.56,20.28-.72,30.43-.6,20.4.25,40.77,1.66,61.09,3.42,40.38,3.5,80.72,8.45,121.3,8.6a385,385,0,0,0,69.38-5.64c2.87-.52,5-3.56,5.37-6.24s-.88-6.3-3.58-7.47c-43-18.73-89.78-23.28-136.18-25-23.09-.87-46.21-1.14-69.29-2.33C138.88,3.38,117.65.43,96.32,0,73.4-.39,49.12,2.86,30.45,17.24c-2.46,1.9-4,4.18-3.58,7.48.37,2.73,2.48,5.68,5.37,6.23,42.36,8.1,85.44,11.89,128.53,12.81s86.14-.91,129.11-3.75c24.17-1.59,48.31-3.49,72.44-5.41,3.9-.31,7.69-3.23,7.5-7.5-.2-4.51-3.31-6.94-7.5-7.5q-74.65-10-149.91-14.78-37.59-2.36-75.25-3.38C112.41.77,87.57.16,62.82.77c-11.3.28-23,1.23-33.66,5.31-5.89,2.26-12.21,5-15.67,10.59C10.16,22,10.77,29,12.55,34.78c5.55,18,23.12,27.84,40.13,32.77C62.54,70.41,72.8,71.64,83,72.67c12.28,1.24,24.62,1.82,37,1.89,24.62.13,49.21-1.78,73.66-4.51,24.67-2.75,50.07-6.47,74.13-9.67,11.48-1.53,23-3.31,34.57-4.11a95.36,95.36,0,0,1,14-.07l1.37.12c.2,0,2.47.31.74.06,1,.15,2,.32,3,.52a52.11,52.11,0,0,1,6.73,1.9c2,.68-.79-.43.34.12l1.48.7c1,.5,1.92,1,2.84,1.62.37.24.72.5,1.09.74,1.75,1.13-1-1,.58.44.83.75,1.66,1.5,2.44,2.3l7.3-12.53A749.79,749.79,0,0,0,225.85,26.27a763,763,0,0,0-122.16-6.79q-34.09.89-68,4.9c-3.89.46-7.7,3.12-7.5,7.5s3.3,7.05,7.5,7.5c31.28,3.35,62.56,6.7,93.93,9.14s62.71,4,94.12,3.66c17.71-.17,35.41-.94,53.06-2.42,3.9-.33,7.69-3.21,7.5-7.5a7.65,7.65,0,0,0-7.5-7.5c-30.47-.57-61-1.12-91.43-.35s-61.12,3-91.36,7.64A462.39,462.39,0,0,0,43.89,52.61c-8,2.17-6.63,15.16,2,14.74,49-2.42,97.92-4.84,146.92-6.28,48.8-1.44,97.64-1.91,146.45-.45,27.49.82,55,2.26,82.4,4.47v-15Q350.37,46.57,279,48.21T136.56,56.75c-26.7,2.58-53.4,5.59-79.85,10.12-3.08.53-5.64,4.2-5.5,7.23s2.2,6.71,5.5,7.23l127.92,20.09,127,19.93,32.44,5.1c5.29.83,10.68,2,16,2.42,4.15.3,9.23-.88,12.17-4a10.66,10.66,0,0,0,3-7.52c-.08-3.55-2.42-5.85-4.65-8.29q-4.32-4.71-9.08-9a151.51,151.51,0,0,0-21-15.72c-29.4-18.29-64.47-26.65-98.84-27.7C199.49,55.38,157.76,64.36,117,74.3c-5,1.22-10,2.47-15,3.71a7.58,7.58,0,0,0-5.51,7.23c.14,3,2.2,6.73,5.51,7.23q47.44,7.19,95.15,12.52c29.89,3.3,60.08,5.7,90.14,3.31A239.5,239.5,0,0,0,338.13,99a7.53,7.53,0,0,0,5.37-8.23c-.46-3.44-3.63-6.8-7.36-6.5a1118.07,1118.07,0,0,0-141.31,20.2q-19.7,4.11-39.22,9a7.5,7.5,0,0,0-5.38,8.23c.52,3.83,3.6,6.24,7.37,6.5a881,881,0,0,0,121.26.1q17.1-1.17,34.14-3c3.2-.34,6.45-2.07,7.23-5.5.72-3.16-.44-6.87-3.44-8.47-32-17-67.08-26.38-102.26-34q-13.22-2.86-26.45-5.53c-9.68-2-19.49-3.79-29.38-4.18a77.29,77.29,0,0,0-28.08,3.9c-8.54,2.92-16.58,7.07-24.51,11.34-4.24,2.29-8.46,4.61-12.78,6.75A85.18,85.18,0,0,1,80.9,94.74a71.51,71.51,0,0,1-7.19,2c-1.21.27-2.41.49-3.63.69s.91-.09-.43.06c-.67.08-1.35.15-2,.2a46.43,46.43,0,0,1-7.27,0q-.6,0-1.2-.12c-.53-.05-.54-.06,0,0l-.8-.14c-1.34-.29-2.65-.57-4-1l-2,14.73q72.12.79,144.23-1.33,20.59-.61,41.19-1.46c3.91-.16,7.69-3.33,7.5-7.5a7.67,7.67,0,0,0-7.5-7.5A1181.43,1181.43,0,0,0,66.63,96.82q-24,2.24-47.85,5.44c-3.88.52-7.7,3.08-7.5,7.5s3.31,6.94,7.5,7.5a793.3,793.3,0,0,0,108.58,7A808.85,808.85,0,0,0,237,116.2q30.43-4.31,60.45-11c8.26-1.83,6.45-15-2-14.74a540.91,540.91,0,0,0-101.17,12.63c-32.09,7.13-63.08,18.58-95.34,25a192,192,0,0,1-25.72,3.56,155.93,155.93,0,0,1-27.5-.47v15C86.76,149.47,128,148,169,145.45c40.84-2.54,81.64-6.12,122.56-7.1A692.81,692.81,0,0,1,361,139.87l-2-14.73c-33.2,5.57-67.25,11.28-100.11,15.69-33.6,4.5-67.38,7.89-101.27,9.08-19.24.67-38.5.61-57.72-.33l3.78,14c.83-.44,1.65-.85,2.5-1.23s.19-.09,0,0l1.1-.43a48.51,48.51,0,0,1,5.27-1.61c1.66-.41,3.35-.74,5-1,0,0,1.27-.18.57-.09s.6-.07.59-.06c1.06-.11,2.12-.22,3.19-.29a170,170,0,0,1,21.88.29q25.2,1.44,50.38,3.25,50.35,3.62,100.59,8.73,28.37,2.88,56.68,6.25v-15l-130.16,11.6-65.09,5.8c-21.38,1.91-42.86,4.36-64.36,3.53-23.66-.91-46.26-5.36-69.66-9.92v14.47q23.17-6.72,46.94-11.17a460.6,460.6,0,0,1,46.68-6.33,499.1,499.1,0,0,1,96.39,1.1c8.92,1,16.39,2,25.39,3.49s18.13,3.28,27.13,5.3l2-14.73q-47.61-.07-95.19-1.71-47.81-1.64-95.54-4.86-26.78-1.8-53.51-4.11c-3.92-.34-7.67,3.69-7.5,7.5.2,4.37,3.3,7.11,7.5,7.5l141.76,13,70.65,6.48c22.57,2.07,46.58,6.35,68.76-.34,10.65-3.22,20.57-8.41,30.75-12.83l1.2-.51,1.56-.64q1.92-.76,3.87-1.47c2.33-.84,4.7-1.59,7.1-2.22,1.3-.34,2.62-.64,3.95-.9l1.8-.32c2.34-.38-1.43.1.92-.11a51.82,51.82,0,0,1,8.17-.11c5.76.4,9.23-6.64,6.47-11.28-10.36-17.45-31-24.72-50.41-24.68-11.37,0-22.66,2.19-33.77,4.43s-22,4.54-33,6.92c-43.51,9.4-86.89,19.58-130.77,27.18-24.65,4.26-48.33,7.52-73.33,9.51-3.9.31-7.69,3.22-7.5,7.5s3.3,7.06,7.5,7.5q51.57,5.35,103.28,9.29,51.48,3.92,103,6.39,29.17,1.39,58.35,2.34v-15Q234.66,207.84,156,210.09q-22.14.63-44.3.8v15q60.74-6.6,121.64-11.56t121.9-8.26q34.47-1.86,69-3.19a7.54,7.54,0,0,0,7.36-6.51c.45-3.32-1.68-7.67-5.37-8.23C376.15,180.63,325.46,179.23,275,182s-101,9.44-151.07,17.45c-28.07,4.49-56.06,9.43-84,14.39-3.66.65-5.83,4.85-5.37,8.23a7.53,7.53,0,0,0,7.36,6.5c39.64,1.54,79.29,2.72,119,3.26,39.5.54,79,.44,118.49-.57q33.48-.86,66.92-2.64v-15q-56.78,7.62-113.74,13.74T118.37,238.07q-32,2.58-64.11,4.69l2,14.74c19.16-3.64,38.34-7.22,57.59-10.39,19.57-3.22,37.5-5.8,57.07-7.78A572.28,572.28,0,0,1,229,236.19c9.46,0,18.92.3,28.36.92q7.14.48,14.28,1.22,3.56.38,7.11.81l1.67.21c.07,0,1.45.19.5.07l3.75.53a306.06,306.06,0,0,1,62.48,15.92l2-14.73-113.8-4.35L122,232.45,57.85,230a7.48,7.48,0,0,0-7.37,6.5c-.45,3.34,1.68,7.66,5.37,8.23l108.39,17c36.19,5.66,72.46,11.52,109.06,13.74a418.29,418.29,0,0,0,61.11-.45c3.76-.32,6.85-2.61,7.37-6.51.47-3.47-1.71-7.46-5.37-8.23-16.94-3.51-34.24-4.05-51.47-3.26s-34.63,2.47-51.9,4.07c-34.68,3.21-69.3,7.09-103.89,11.2q-29.41,3.5-58.82,7.14l2,14.73c34.14-4.92,67.4-9.69,101.87-12.95,34.11-3.23,68.45-4.85,102.7-3.19a457.06,457.06,0,0,1,56.45,6.09c3.85.67,8.26-1,9.22-5.24.85-3.7-1.12-8.43-5.23-9.22-36.85-7.12-73.71-14.24-110.75-20.35S152.05,238,114.49,234.85c-21-1.75-42-2.84-63-3.14-3.92-.05-7.68,3.49-7.5,7.5a7.68,7.68,0,0,0,7.5,7.5l153.82,10.73,43.48,3c8.37.58,10.29-13.05,2-14.73a537.89,537.89,0,0,0-154-8.81q-22.15,2-44.11,5.71c-6.26,1.06-7.37,11-1.79,13.71C73.31,267.26,92.67,284.08,117,290.9c12,3.38,25.1,4.19,37.15.46,10.23-3.16,19.17-9,27.69-15.35,4.6-3.41,9.11-6.92,13.82-10.17,2.34-1.62,4.72-3.17,7.18-4.59,1.22-.72,2.46-1.4,3.71-2l1.9-.94c.24-.11,2.8-1.22,1.44-.66,3.5-1.45,5.91-4.23,5.38-8.23-.46-3.35-3.66-6.92-7.37-6.51l-107.14,12L70,258.28c-3.89.43-7.69,3.13-7.5,7.5.18,4,3.3,7.63,7.5,7.5q49.53-1.56,99.1-.17,14,.4,28,1l-2-14.74-21.39,4.48a7.55,7.55,0,0,0-5.5,7.24,7.75,7.75,0,0,0,5.5,7.23c19.12,5.79,39.33,5.64,59.08,4.66,20.68-1,41.35-2.3,62-3.67q62.08-4.1,124-10,35-3.35,70-7.31c3.75-.43,6.83-2.53,7.37-6.51.46-3.46-1.71-7.48-5.38-8.23a791.18,791.18,0,0,0-101.09-13.88,774.49,774.49,0,0,0-100.48-.72q-28.39,1.64-56.61,5.36c-3.88.51-7.7,3.09-7.5,7.5a7.65,7.65,0,0,0,7.5,7.5q62.39,2.13,124.82,2.17,17.83,0,35.67-.15c3.92,0,7.68-3.43,7.5-7.5-.2-4.42-3.31-7.06-7.5-7.5l-55.08-5.81c-3.7-.39-6.92,3.16-7.37,6.51a7.48,7.48,0,0,0,5.38,8.23,150.39,150.39,0,0,0,48.89,3.8c3-.27,5.61-1.66,6.85-4.61,1.09-2.58.72-6.25-1.55-8.19a281.46,281.46,0,0,0-76.85-46.74c-7.73-3.15-15.62-5.92-23.61-8.34l-2,14.73a249.78,249.78,0,0,0,63.43-16.18c2.51-1,4.49-2.49,5.24-5.24a7.6,7.6,0,0,0-1.93-7.3A144.27,144.27,0,0,0,296,133.63V148.1l55.13-20.24a7.74,7.74,0,0,0,5.24-9.23c-3-15.38-23-17.8-35.43-20.28a447.47,447.47,0,0,0-50.64-7v15a141.4,141.4,0,0,0,89.16-24.77c2.65-1.85,4.52-5.16,3.45-8.47a7.74,7.74,0,0,0-7.23-5.51,517.66,517.66,0,0,0-103.48,9.23q-14.32,2.73-28.47,6.3c-6,1.52-7.57,10.76-1.79,13.71,8.89,4.53,20.09.12,22.94-9.63,1.56-5.35-3.78-11-9.23-9.23a432.09,432.09,0,0,0-70.17,29.28q-16.62,8.73-32.39,18.92c-10.18,6.57-20.23,14.3-23.39,26.64-3.12,12.19,1.06,24.38,6.13,35.39,5,10.79,10.82,20.37,14.23,31.27a96.54,96.54,0,0,1,4.48,35.16c-.08,1.69-.2,3.38-.37,5.06,0,.54-.12,1.08-.17,1.62-.27,2.53.26-1.39-.15,1.13a68,68,0,0,1-1.86,8.47,29.65,29.65,0,0,1-7,12.6,33,33,0,0,1-3.11,2.8c1.21-.95-.63.4-.73.47-.67.46-1.36.89-2.06,1.3-1.31.78-2.67,1.44-4,2.1-.2.1-1.32.56-.15.09q-1.32.52-2.67,1a64.6,64.6,0,0,1-8.32,2.23c-1.42.28-2.84.51-4.27.73,1.62-.24-.72.09-.86.11l-2.13.22c-14.8,1.38-29.84.28-44.3,4.39A7.53,7.53,0,0,0,47,307.14c.47,3.45,3.64,6.78,7.37,6.5l94.47-7,94.46-7,53.32-3.94c3.9-.29,7.69-3.24,7.5-7.5a7.65,7.65,0,0,0-7.5-7.5q-84.74-1.38-169.44,2.8-23.85,1.17-47.67,2.8c-3.91.27-7.69,3.26-7.5,7.5.2,4.4,3.3,7.08,7.5,7.5L236,317.08l43.78,4.4v-15c-55.56-3.58-111.28-7.15-167-4.5q-23.61,1.13-47.1,3.89c-3.88.46-7.7,3.12-7.5,7.5.18,4,3.3,7.62,7.5,7.5l106-3,106-3,60.06-1.68c3.91-.11,7.68-3.37,7.5-7.5a7.68,7.68,0,0,0-7.5-7.5,1439.77,1439.77,0,0,0-176.75-1.94Q136,297.57,111,299.72l2,14.74c57.52-12.84,117.5-4.78,174.73,7.33,16.59,3.51,33.11,7.38,49.61,11.29a7.55,7.55,0,0,0,8.84-4.34c1.37-3.25.28-7.69-3.06-9.37a273.86,273.86,0,0,0-94.44-27.65l2,14.73a391.23,391.23,0,0,1,98.78-15.29v-15L273,279.25c-3.92.16-7.69,3.34-7.5,7.5a7.63,7.63,0,0,0,7.5,7.5l115.71,2.06-2-14.73c-39.78,12.72-81.21,12.37-123,11.83-21-.27-42-.61-63,.57-22.06,1.24-43.89,4.63-65.57,8.8-24.07,4.64-48,10.07-72.25,13.65l4,14.47c17-3.22,32.72-5.49,49.67-7.13s33.83-2.51,50.79-2.64,33.93.48,50.84,1.84c17.21,1.39,33,3.37,49.78,6.28A571.71,571.71,0,0,1,324,341.88c4.22,1.18,10.11-2.29,9.5-7.23l-8.09-64.85-1.13-9-14,3.78,8.44,15.95c1.79,3.37,7,4.95,10.27,2.69l37.72-26.46,5.35-3.76c2.46-1.72,4.77-5.29,3.45-8.47a445.48,445.48,0,0,1-28.35-100c-1.55-9.64-2.62-18.35-3.53-28.4l-14.74,2q6,25,14.19,49.31c2.67,7.89,5.7,15.65,8.5,23.5a62.18,62.18,0,0,1,3,11,27.46,27.46,0,0,1,.11,5.21l-.09,1c0-.15.24-1.13,0-.3s-.37,1.78-.63,2.66c-.13.44-.28.86-.42,1.29-.36,1.1.48-.95,0,.09a22.38,22.38,0,0,1-1.3,2.34c-.11.17-.95,1.26-.39.58s-.39.4-.49.5c-.31.32-.63.61-1,.91-.82.77.88-.57-.07.06-5.4,3.6-9,8.56-5.85,15.12,1.35,2.86,5.52,4.4,8.47,3.45A22.34,22.34,0,0,0,368,209l-11,8.47c.56.38.62.45.07,0,.41.35.8.71,1.18,1.09s.56.64.86.94c.58.57-.53-.9.18.26.5.84,1,1.65,1.44,2.52.07.14.62,1.38.3.6s.34,1,.33,1a42.63,42.63,0,0,1,1.5,5.56c.21,1,.4,2,.56,3,.1.56.18,1.12.26,1.68.05.31.27,1.9.06.33.5,3.75,2.47,6.82,6.5,7.36,3.87.52,6.93-1.82,8.23-5.37.16-.44.32-.88.5-1.31-.52,1.24.14-.21.25-.44.42-.84.87-1.65,1.36-2.45a28.45,28.45,0,0,1,1.78-2.6c-.48.62-.2.26.14-.12s.77-.88,1.18-1.3c.64-.67,1.32-1.32,2-1.94.43-.39.88-.77,1.34-1.13-.62.48-.26.21.17-.08a37.77,37.77,0,0,1,5.5-3l-11.29-6.48-1.72,19.86c-.32,3.7,3.1,6.91,6.5,7.36,3.91.53,6.88-1.83,8.23-5.37.34-.84.38-1,.11-.35.2-.47.41-.94.63-1.4.44-.93.92-1.84,1.42-2.74a49.73,49.73,0,0,1,2.9-4.53c.53-.72.61-.83.23-.32.32-.4.65-.79,1-1.18.67-.78,1.37-1.53,2.09-2.26,1.32-1.33,2.75-2.54,4.16-3.77,3-2.59,6-5.51,7.91-9a15.37,15.37,0,0,0,.37-14.49c-1.33-2.87-5.54-4.39-8.47-3.45A345,345,0,0,1,367.42,204c-6.5,1.27-13,2.38-19.59,3.25l-1.59.2c-.89.12-1.79.23-2.69.33a10.14,10.14,0,0,0-1.79.21s-2.72.64.14.45a8.9,8.9,0,0,1-2.29-.6c-5.45-1.4-10.88-2.94-16.36-4.21l-.48-.13a9.11,9.11,0,0,0-4,0c-.21,0-1.37.61-1.57.45l1-.16c-.84,0-.67,0,.51.16,0,0-.86-.21-1-.23-1.56-.27,1.28.84-.1,0-.61-.39-1.23-.75-1.84-1.15-.34-.22-1-.88.16.13-.44-.4-.91-.77-1.36-1.16-.76-.68-1.51-1.38-2.26-2.08a66.38,66.38,0,0,0-6.66-5.64c-11.1-8-25.67-2.71-37.7,0a309,309,0,0,0-37.08,10.4c-24.4,8.87-45.58,23.75-68.68,35.24C151,245.07,138,249.87,125.44,251.59a81.77,81.77,0,0,1-19.07.18c-1.45-.17,1.74.32-.7-.11-1-.18-2-.35-3.06-.56-1.53-.32-3-.69-4.53-1.13a42.51,42.51,0,0,1-8.41-3.27l-1.79,13.71,45.83-18.7,6.54-2.67c3.5-1.43,5.91-4.24,5.37-8.23a7.46,7.46,0,0,0-7.37-6.5q-41.76.84-83.54-.42l7.23,5.51-8.61-21.1-7.23,9.49a53.72,53.72,0,0,0,23.82-3.27c7-2.66,7.19-11.85,0-14.46l-13.36-4.85c-.88-.32-1.77-.64-2.65-1l-1.5-.59c.56.23.41.16-.42-.21s-1.92-.94-2.85-1.48c-.46-.27-.91-.55-1.35-.85-.74-.52-.87-.61-.41-.26L38.3,202.62c5,3.33,11,3.84,16.79,4,1.28,0,2.56.07,3.83.15.83.05,1.65.13,2.47.21l.47.06c2.9.42,5.76,1.05,8.61,1.72,11.54,2.68,23.28,5.85,35.06,2.59,4.29-1.19,7.39-7,4.48-11L99.49,185.91l-6.4-8.78c-.5-.7-1-1.39-1.51-2.08a11.17,11.17,0,0,0-2.06-2.28c-2.65-2.05-6.06-1.61-9.21-1.61H51.36c-3.93,0-7.68,3.45-7.5,7.5a7.63,7.63,0,0,0,7.5,7.5H102a64.17,64.17,0,0,0,12.78-.92L126.21,183l8.42-1.67c6.5-1.29,7.08-10.61,1.79-13.71-13.62-8-29-10.88-44.52-12.67-7.47-.86-15-1.43-22.46-2.25-1.86-.21-3.72-.42-5.57-.67,1.23.16-1.08-.15-1.17-.17-.93-.14-1.85-.28-2.77-.46a27.9,27.9,0,0,1-4.41-1.2l.21.08a12.47,12.47,0,0,1-1.19-.66c-.72-.49-.76-.5-.13,0-.34-.31-.67-.63-1-1l-1.51,11.78c1.21-.71,3.3-1.82,4-2.14a47.48,47.48,0,0,1,4.71-1.58,28.5,28.5,0,0,1,9.75-1.25c.8,0,1.59,0,2.38.09.31,0,2.7.28,1.55.12a38.77,38.77,0,0,1,5.51,1.23c3.67,1.06,7.21,2.51,10.87,3.57,7.48,2.17,16.32,2.6,23.17-1.73a21.87,21.87,0,0,0,7.42-8c.62-1.15,1.15-2.35,1.66-3.56.42-1,.82-1.94,1.23-2.91.13-.31.6-1.3,0,.12l.48-1.1c.33-.7.68-1.41,1.06-2.09.18-.3,1.24-1.84.67-1.13-.75,1,1.59-1.33.62-.62-.78.57,0,0,.16-.06a11.75,11.75,0,0,0,2-1.46c1.76-1.61,2.63-5.06,3.53-7.3,1.39-3.46-1.54-8.67-5.23-9.23a358.34,358.34,0,0,0-82.78-3l7.23,9.5L63.82,90.3c1.16-3.64-1.36-8.49-5.23-9.23-4.48-.86-9.26,1.27-10.29,6.09A8.7,8.7,0,0,0,55,97.67c3.28.63,6.68-.33,9.92-.88L74,95.25l18.28-3.09,8.23-1.39c3.33-.57,7.1-.65,9.71-3,2.33-2.1,4.37-4.63,6.52-6.91l12.06-12.79,7.67-8.15-7.29,1.93a12,12,0,0,0,12.64-3.3A9.5,9.5,0,0,0,144.44,50c-.66-2.88-3.39-5.26-6-6.36-3.76-1.59-7.43-1.15-11.37-.8-3.58.32-7.18.51-10.78.54A109.85,109.85,0,0,1,105.11,43q-1.33-.12-2.67-.27s-1.27-.16-.53-.06-.73-.11-.9-.14c-1.88-.29-3.76-.63-5.62-1.05a73.24,73.24,0,0,1-10.14-3c-.47-.17-.94-.36-1.41-.54,0,0-1.14-.49-.49-.2s-.47-.23-.48-.23l-1.36-.64c-1.69-.82-3.35-1.72-5-2.7-1.41-.85-2.76-1.77-4.1-2.72-1.17-.83-.65-.48-.39-.28l-1-.76c-.85-.69-1.68-1.4-2.5-2.1-3.27-2.81-6.5-5.65-10-8.18C51.77,15.15,43.49,12.42,35,13.73A19.26,19.26,0,0,0,19.29,28c-1.79,7.2.51,15.55,7.4,19.21,4.42,2.35,9.36,2.33,14.23,2.35,4,0,8,.07,12.07.37,1,.07,2,.16,3,.27l1.11.13c-1.3-.17.34.07.58.11a50.39,50.39,0,0,1,5.72,1.3c.93.27,1.85.58,2.75.91l1,.4c-1.16-.5.31.18.51.28a32.75,32.75,0,0,1,5.24,3.3c3.13,2.39,8.53.59,10.26-2.69,2.09-4,.65-7.71-2.69-10.26Z" transform="translate(-11.1)"/></g></g></svg>