<svg xmlns="http://www.w3.org/2000/svg" preserveAspectRatio="none" viewBox="0 0 510.02 788.91"><defs><style>.cls-1{fill:#333;}.cls-2{fill:none;stroke:#333;stroke-miterlimit:10;stroke-width:20px;}</style></defs><g id="Layer_2" data-name="Layer 2"><g id="Layer_1-2" data-name="Layer 1"><path class="cls-1" d="M13.88,284.09q.1-87.33.2-174.67c0-25.22,1-53,17.93-71.66,18.9-20.85,50.47-22.7,78.62-23.09L447.11,10c10-.14,20.82-.06,29.05,5.69C488.31,24.21,490,41.2,490.64,56c9,222.13,17.91,445.23-5.81,666.28-1.6,14.86-3.78,30.72-13.72,41.87-16.62,18.63-45.94,15.73-70.61,12A1384.06,1384.06,0,0,0,67.23,765.91c-14.42,1.3-30.9,2.14-41.19-8-9-8.89-9.76-22.91-10-35.55Q13.21,553.41,10.35,384.5l-.11-.51A828.81,828.81,0,0,1,13.88,284.09Z"/><path class="cls-2" d="M13.76,385.77l.12-101.68q.1-87.33.2-174.67c0-25.22,1-53,17.93-71.66,18.9-20.85,50.47-22.7,78.62-23.09L447.11,10c10-.14,20.82-.06,29.05,5.69C488.31,24.21,490,41.2,490.64,56c9,222.13,17.91,445.23-5.81,666.28-1.6,14.86-3.78,30.72-13.72,41.87-16.62,18.63-45.94,15.73-70.61,12A1384.06,1384.06,0,0,0,67.23,765.91c-14.42,1.3-30.9,2.14-41.19-8-9-8.89-9.76-22.91-10-35.55Q13.21,553.41,10.35,384.5"/><path class="cls-2" d="M10.24,384a828.81,828.81,0,0,1,3.64-99.9c.13-1.39.27-2.77.41-4.16"/></g></g></svg>