<svg xmlns="http://www.w3.org/2000/svg" preserveAspectRatio="none" viewBox="0 0 284 597"><defs><style>.cls-1{fill:#2c282c;}.cls-2{fill:none;stroke:#2c282c;stroke-miterlimit:10;stroke-width:20px;}</style></defs><g id="Layer_2" data-name="Layer 2"><g id="Layer_1-2" data-name="Layer 1"><path class="cls-1" d="M12.09,215.65l.11-131c0-18.93.53-39.75,9.65-53.78C32,15.19,49.05,13.8,64.21,13.51L245.49,10c5.41-.1,11.22,0,15.65,4.27,6.55,6.37,7.48,19.12,7.8,30.24,4.84,166.69,9.65,334.1-3.13,500-.86,11.15-2,23-7.39,31.42-9,14-24.75,11.8-38,9a538,538,0,0,0-179.55-7.67c-7.76,1-16.65,1.61-22.19-6-4.85-6.67-5.26-17.19-5.38-26.68Q11.73,417.78,10.18,291l0-.38C9.69,265.62,10.35,240.56,12.09,215.65Z"/><path class="cls-2" d="M12,292q0-38.18.07-76.33l.11-131c0-18.93.53-39.75,9.65-53.78C32,15.19,49.05,13.8,64.21,13.51L245.49,10c5.41-.1,11.22,0,15.65,4.27,6.55,6.37,7.48,19.12,7.8,30.24,4.84,166.69,9.65,334.1-3.13,500-.86,11.15-2,23-7.39,31.42-9,14-24.75,11.8-38,9a538,538,0,0,0-179.55-7.67c-7.76,1-16.65,1.61-22.19-6-4.85-6.67-5.26-17.19-5.38-26.68Q11.73,417.78,10.18,291"/><path class="cls-2" d="M10.13,290.65c-.44-25,.22-50.09,2-75,.07-1,.14-2.06.22-3.09"/></g></g></svg>