<svg xmlns="http://www.w3.org/2000/svg" viewBox="0 0 157.7 94.01"><g id="Layer_2" data-name="Layer 2"><g id="Layer_2-2" data-name="Layer 2"><path d="M10.41,49.44v-27a26.82,26.82,0,0,1,.18-5.15c.56-2.79,3-4.43,5.47-5.41C22.26,9.47,29.16,9.38,35.72,9,42.79,8.65,49.87,8.27,57,8c14.15-.64,28.32-1,42.49-.79q10.73.18,21.45.93c6.3.46,12.92.73,18.89,3,2.44.93,5.43,2.36,6.83,4.67a9.08,9.08,0,0,1,.92,4.43c.08,1.82.15,3.64.22,5.45L148.63,47l.88,21.34c.2,4.9,1,10.91-1.79,15.27-1.6,2.49-4.35,3.27-7.14,3.6-3.52.41-7.07.61-10.6.74-7,.26-14,.11-21-.23-14-.68-28-2.12-42.08-2.55-14.2-.43-28.42.69-42.61-.09a82.23,82.23,0,0,1-10-1c-2.34-.42-5.2-1.22-5.78-3.88a15.11,15.11,0,0,1,0-4.3l.38-5.48.77-11L10.38,49c.14-1.93-2.87-1.92-3,0L5.78,71.94c-.13,1.79-.27,3.59-.38,5.39A10.55,10.55,0,0,0,6,82.16c1,2.42,3.35,3.76,5.78,4.45a50.14,50.14,0,0,0,9.84,1.28c3.77.28,7.54.4,11.31.43,7.49.07,15-.2,22.45-.27,14.9-.15,29.72,1.15,44.58,2.12,7.4.49,14.82.87,22.24.89,3.74,0,7.48-.08,11.22-.29a58.92,58.92,0,0,0,10.35-1.09c5.79-1.42,8.23-6.45,8.8-12a61.35,61.35,0,0,0,0-8.89l-.46-11.17-.93-22.58-.47-11.41c-.13-3.19.2-6.95-1.67-9.73-1.61-2.39-4.32-4-6.9-5.11a36.36,36.36,0,0,0-9.26-2.54,204.51,204.51,0,0,0-21.56-1.75c-15-.69-30-.51-44.94,0-7.41.27-14.82.63-22.23,1S29.38,6,22.17,7.22C16.8,8.13,9.41,10,7.81,16.1A19.05,19.05,0,0,0,7.42,21q0,3,0,6V49.44a1.5,1.5,0,0,0,3,0Z"/><path d="M71,.83A135.81,135.81,0,0,0,25.28,3.54c-3.62.84-7.22,1.84-10.76,3a31.55,31.55,0,0,0-8.91,4A12.72,12.72,0,0,0,.48,18.14a29.87,29.87,0,0,0,0,10.79c1.06,7.25,3.7,14.13,5.18,21.28,1.53,7.37.75,14.69.77,22.15,0,6.41.78,14.15,5.66,18.87A9.9,9.9,0,0,0,21,93.85c3.6-.57,7.11-1.61,10.73-2.15,15.07-2.25,30.4-.79,45.52,0A220.72,220.72,0,0,0,99.78,92,114.64,114.64,0,0,0,122,88.6c7.36-1.84,14.57-3.71,22.22-3.52,2.75.07,5.88.11,8.27-1.5,2.85-1.92,3-5.26,3.34-8.4,1.43-15.48,2.79-31.14.94-46.65a104,104,0,0,0-2-11.61c-.72-3.06-1.6-6.22-3.63-8.69s-5.13-3.5-8.31-3.84c-4-.42-8-.47-11.93-.68L82.1,1.13,70.15.5c-1.93-.1-1.93,2.9,0,3L117,6q11.72.61,23.41,1.23c3,.17,6.32.4,8.42,2.86s2.66,5.66,3.31,8.58c3.25,14.46,2.92,29.44,1.82,44.14-.28,3.74-.61,7.47-.95,11.2-.27,2.86,0,6.61-3.32,7.66-2.65.83-5.57.34-8.29.4a59.09,59.09,0,0,0-11,1.44c-7,1.5-13.84,3.63-21,4.62a135.31,135.31,0,0,1-21.58,1c-14.46-.3-28.88-2-43.35-1.51a106.7,106.7,0,0,0-21.22,2.67c-3.11.75-6.16,1.4-8.75-.93a15,15,0,0,1-4.06-7.64c-1.75-6.91-.7-14.16-.71-21.19S8.05,46.68,6.14,39.86c-.92-3.29-1.83-6.6-2.44-10a29.44,29.44,0,0,1-.41-10.54c1.3-6.82,8.22-8.78,14-10.56a132.43,132.43,0,0,1,43-5.73q5.35.16,10.67.77c1.92.21,1.91-2.79,0-3Z"/><path d="M62.08,32.22A66.31,66.31,0,0,1,65.7,66.29a1.53,1.53,0,0,0,1.85,1.84c1.91-.27,3.39-1.48,4.83-2.68s3-2.45,4.5-3.63c3.08-2.36,6.27-4.6,9.54-6.69a136.82,136.82,0,0,1,20.86-11,1.51,1.51,0,0,0,0-2.89,215.69,215.69,0,0,0-45.7-12.15c-1.89-.28-2.71,2.61-.8,2.89a216.29,216.29,0,0,1,45.7,12.15V41.28A139.76,139.76,0,0,0,85.65,52.07q-4.94,3.1-9.59,6.63c-1.5,1.14-3,2.31-4.45,3.5s-2.89,2.76-4.86,3l1.85,1.84A69.35,69.35,0,0,0,65,31.42c-.69-1.78-3.59-1-2.9.8Z"/><path d="M63.71,25.74,62.42,67.62A1.52,1.52,0,0,0,65,68.68a46.66,46.66,0,0,1,17.19-9c6.44-2,13-3.67,19.48-5.48,1.52-.43,3.1-.78,4.59-1.29A3.12,3.12,0,0,0,108.68,50a4.28,4.28,0,0,0-2-3.18c-1.48-1.09-3.12-2-4.67-3L84.34,32.72c-5.72-3.6-12.11-8.51-19.28-7.61-1.89.24-1.91,3.24,0,3C70.92,27.38,76,31,80.73,34l16.6,10.47,4,2.51a22.5,22.5,0,0,1,4,2.59c.12.12.38.65.44.4s-.48.07-.63.12c-.69.23-1.41.4-2.12.59L98.26,52C92.19,53.68,86,55.22,80,57.17a48.72,48.72,0,0,0-17.18,9.39l2.56,1.06,1.29-41.88c.05-1.93-2.95-1.93-3,0Z"/></g></g></svg>