<svg id="Layer_1" data-name="Layer 1" xmlns="http://www.w3.org/2000/svg" viewBox="0 0 1057.31 1265.47"><defs><style>.cls-1{fill:#363;}</style></defs><path class="cls-1" d="M94.9,129C40.37,180.6,29.33,247.27,36,310.1S65,434.73,70.54,497.61C81.79,625.83,22.43,753.28,32.65,881.53c5.36,67.35,29.83,133.38,41.19,200.4A520.67,520.67,0,0,1,70,1276.65c-1.45,6.88-3,14.13,1,20.56,5.76,9.38,21.22,14.21,35.56,17.73,110.67,27.17,232.32,27.48,349.76,19.58S690,1310.85,807.86,1307c41-1.33,83.12-1.34,121.36-11.22,88.7-22.9,130.17-92.57,129.48-155.56s-32.83-123.86-45.33-186.31c-22.73-113.57,19.91-227.74,39.92-341.54,15-85.18,17.25-171.64-.58-256.59-9.52-45.32-24.52-92.44-3-135.93,10-20.33,27.78-39,34.19-59.93s-2.93-46.62-32.48-55.28c-25.35-7.43-54.29.23-80.47,6.26-77.43,17.83-162.39,21.09-242.42,9.3-76.75-11.31-148.92-36.07-227.22-40.84C363.05,71,211.32,81,94.13,130.23" transform="translate(-30 -75.22)"/><path class="cls-1" d="M93.83,127.9a192.74,192.74,0,0,0-49.72,77.16c-9.44,27.79-12.42,57.43-11.06,86.65,3.46,74.53,33.19,145,36.93,219.56,3.72,74.3-14.36,147.26-27.27,219.88C36.55,765.82,31.4,800.79,30.21,836c-1.24,36.82,3,73,10.69,109,8,37.41,18.61,74.19,26.56,111.61a539.81,539.81,0,0,1,12.21,116.69,521.44,521.44,0,0,1-3.7,57.78q-1.73,14.25-4.22,28.39c-1.59,9-4.75,18.41-4.82,27.58-.11,13.88,12,20.6,23.6,24.77,16.54,5.94,34.38,9.07,51.59,12.36,149.79,28.7,303.67,14,454.19-.16,78.36-7.38,156.6-13.88,235.29-16.24,36.1-1.09,72.92-2.58,107.68-13.3,26.21-8.09,50.85-21.43,71-40.19,36.54-34.07,53.81-82.39,49-131.83-3.48-35.51-15.14-69.51-26.07-103.27-11.61-35.91-21.62-71.81-24-109.66-4.86-76.76,14.49-152.33,31.18-226.59s28.83-149.22,26.1-225.66a624,624,0,0,0-14.63-112.91c-7.88-35.5-17.78-73.36-6.58-109.28,5.43-17.42,16.21-31.79,26-46.91,7.38-11.39,15-24,16-37.88,1.9-25.58-18-44-41.79-48.68-16.64-3.24-33.82-1-50.27,2.31-18,3.6-35.83,8.26-54,11.51a660.37,660.37,0,0,1-111.75,10.18A662.49,662.49,0,0,1,715,116.59c-36.74-6.17-72.92-15.1-109.33-22.89-35.9-7.68-72-13.94-108.73-16.07-35.33-2-70.74-2.85-106.13-2.19-69.51,1.3-139.38,8-207.07,24.3a593.19,593.19,0,0,0-90,29c-1.75.73-1,3.64.8,2.89,61.7-25.78,127.91-39.58,194.19-46.86,69.08-7.6,138.89-8.19,208.22-4.18,73.13,4.24,143.11,26.16,215,38.46a670.14,670.14,0,0,0,216.32,1.6c17.47-2.74,34.72-6.38,51.94-10.36,17.62-4.07,35.69-8.13,53.89-7.06,16.34,1,33.51,6.75,43.15,20.78a41.49,41.49,0,0,1,5.63,34.16c-4.44,16.49-15.74,30.5-24.88,44.58-8.94,13.77-15.87,28.21-18.8,44.48-6,33.59,3,67.51,10.22,100.15,16.4,74.43,18,150.86,8.32,226.33s-32,148.27-44.25,223.15c-5.87,35.65-9.4,71.85-7.57,108,1.77,35.05,9.67,68.68,20.2,102,18.36,58.22,44,121.3,23.14,182.32-18,52.69-63.73,89.39-116.47,104.06-35.14,9.77-72,10.67-108.27,11.71q-57.69,1.67-115.22,6.07c-150.71,11.51-301.41,33.52-452.89,24.11a900.54,900.54,0,0,1-111.16-13.44c-16.74-3.15-33.81-6.35-50-11.52-7.48-2.37-16.1-5.46-21.33-11.65-7.33-8.67-2.36-21.29-.49-31.11,13.88-72.65,11.45-146.54-4.49-218.62-8.08-36.56-18.46-72.59-26-109.28-7.5-36.47-11.11-73.15-9.33-110.38,3.45-72.38,22.59-142.71,33.08-214.15,5-34.33,8.14-69.08,6.41-103.79C71.15,474.74,63.23,439,55.11,403.44c-14.66-64.1-29.94-131.28-8.7-195.79,9.78-29.73,27-56,49.55-77.63,1.39-1.33-.73-3.45-2.13-2.12Z" transform="translate(-30 -75.22)"/></svg>