<svg id="Layer_1" data-name="Layer 1" xmlns="http://www.w3.org/2000/svg" viewBox="0 0 1057.21 1911.04"><defs><style>.cls-1{fill:#363;}</style></defs><path class="cls-1" d="M94.9,155.69C40.37,233.74,29.33,334.52,36,429.49S65,617.88,70.54,712.93c11.25,193.8-48.11,386.45-37.89,580.31,5.36,101.81,29.83,201.61,41.19,302.92A1183.34,1183.34,0,0,1,70,1890.49c-1.45,10.39-3,21.36,1,31.07,5.76,14.18,21.22,21.48,35.56,26.8,110.67,41.08,232.32,41.55,349.76,29.59s233.69-35.77,351.6-41.55c41-2,83.12-2,121.36-16.94,88.7-34.62,130.17-139.94,129.48-235.15s-32.83-187.22-45.33-281.61c-22.73-171.67,19.91-344.26,39.92-516.26,15-128.77,17.25-259.45-.58-387.85-9.52-68.51-24.52-139.74-3-205.47,10-30.73,27.78-58.9,34.19-90.59S1081,132.06,1051.4,119c-25.35-11.22-54.29.35-80.47,9.47a446.69,446.69,0,0,1-242.42,14.05C651.76,125.4,579.59,88,501.29,80.76,363.05,68,211.32,83.16,94.13,157.6" transform="translate(-29.96 -75.2)"/><path class="cls-1" d="M93.6,154.93c-106,153.58-45.07,348.59-27.81,517.87C85.55,866.7,29.3,1056.53,30,1249.92c.34,97.3,20.18,192.38,34.63,288.19,14.87,98.57,19.27,198.05,10.19,297.41q-1.5,16.55-3.48,33c-1.49,12.46-4.31,25.17-4.37,37.74-.09,17.06,9,28.93,23.69,36.79,17.46,9.35,37.66,14.77,56.64,20.06a584.61,584.61,0,0,0,67.48,14.48c91.54,14.24,184.78,8.92,276.36-2,97-11.6,193.4-29.31,291-36.15,44.75-3.13,91.27-.94,134.64-14.09,32.58-9.88,61-29.45,82.92-55.41,44.45-52.72,62-125,60.44-192.77-2.2-95.73-34.58-187.26-46.15-281.78C989.89,1198.85,1047.72,1004,1062.19,809c7.31-98.45,6.4-197.7-6-295.71-6-47-15.57-93.76-16-141.26-.2-24.19,2.14-48.49,8.87-71.79,6.09-21.09,16.09-40.67,24.47-60.87,13-31.44,21.44-68.46,2.75-99.66-21.1-35.23-61.51-28-94.61-16.6-44.87,15.52-90.31,26-137.91,28a452,452,0,0,1-138.09-15.83c-44.11-12-86.64-29.06-130.62-41.48-41.69-11.78-83.74-16.38-126.94-18-83.23-3-168,4.7-247.45,30.59A479.27,479.27,0,0,0,93.37,156.3c-1.62,1-.12,3.63,1.52,2.59,70.89-44.66,153-67.69,235.84-76.39,84-8.81,172.1-7.21,253.37,17,42.69,12.74,84.23,29.18,127.39,40.38a450.45,450.45,0,0,0,128.82,14.31A447.4,447.4,0,0,0,968.05,131c22.31-7.55,46.44-18.51,70.53-14.33,19.82,3.43,34,17.87,40.69,36.33,14.84,41-6.85,80.45-22.53,117.46-17.14,40.47-21.55,82.49-18.56,126.1,3.2,46.54,12.53,92.43,17.58,138.76a1395.34,1395.34,0,0,1,8,144.08c.51,96.92-9,193.19-22.9,289-13.53,93.25-29.66,186.41-34.26,280.67-2.32,47.55-1.62,95.32,3.88,142.65,5.26,45.29,15.33,89.8,24.82,134.34,17.51,82.15,33.17,167.46,9.38,250-20.11,69.78-66.89,132-140.25,149.46-44.56,10.63-91.65,8.34-137.07,12-46.7,3.78-93.17,9.87-139.56,16.38C534,1967.09,440,1982.06,345,1983.17c-46.13.53-92.43-2.1-137.95-9.83a577.91,577.91,0,0,1-63.94-14.52c-20.17-5.83-45.71-11.38-61.82-25.66-18.36-16.28-9.48-43.55-7-64.62q4.28-35.71,6.37-71.64a1183.07,1183.07,0,0,0-.34-143.78c-6-95.27-26.84-188.43-39-282.93s-8.62-188.12,1.87-282.5c10.39-93.57,25.47-186.76,29.32-281a948.76,948.76,0,0,0-4.35-139.4c-4.93-46.27-12.65-92.19-19.34-138.23C36.26,442.33,27.58,353,48.16,266.72c9.38-39.35,25-76.93,48-110.27,1.1-1.6-1.5-3.1-2.59-1.52Z" transform="translate(-29.96 -75.2)"/></svg>