<svg id="Layer_1" data-name="Layer 1" xmlns="http://www.w3.org/2000/svg" viewBox="0 0 334.49 634.29"><defs><style>.cls-1{fill:#363;}</style></defs><path class="cls-1" d="M51.41,102.85C34.26,128.67,30.79,162,32.87,193.44S42,255.76,43.75,287.21c3.54,64.13-15.13,127.86-11.92,192,1.69,33.68,9.38,66.7,13,100.22a411.46,411.46,0,0,1-1.22,97.38c-.45,3.44-.93,7.06.31,10.28,1.81,4.69,6.68,7.11,11.19,8.87,34.8,13.59,73.05,13.74,110,9.79S238.52,693.92,275.6,692c12.89-.67,26.14-.67,38.16-5.61,27.89-11.45,40.94-46.3,40.72-77.8s-10.33-61.94-14.26-93.17c-7.14-56.8,6.26-113.9,12.56-170.81,4.71-42.6,5.42-85.84-.19-128.32-3-22.67-7.71-46.24-.95-68,3.16-10.16,8.74-19.48,10.76-30S361.48,95,352.18,90.7c-8-3.72-17.07.11-25.3,3.13a133.78,133.78,0,0,1-76.23,4.65c-24.14-5.66-46.83-18-71.45-20.42-43.47-4.21-91.19.79-128,25.42" transform="translate(-29.96 -75.21)"/><path class="cls-1" d="M50.11,102.09C16.92,152.68,35.29,216.17,41,271.53c3.27,31.7,1,63.33-2.6,94.89C34.84,397.53,30.33,428.63,30,460c-.36,31.89,5.3,63.08,10,94.49,4.79,31.93,6.84,64,4.66,96.26q-.79,11.87-2.28,23.67c-.77,6.07-1.88,12.48,2.74,17.35,3.84,4.06,9.77,5.85,14.89,7.64a168.68,168.68,0,0,0,21.87,6c29.17,5.9,59.24,4.73,88.64,1.29,31.82-3.72,63.34-10,95.31-12.49,14.61-1.14,29.91-.32,44-4.75a56.08,56.08,0,0,0,26.83-18.75c14.28-17.89,19.74-41.89,19.24-64.41-.67-31-10.52-60.79-14.29-91.42-7.89-64,9.61-127.45,14.59-190.94a527.2,527.2,0,0,0-.71-95.43c-1.61-15.52-4.6-30.9-5.57-46.49a107,107,0,0,1,.79-23.18c1.18-7.46,3.74-14.44,6.65-21.38,4.75-11.3,9.56-23.29,5.58-35.58a21,21,0,0,0-8.29-11.45C349.38,87,343,87.28,337.08,88.79c-7.3,1.89-14.2,5.08-21.48,7A132,132,0,0,1,293,99.91a132.6,132.6,0,0,1-45.28-3.69c-14.26-3.7-27.87-9.43-41.91-13.85a160.12,160.12,0,0,0-40.94-6.85c-26.93-1.27-54.48,1.2-80.11,9.92a149,149,0,0,0-34.39,16.74c-1.6,1.06-.1,3.66,1.51,2.59,22.54-14.93,49-22.65,75.7-25.35A253.45,253.45,0,0,1,167,78.63a157.87,157.87,0,0,1,41.31,7.67c13.61,4.48,26.92,10,40.87,13.36A134.92,134.92,0,0,0,291.91,103a138.32,138.32,0,0,0,20.62-3.29c7-1.68,13.7-4.19,20.52-6.54s15.19-4.38,21.41.7c4.41,3.61,6.4,9.53,6.91,15,1.24,13.56-6.77,25.55-10.84,38-4.5,13.74-4.38,28.43-2.94,42.67,1.52,15,4.17,29.94,5.53,45,1.41,15.65,2,31.37,1.93,47.09-.17,31.55-3.38,62.86-7.75,94.08-4.25,30.33-9.1,60.66-10.33,91.31a297.15,297.15,0,0,0,1.53,46.59c1.76,14.83,4.92,29.43,7.87,44.06,5.36,26.55,10,54,2.8,80.71-6.07,22.41-20.26,43.41-43.93,49.17-14.74,3.59-30.46,2.72-45.5,4.11s-30.26,3.56-45.33,5.81c-29.95,4.46-60,9.27-90.37,9A215.44,215.44,0,0,1,80.47,702a164.86,164.86,0,0,1-21.27-6.07c-6-2.15-13.69-4.69-14.52-12-.4-3.54.42-7.21.85-10.72q.73-6,1.31-12.13,1.06-11.53,1.49-23.13a411.76,411.76,0,0,0-.93-46.34C45,560.77,38.45,530.52,35,499.84c-3.44-30.95-1.79-61.78,1.58-92.65,3.32-30.34,7.85-60.6,8.87-91.14a329.25,329.25,0,0,0-1.63-45.72c-1.61-15.19-4-30.27-6.1-45.4-3.88-28.34-6.44-57.5.08-85.66A109.53,109.53,0,0,1,52.7,103.6c1.06-1.62-1.53-3.12-2.59-1.51Z" transform="translate(-29.96 -75.21)"/></svg>