<svg xmlns="http://www.w3.org/2000/svg" viewBox="0 0 301.5 86.59"><g id="Layer_2" data-name="Layer 2"><g id="Layer_1-2" data-name="Layer 1"><path d="M83.52,18.86a401.78,401.78,0,0,1,64.55,10.6,404.53,404.53,0,0,1,61.75,20.79q16.83,7.24,33,16l.58-1.37q-43.23-12.66-87.23-22.49T67.62,25.66q-24.81-3.86-49.73-6.79v1.5A616.3,616.3,0,0,1,95,33.34a617.7,617.7,0,0,1,74.46,22.49q20.75,7.72,40.9,17l.76-1.3C184.51,60.11,157.94,48.75,131,38.31A830,830,0,0,0,48.71,10.76C33,6.49,17,2.85.94,0a.75.75,0,0,0-.4,1.45Q40.2,13,78.67,28.15t75.62,34q20.76,10.54,40.94,22.16l.58-1.37Q142.11,72.24,89.28,57.72q-15-4.11-29.84-8.53l-.2,1.47Q106.75,54,154,60.23q47.41,6.23,94.39,15.32,26.17,5.07,52.19,11l.4-1.45L196.78,61.85,92.59,38.57,34.06,25.49c-.94-.21-1.34,1.24-.4,1.45L137.85,50.22,242,73.49l58.54,13.08c.94.21,1.34-1.23.4-1.45Q254.4,74.49,207.24,66.64,160.3,58.86,113,53.88q-26.81-2.82-53.71-4.72c-.87-.06-1,1.24-.2,1.47Q111.53,66.22,165,78q15.15,3.34,30.37,6.38a.75.75,0,0,0,.58-1.37q-36-20.74-73.9-38Q84.44,27.81,45.29,14.16,23.3,6.51.94,0L.54,1.46A601,601,0,0,1,84.15,23c27.45,9.06,54.38,19.61,81.07,30.67,15.08,6.25,30.09,12.67,45.09,19.1.87.37,1.64-.89.76-1.3a618.11,618.11,0,0,0-73.36-28.05A617.62,617.62,0,0,0,61.58,25q-21.72-3.83-43.69-6.09c-1-.1-.94,1.39,0,1.5q44.64,5.28,88.87,13.46Q150.77,42,194.18,53,218.69,59.2,243,66.32a.75.75,0,0,0,.58-1.37A404.49,404.49,0,0,0,120.06,22q-18.15-3.17-36.54-4.65c-1-.08-1,1.42,0,1.5Z"/></g></g></svg>