<svg xmlns="http://www.w3.org/2000/svg" preserveAspectRatio="none" viewBox="0 0 330.35 299.94"><g id="Layer_2" data-name="Layer 2"><g id="Layer_1-2" data-name="Layer 1"><path d="M144.85,1.23C113.55-2.4,82,8.49,57.45,27.71,31.49,48,14.51,77.48,6.72,109.27a190,190,0,0,0-5.25,50.06,180.31,180.31,0,0,0,8.08,50.42c5.14,16,13.25,31,24.94,43.14,11.26,11.69,25.21,20.51,40,26.94a194.16,194.16,0,0,0,48.54,13.41,233,233,0,0,0,55.41,1.61,232.32,232.32,0,0,0,54.24-11.5c15.29-5.24,30.12-12.16,43.39-21.44,13-9.11,24.51-20.57,32.59-34.33,8.62-14.68,13.24-31.43,14.71-48.32,2.78-32.18-5.5-65-21.29-93a168.82,168.82,0,0,0-66.82-66A172.7,172.7,0,0,0,138.41.73a168.2,168.2,0,0,0-24,4c-.93.23-.54,1.68.4,1.45a170.39,170.39,0,0,1,97.88,5.59A165.58,165.58,0,0,1,288.44,68c18.73,25,30.77,55.09,33.43,86.23a134.29,134.29,0,0,1-4.63,49.82,101.55,101.55,0,0,1-24.81,42.2c-23.21,23.63-56,36.65-87.92,43.25-35.25,7.28-72.58,6.47-107.29-3.26-15.41-4.31-30.39-10.56-43.72-19.48a103.15,103.15,0,0,1-32.77-34.92C12.34,217,7.57,200.31,5.06,183.51A197.33,197.33,0,0,1,4,133.4c3.5-32.51,15.69-64.79,37.88-89.2C62.64,21.36,91.74,5.37,122.66,2.49a106.87,106.87,0,0,1,22.19.24c1,.11.94-1.39,0-1.5Z"/><path d="M149.17,3a112.12,112.12,0,0,0-47-.76A124.88,124.88,0,0,0,58,20.11,122.22,122.22,0,0,0,23.88,53.28,135.1,135.1,0,0,0,4,98.71,147,147,0,0,0,.87,148.52a150.2,150.2,0,0,0,13.31,47A169.23,169.23,0,0,0,40.92,236a180,180,0,0,0,37.14,31.83,195.72,195.72,0,0,0,49.3,22.6,223.33,223.33,0,0,0,54.18,9.24c18,.86,36.31-.1,53.94-3.93,17.22-3.75,33.88-10.65,47.44-22.09,13.1-11.05,22.89-25.58,30.18-41a180.14,180.14,0,0,0,15.11-48.6,157.6,157.6,0,0,0,.29-49.9,121.32,121.32,0,0,0-17.38-46.41C302.4,74.2,290.8,62.79,277.84,53.33c-13.32-9.73-28-17.46-43-24.21-15.5-7-31.41-13.16-47.39-19C170.35,4,151.86-.9,133.78,3.82A45.55,45.55,0,0,0,113.5,14.91c-.69.68.37,1.74,1.06,1.06,12.6-12.21,31.44-14.29,48-11.35,9.42,1.68,18.52,4.77,27.47,8.1q12,4.47,23.84,9.19c29.55,11.8,59.68,25.76,82,49.07a114.7,114.7,0,0,1,25.45,41.18,137.76,137.76,0,0,1,7.45,48.45,172.5,172.5,0,0,1-8.32,49.2c-5.1,15.94-12.28,31.49-22.22,45a97.26,97.26,0,0,1-40,32.13C242,294,224.18,297,206.55,298c-36,2.09-72.69-3.94-105.42-19.21-29.83-13.92-55.87-35.72-74-63.27C9.2,188.35-.22,156.19,1.78,123.57S17,58.51,40.77,35.65c22.63-21.71,53.94-34.59,85.39-34a106.27,106.27,0,0,1,22.61,2.84c.94.22,1.34-1.22.4-1.45Z"/></g></g></svg>