<svg xmlns="http://www.w3.org/2000/svg" viewBox="0 0 82.47 62.72"><g id="Layer_2" data-name="Layer 2"><g id="Layer_1-2" data-name="Layer 1"><path d="M70.19,1A646.07,646.07,0,0,0,15.27,47.1Q7.77,54.14.5,61.41c-.59.58.19,1.69.9,1.18L64.25,17.31,82.09,4.46l-.91-1.18L39.54,35.66,27.76,44.82l1.06,1.06L69.47,9.51c.67-.6-.18-1.52-.91-1.17A317.94,317.94,0,0,0,22.44,35.4q-6.12,4.34-12,9c-.7.55.19,1.55.91,1.18a254,254,0,0,0,46.8-30.94l-1.06-1.06Q36.28,34,13.77,52.68c-.67.56.19,1.58.91,1.18A409.74,409.74,0,0,0,63.43,21.79q6.46-5,12.74-10.15c.65-.53-.23-1.7-.91-1.17Q55.6,25.6,37.41,42.55q-5.16,4.81-10.2,9.77c-.69.69.34,1.68,1.07,1.06L75.34,13.59c.65-.54-.22-1.68-.91-1.17L24.35,49.16,10.07,59.64c-.77.56-.05,1.85.75,1.3q21.66-14.85,42.36-31Q59,25.37,64.82,20.68c.69-.55-.18-1.56-.9-1.18Q40.25,32.19,17.68,46.77,11.29,50.91,5,55.18l.91,1.18L43.77,19.73,54.48,9.36c.7-.67-.35-1.72-1.06-1.06L21.21,38.46c-.72.67.33,1.65,1.06,1.06L69.58,1.24,68.52.18,28.84,38a.75.75,0,0,0,.91,1.18A178.84,178.84,0,0,0,72.36,5.39c.55-.59-.2-1.71-.91-1.18L27.18,37.7l-12.5,9.46.91,1.18L58.17,14l12-9.67c.66-.53-.21-1.67-.91-1.18l-53.84,38L.33,51.87c-.78.55,0,1.84.76,1.29,16.33-11.22,32.72-22.5,47.44-35.82q6.27-5.65,12-11.82c.56-.6-.17-1.68-.91-1.18A387,387,0,0,0,20.71,34.7q-5.28,4.68-10.37,9.56c-.7.67.36,1.71,1.06,1.06A424.93,424.93,0,0,1,53.67,10.93Q59.91,6.51,66.3,2.3l-.91-1.18L25.63,38.81,14.43,49.43c-.61.57.2,1.68.91,1.18a463.39,463.39,0,0,0,44.14-36Q65.42,9.08,71.15,3.38c.69-.68-.37-1.74-1.06-1.06A459.77,459.77,0,0,1,27.76,39.49q-6.5,5-13.18,9.82l.91,1.18L55.25,12.8,66.46,2.18c.6-.58-.19-1.65-.91-1.18A424.31,424.31,0,0,0,21.93,33.91Q16,39,10.34,44.26l1.06,1.06A382.44,382.44,0,0,1,49.1,13.65q5.58-4.11,11.31-8L59.5,4.46C46,18.94,30.21,31,14.06,42.35,9.51,45.56,4.92,48.71.33,51.87l.76,1.29,53.84-38L70,4.49l-.91-1.18L26.53,37.61l-12,9.67c-.65.53.23,1.69.91,1.18L59.7,15,72.21,5.51,71.3,4.33A177.22,177.22,0,0,1,29,37.83L29.9,39,69.58,1.24c.71-.67-.33-1.65-1.06-1.06L21.21,38.46l1.06,1.06L54.48,9.36,53.42,8.3,15.57,44.93,4.86,55.3c-.6.58.19,1.66.91,1.17Q28,41.38,51.35,28.13,58,24.38,64.67,20.8l-.91-1.18Q43.51,36,22.26,51.13q-6.06,4.31-12.19,8.51l.75,1.3L60.91,24.19,75.19,13.71l-.91-1.18L27.21,52.32l1.07,1.06Q45.82,36.13,64.91,20.56,70.4,16.09,76,11.76l-.91-1.18A408.23,408.23,0,0,1,28,44.31q-7,4.26-14.08,8.25l.91,1.18Q37.32,35.13,58.11,14.59c.7-.69-.33-1.67-1.06-1.06a252.43,252.43,0,0,1-46.5,30.71l.91,1.17a316.44,316.44,0,0,1,44.45-29q6.63-3.57,13.41-6.81l-.91-1.18L27.76,44.82c-.73.66.32,1.64,1.06,1.06L70.46,13.51,82.24,4.34c.66-.52-.22-1.67-.91-1.18L18.49,48.44.65,61.29l.91,1.18A647.37,647.37,0,0,1,54.83,14.78q8-6.36,16.11-12.47c.77-.58,0-1.88-.75-1.3Z"/></g></g></svg>