<svg xmlns="http://www.w3.org/2000/svg" viewBox="0 0 75.89 68.1"><g id="Layer_2" data-name="Layer 2"><g id="Layer_1-2" data-name="Layer 1"><path d="M21,59.76,69,18.45c.32-.28-.11-.83-.46-.59A460.44,460.44,0,0,0,28.94,48.2q-5.42,4.63-10.7,9.45c-.36.33.17.82.53.53q22.53-17.76,44-36.79,6.12-5.44,12.17-11c.31-.29-.09-.8-.46-.59A217.67,217.67,0,0,0,32,42.46q-5.43,5.35-10.46,11.08l.53.53C32.63,41.73,48.33,35.82,60.28,25.16a46.77,46.77,0,0,0,8.53-9.88c.22-.35-.19-.66-.51-.52a164.74,164.74,0,0,0-43.08,28q-5.53,5-10.59,10.46a.37.37,0,0,0,.53.53c13-12.43,30.76-18.14,43.78-30.5a46.44,46.44,0,0,0,8.65-10.94.38.38,0,0,0-.51-.52,200.57,200.57,0,0,0-38.6,30.74Q23.53,47.55,19,52.94a.37.37,0,0,0,.53.53L59.93,16.89c.27-.24,0-.77-.36-.63C43.12,22.91,28.72,33.44,15.11,44.63c-3.94,3.25-7.83,6.56-11.72,9.87-.32.27.11.84.45.59l41.86-31,11.81-8.75c.31-.22.14-.85-.29-.68C39.34,21.85,24.71,34.74,11.44,48.38c-3.84,3.95-7.59,8-11.33,12a.37.37,0,0,0,.53.53L41.93,22.56l11.82-11c.35-.33-.17-.85-.53-.53-13,11.56-26,23.2-37.53,36.28C12.48,51,9.39,54.75,6.46,58.63c-.28.37.29.7.59.46L56.8,19.78,70.91,8.63c.33-.26-.12-.85-.46-.59q-28,21.53-53.86,45.58Q9.25,60.45,2.11,67.47c-.35.34.17.85.53.53q19-17.19,39.18-33,5.88-4.59,11.84-9.08l-.45-.59-41,32.15L.57,66.53l.53.53q28.67-26.37,58-52Q67.41,7.82,75.77.63L75.24.1,36.58,34.38l-11,9.77c-.37.32.17.85.53.53L64.75,10.4l11-9.77c.36-.33-.17-.85-.53-.53Q45.71,25.5,16.84,51.66,8.68,59.07.57,66.53c-.37.34.16.82.53.53L42.15,34.92l11.59-9.08c.33-.25-.12-.84-.46-.58Q32.66,40.74,13.17,57.66,7.59,62.52,2.11,67.47l.53.53Q27.71,43.4,55,21.2q7.83-6.36,15.83-12.51l-.45-.59L20.62,47.41,6.52,58.56l.59.45C17.54,45.19,30,33.05,42.75,21.43c3.64-3.31,7.32-6.59,11-9.86L53.22,11,11.93,49.42.11,60.41l.53.53C13.54,47,26.73,32.83,43,22.75a93.21,93.21,0,0,1,14.43-7.34l-.29-.68-41.85,31L3.46,54.44l.46.59C17.28,43.65,30.78,32.17,46.16,23.55A116.5,116.5,0,0,1,59.76,17l-.36-.63L19,52.94l.53.53a200.06,200.06,0,0,1,36.36-33.4q5.69-4,11.62-7.67L67,11.89C58.18,27.56,40.76,34.67,26.4,44a80.16,80.16,0,0,0-11.77,9.15l.53.53A163.62,163.62,0,0,1,55.74,21.86q6.32-3.51,12.94-6.45l-.51-.51c-8.73,13.74-24.5,20.19-37,29.74a61.76,61.76,0,0,0-9.59,8.9c-.31.37.21.9.53.53A217.11,217.11,0,0,1,62,18.66q6.28-4.32,12.86-8.19l-.45-.59Q53.26,29.26,31,47.4q-6.34,5.18-12.79,10.25l.53.53A459,459,0,0,1,57.47,26.6q5.67-4.14,11.47-8.09l-.45-.59L20.43,59.23c-.37.31.17.84.53.53Z"/></g></g></svg>