<svg xmlns="http://www.w3.org/2000/svg" viewBox="0 0 305.71 54.26"><g id="Layer_2" data-name="Layer 2"><g id="Layer_1-2" data-name="Layer 1"><path d="M44.65,29.65q34.38-.87,68.78-.79T182.2,30q19.38.57,38.75,1.46v-1.5c-28.7-.74-57.4.38-86.07,1.79s-57.14,3.12-85.75,3.52c-16.14.24-32.29,0-48.41-.83v1.5c30.21-1.84,60.43-3.68,90.68-4.7S151.85,30,182,31.37c17,.79,33.94,2.11,50.83,4.06,1,.11.95-1.39,0-1.5q-37.83-4.5-75.75-8.07T81.2,19.62q-21.42-1.5-42.85-2.7v1.5q52.47,1.2,104.94-1.14Q195.42,15,247.3,9.1q29-3.25,57.88-7.62c.83-.13.64-1.57-.2-1.48Q259.3,4.86,213.49,8.31t-91.7,5.51q-26,1.15-51.95,1.86v1.5l74.41-2,74.41-2L260.57,12v-1.5q-33,1.71-65.94,4-32.81,2.33-65.56,5.27Q110.5,21.44,92,23.31a.75.75,0,0,0,0,1.5q47.8,4.79,95.88,6.05,13.6.36,27.2.42a.75.75,0,0,0,0-1.5q-30.9-1.05-61.82-1.34-30.76-.29-61.52.19-17.43.27-34.85.79v1.5l63.81-4.47L184.77,22l36-2.52c1-.06,1-1.56,0-1.5-38.67,2.45-77.39,4.9-115.84,9.82q-16.14,2.06-32.2,4.75c-.85.14-.62,1.47.2,1.47l107.29.82,30.31.23-.2-1.48-103.77,15-29.4,4.25c-.84.12-.63,1.5.2,1.47a622.69,622.69,0,0,0,77-7q10.84-1.71,21.62-3.88c.75-.15.67-1.25,0-1.45a443.91,443.91,0,0,0-102.6-17q-14.89-.71-29.8-.39a.75.75,0,0,0,0,1.5l95.87-1.34,27.31-.38a.75.75,0,0,0,0-1.5Q136.7,22.39,106.67,24T46.79,29.27q-16.72,2-33.36,4.69c-.89.15-.59,1.41.2,1.48q31.32,2.73,62.82,2.62,8.88,0,17.76-.31a.75.75,0,0,0,0-1.5l-11.8-1.07v1.5l77-.78,21.82-.22v-1.5q-46.5,2.93-92.89,7.27Q75.07,42.7,61.82,44.06c-1,.1-1,1.6,0,1.5q46.34-4.77,92.82-8.09,13.28-1,26.56-1.79a.75.75,0,0,0,0-1.5l-77,.78-21.82.22a.75.75,0,0,0,0,1.5l11.8,1.07v-1.5q-31.44.93-62.88-1-8.86-.54-17.7-1.32l.19,1.47A900.39,900.39,0,0,1,133.27,24.46q16.74-.41,33.49-.2v-1.5L70.88,24.1l-27.3.38V26A442.23,442.23,0,0,1,147.26,36.15q14.28,3.14,28.32,7.22V41.92A570.15,570.15,0,0,1,99,51.75q-10.81.68-21.65,1l.2,1.47,103.78-15L210.72,35c.86-.12.62-1.47-.2-1.47l-107.29-.82-30.31-.23.2,1.48c38.16-6.45,76.75-9.79,115.34-12.42q16.14-1.1,32.3-2.1V18L157,22.42,92.84,26.9l-36,2.52c-1,.06-1,1.53,0,1.5q30.9-.92,61.82-1.06,30.77-.15,61.53.47,17.42.36,34.84,1v-1.5q-48-.26-96-4Q105.49,24.66,92,23.31v1.5q32.87-3.31,65.8-6,32.78-2.67,65.6-4.73Q242,12.93,260.57,12c1-.05,1-1.53,0-1.5l-74.4,2-74.41,2L69.84,15.68c-1,0-1,1.53,0,1.5q45.93-1.24,91.79-3.91t91.62-6.72q25.89-2.3,51.73-5L304.78,0Q253,7.85,200.74,12.14q-51.7,4.25-103.61,5-29.38.43-58.78-.24c-1,0-1,1.44,0,1.5q38,2.13,76,5.19t75.85,7q21.35,2.25,42.66,4.78v-1.5a820.05,820.05,0,0,0-90.41-5c-30.26-.14-60.51,1-90.72,2.56-17,.89-34,1.93-51,3a.75.75,0,0,0,0,1.5c28.66,1.55,57.37.93,86-.31s57.15-3.08,85.76-3.94c16.15-.48,32.3-.65,48.45-.23,1,0,1-1.45,0-1.5q-34.35-1.56-68.74-2.18t-68.78-.28q-19.4.18-38.78.68a.75.75,0,0,0,0,1.5Z"/></g></g></svg>