<svg xmlns="http://www.w3.org/2000/svg" preserveAspectRatio="none" viewBox="0 0 649.99 457.83"><g id="Layer_2" data-name="Layer 2"><g id="Layer_1-2" data-name="Layer 1"><path d="M305.29,45.65c-62.56-4.8-124,15.91-177.6,46.87C100.93,108,75.75,126,51.44,145.09c-11.73,9.2-24,18.27-34.61,28.79C7.08,183.55.19,195.09,0,209.14c-.2,14.77,5.05,29.88,10.93,43.24A164.87,164.87,0,0,0,34.55,290.2c18.31,22.38,41,41.44,64.13,58.59A486.32,486.32,0,0,0,251.8,424.63a477.48,477.48,0,0,0,175.46,17.09,485.2,485.2,0,0,0,172.81-48.55c12.79-6.36,26.39-12.83,34.89-24.78,8.07-11.36,11.5-25.74,13.46-39.33,4.13-28.72-.17-58-9.35-85.34C629.76,216,615.62,190,599,166a395.47,395.47,0,0,0-52.4-61.31c-39.74-37.86-87.45-67.42-139.47-85.1A368,368,0,0,0,226.7,5.3a350.93,350.93,0,0,0-43.37,10.43c-1.84.57-1.05,3.46.8,2.89C241.57.89,303.29-1.6,362.14,10.47A370.79,370.79,0,0,1,512.29,79.28C555,111.84,591.41,153.56,617,200.81c13.87,25.63,24.49,53.46,28.44,82.44a164.3,164.3,0,0,1,.35,43.24c-1.81,13.9-5.14,28.79-13.4,40.38C623.7,379,609,385.46,596,391.83q-20.19,9.9-41.27,17.82a484.47,484.47,0,0,1-85.18,23.42,476.88,476.88,0,0,1-175.36-1.21,483.47,483.47,0,0,1-155.75-60.07,473.73,473.73,0,0,1-68-49.54c-21.89-19.17-42.36-40.68-55-67.19C8.92,241.4,3.18,225.6,3,210.3s8.1-27.15,19-37.16,22.43-18.78,33.9-27.72C68,136,80.32,126.81,93,118.09c50.19-34.54,106.77-62.33,168-68.78a244.19,244.19,0,0,1,44.26-.66c1.92.14,1.92-2.86,0-3Z"/><path d="M307.77,39.18a260.4,260.4,0,0,0-91,1.93c-30.31,6-58.84,17.74-85.33,33.56C103.14,91.59,76.22,111,48.89,129.43c-7,4.72-14,9.4-20.93,14.15-5.55,3.8-11.08,7.85-15.21,13.24-8.39,11-9.91,25.43-9.3,38.79,2.56,55.57,42,100.53,78.81,138.47C92.86,345,103.44,356.09,115,366c11.78,10.1,24.77,18,38.6,25a761.3,761.3,0,0,0,86.69,37.39c57.3,20.38,118.33,32.64,179.34,28.69,55.89-3.62,111.8-20.44,157.51-53.44,22-15.9,42-35.62,54.62-59.89a105.26,105.26,0,0,0,11.74-37.44c1.55-14.57-1-29-5.93-42.69-9-25-22.9-48.75-38.06-70.47a382.4,382.4,0,0,0-50-58.11,386.43,386.43,0,0,0-130-81.68A373.78,373.78,0,0,0,339,33.2c-33-4.54-66.33-5.35-99.58-4.91-16.29.21-32.58.72-48.86,1.24-1.93.06-1.94,3.06,0,3,63.38-2,128-4,189.94,11.72A381.34,381.34,0,0,1,615,223.32c13.58,23.91,27.54,50.79,25.83,79.06-1.65,27.29-16.37,52.2-34.56,71.87-37.33,40.37-91.15,64.27-144.44,74.48-57.81,11.08-117.31,6.1-174-8.74a621.32,621.32,0,0,1-87.22-30.37q-21.19-9.11-41.87-19.38c-14-6.92-27.43-14.48-39.46-24.5-11.39-9.5-21.71-20.24-32.07-30.84-9.4-9.63-18.67-19.4-27.5-29.57C42,284.89,25.54,262.51,15.6,237.13a131.71,131.71,0,0,1-9-39c-.92-13.74.07-29.2,9.18-40.31,4.66-5.68,10.9-9.75,16.93-13.83L53,130.27l41.14-27.79C120,85,146,67.62,175.2,56.32a257.35,257.35,0,0,1,88.13-17.24,254,254,0,0,1,43.64,3c1.89.29,2.7-2.6.8-2.9Z"/></g></g></svg>