<svg xmlns="http://www.w3.org/2000/svg" viewBox="0 0 272.41 181.68"><g id="Layer_2" data-name="Layer 2"><g id="Layer_1-2" data-name="Layer 1"><path d="M2.19,181.42l48.05-32.79L98.09,116l48.06-32.79L194,50.52l48.06-32.79,6-4.09c1.58-1.08.08-3.68-1.52-2.59l-48,32.8L150.61,76.5l-48.05,32.8L54.71,142l-48,32.8-6,4.08c-1.58,1.08-.08,3.68,1.52,2.59Z"/><path d="M207.08,3.29l45.56-.23L263.85,3c2.47,0,6.21-.15,5.49,3.39a16.55,16.55,0,0,1-1.72,4.15L265,15.9l-5,10L248.56,48.87c-.86,1.72,1.73,3.24,2.59,1.51L262,28.55l5.32-10.69L270,12.51a26.52,26.52,0,0,0,2.16-4.95c.76-2.92-.15-5.91-3.16-7A11.89,11.89,0,0,0,264.84,0l-6,0-24.4.12L207.08.29a1.5,1.5,0,0,0,0,3Z"/></g></g></svg>