<svg xmlns="http://www.w3.org/2000/svg" viewBox="0 0 288.62 166.52"><g id="Layer_2" data-name="Layer 2"><g id="Layer_1-2" data-name="Layer 1"><path d="M.76,2.77,53,29.54l52.49,26.88,52.24,26.77L210,110l52.48,26.89,6.44,3.3c1.72.88,3.24-1.71,1.52-2.59l-52.25-26.77L165.69,83.9,113.44,57.13,61.2,30.37,8.71,3.48,2.27.18C.56-.7-1,1.89.76,2.77Z"/><path d="M262.08,87.35,273.49,115l5.62,13.6c1.79,4.34,3.79,8.65,5.29,13.11,1.2,3.6,2.12,7.91-.2,11.29-2.05,3-6,4.11-9.31,4.91a208.69,208.69,0,0,1-28.24,4.56,231,231,0,0,1-32.75.8c-1.93-.09-1.92,2.91,0,3a231.42,231.42,0,0,0,60.25-5.12c3.69-.81,7.53-1.81,10.5-4.27a11.71,11.71,0,0,0,3.88-10.58c-.52-4.56-2.51-8.77-4.25-13L278.38,119,265,86.55c-.73-1.76-3.63-1-2.89.8Z"/></g></g></svg>