<svg xmlns="http://www.w3.org/2000/svg" viewBox="0 0 82.63 65.2"><g id="Layer_2" data-name="Layer 2"><g id="Layer_1-2" data-name="Layer 1"><path d="M9.55,55.24a384.74,384.74,0,0,1,42.52-40.4q6.6-5.37,13.45-10.46c.38-.28,0-.93-.38-.64Q40.21,21.88,17.08,42.35q-6.51,5.76-12.86,11.7c-.3.29.11.85.45.59L54.49,16.78,68.58,6.07c.37-.29,0-.93-.38-.65A437.62,437.62,0,0,0,22.74,42.6q-6.12,5.74-12,11.71c-.34.35.17.84.53.53l43.2-36L66.68,8.63c.37-.31-.16-.83-.53-.53Q42.77,27,21.34,48.09q-6,5.94-11.85,12a.38.38,0,0,0,.53.53q22.23-20.2,45.42-39.3,6.62-5.45,13.29-10.79c.33-.27-.1-.83-.45-.59a366.78,366.78,0,0,0-42,33.86q-5.67,5.31-11.1,10.86a.38.38,0,0,0,.46.59C33,45.5,50.49,35.55,65.25,22.08A115.94,115.94,0,0,0,76.94,9.8a.38.38,0,0,0-.45-.59A158.12,158.12,0,0,0,35.42,39.76q-5.12,5.3-9.72,11.05a.38.38,0,0,0,.53.53L70.11,11.81,82.52.63,82,.1,27.12,50.39,11.66,64.56l.53.53C27.37,50.71,42.7,36.45,58.62,22.87q6.75-5.75,13.63-11.33c.33-.26-.11-.84-.45-.59L16,51.38.19,62.8l.45.59L52.38,19,67,6.42c.37-.32-.16-.82-.53-.53L19.66,42.63,6.29,53.12c-.34.27.09.79.45.59C25.92,43,43.79,30.25,61.28,17.05q7.45-5.62,14.85-11.33l-.45-.59L33.42,42.91,21.32,53.73c-.36.32.17.85.53.53L64.11,16.48,76.21,5.66c.31-.27-.11-.85-.45-.58C58.35,18.41,40.92,31.78,22.38,43.52q-7.87,5-16,9.55l.45.59L53.6,16.92,67,6.42l-.53-.53L14.7,50.33.11,62.86c-.32.28.11.84.46.59L56.4,23,72.18,11.6,71.72,11C55.45,24.17,39.87,38.15,24.57,52.42q-6.48,6-12.91,12.14c-.35.34.17.86.53.53L67.05,14.81,82.52.63C82.87.3,82.34-.22,82,.1L38.11,39.64,25.7,50.81l.53.53A157.72,157.72,0,0,1,64.3,17.09q6.11-3.9,12.57-7.24l-.46-.58C63.74,24.74,47,36.11,30,46.21c-4.86,2.88-9.76,5.66-14.67,8.44l.45.59A363.83,363.83,0,0,1,56.27,19.6q6.09-4.62,12.39-9l-.46-.59Q44.77,28.82,22.25,48.71,15.83,54.38,9.49,60.14l.53.53A598.84,598.84,0,0,1,53.67,19.42q6.44-5.49,13-10.79l-.53-.53L23,44.12,10.71,54.31l.53.53a439.59,439.59,0,0,1,44-38.92q6.57-5.05,13.32-9.85l-.38-.65L18.39,43.28,4.3,54l.45.59q22.46-21,46.84-39.78Q58.47,9.5,65.52,4.38l-.38-.64A384.5,384.5,0,0,0,20.62,42.42q-5.94,6-11.6,12.29c-.32.36.21.89.53.53Z"/></g></g></svg>