<svg xmlns="http://www.w3.org/2000/svg" viewBox="0 0 75.86 68.68"><g id="Layer_2" data-name="Layer 2"><g id="Layer_1-2" data-name="Layer 1"><path d="M34.13,29,71.59,1.43c.76-.56.06-1.84-.76-1.3L19.06,35,4.41,44.86a.75.75,0,0,0,.76,1.29A298.4,298.4,0,0,0,54.24,16Q60.62,11.2,66.71,6c.75-.62-.32-1.66-1.06-1.06L17,44.26c-.7.57.2,1.53.91,1.18A316.88,316.88,0,0,0,57.93,22.33q5.43-3.69,10.71-7.6a.75.75,0,0,0-.76-1.29A219.71,219.71,0,0,0,19.07,42.85c-.66.52.23,1.7.91,1.18L68.35,7.16c.74-.56.06-1.84-.76-1.29A469.7,469.7,0,0,0,25.52,37.42q-5.81,4.88-11.43,9.94c-.65.58.18,1.58.91,1.17A281.53,281.53,0,0,0,61.61,16Q67.7,10.73,73.49,5.13c.71-.68-.33-1.66-1.06-1.06L29.94,39.16l-12.11,10c-.68.56.19,1.56.91,1.18a248.79,248.79,0,0,0,39-25.47q5.18-4.12,10.13-8.52c.64-.56-.2-1.66-.9-1.18L17.67,48.49l.76,1.3L59.26,20.6l11.57-8.28-.9-1.18L21.63,49.27c-.67.52.2,1.63.91,1.17A465.22,465.22,0,0,0,64.38,20.17q5.7-4.62,11.25-9.42L74.57,9.69A379.19,379.19,0,0,1,37.2,44.11q-5.75,4.62-11.68,9l.75,1.29L59.34,29.13c.75-.57.06-1.85-.76-1.3L13.18,58.6.38,67.27l.91,1.17L36.81,38.37c.67-.57-.18-1.59-.91-1.18l-27,15.08.91,1.18L29.45,35.76c.63-.56-.2-1.65-.91-1.17L3.06,51.76,4,52.94,26.36,33.49c.74-.63-.33-1.68-1.06-1.06L11.07,44.59c-.64.54.21,1.67.91,1.17L57.44,13.61,70.28,4.52l-.75-1.29L19.36,40.73a.75.75,0,0,0,.76,1.3L24,40c.85-.46.1-1.76-.75-1.3l-3.86,2.08.76,1.3L70.28,4.52c.76-.56,0-1.86-.75-1.29L24.06,35.38,11.22,44.47l.91,1.18L26.36,33.49,25.3,32.43,2.91,51.88c-.64.55.2,1.65.91,1.18L29.3,35.88l-.91-1.18L8.77,52.39C8.13,53,9,54,9.68,53.56l27-15.08-.91-1.18L.23,67.38c-.65.55.2,1.66.91,1.18L46.54,37.8l12.8-8.67-.76-1.3L25.52,53.13c-.76.57,0,1.87.75,1.29a381,381,0,0,0,39-33.19q5.28-5.13,10.34-10.48a.75.75,0,0,0-1.06-1.06A465,465,0,0,1,33.81,41.16q-6,4.08-12,8l.91,1.18L71,12.2c.66-.52-.22-1.67-.91-1.17L29.25,40.21,17.67,48.49c-.77.56-.05,1.84.76,1.3L67.71,16.47l-.91-1.18A246.58,246.58,0,0,1,29.53,42.57Q23.85,46,18,49l.91,1.18L61.38,15.13l12.11-10L72.43,4.07A279.05,279.05,0,0,1,28.07,39q-6.8,4.32-13.83,8.23l.91,1.18a464,464,0,0,1,40.92-32.8q6.06-4.32,12.28-8.46l-.76-1.29L19.22,42.73l.91,1.18A218.41,218.41,0,0,1,68.64,14.73l-.76-1.29A317,317,0,0,1,28.81,38.19q-5.79,3.11-11.7,6L18,45.32,66.71,6,65.65,5A296.87,296.87,0,0,1,18.79,37.35q-7.08,3.94-14.38,7.51l.76,1.29L57,11.29,71.59,1.43,70.83.13,33.38,27.72c-.77.57,0,1.87.75,1.29Z"/></g></g></svg>