<svg xmlns="http://www.w3.org/2000/svg" preserveAspectRatio="none" viewBox="0 0 190.03 6.75"><g id="Layer_2" data-name="Layer 2"><g id="Layer_1-2" data-name="Layer 1"><path d="M1.88,5.73C25.9,1.56,50.39,3,74.58,4.52,86.75,5.27,98.92,6,111.12,6.15c6.08.06,12.16-.05,18.23-.42,6.22-.37,12.42-1.08,18.65-1.43a100.85,100.85,0,0,1,20.9,1.17c6.66,1,13.37,2,20,.59,1.89-.39,1.09-3.28-.8-2.89-6,1.23-12,.39-18-.52a104.07,104.07,0,0,0-18.23-1.5c-6.26.14-12.49.84-18.72,1.32s-12.17.67-18.26.69C90.58,3.24,66.31.37,41.94,0A221.79,221.79,0,0,0,1.08,2.83c-1.89.33-1.09,3.23.8,2.9Z"/></g></g></svg>