<svg xmlns="http://www.w3.org/2000/svg" preserveAspectRatio="none" viewBox="0 0 477.45 464.05"><g id="Layer_2" data-name="Layer 2"><g id="Layer_1-2" data-name="Layer 1"><path d="M157.51,14.33C117.12,26,80.83,50.16,53.42,81.93A218.16,218.16,0,0,0,1.63,200c-3.07,27.16-1.58,54.68,2.62,81.64,3.79,24.27,9.68,48.4,19.55,71,9.58,21.91,23.15,41.85,41,57.85,17.35,15.54,37.87,27.29,59.57,35.6,24.6,9.42,50.73,14.31,76.92,16.45a448.38,448.38,0,0,0,79.77-.55c24.88-2.44,49.7-7.67,72.5-18.14,20.55-9.44,38.81-23.22,54.31-39.61s28.21-35.06,38.74-54.87c11.61-21.83,21.22-45.24,26.69-69.39a161.35,161.35,0,0,0-1-76.91c-6.44-24.75-17.76-47.95-30.15-70.21-12-21.53-24.37-43.21-39-63.08C389,50.62,372.14,33.6,351.21,22,305.29-3.49,250.78-2.7,200.22,4c-13.59,1.79-27.12,4-40.64,6.15-1,.16-.55,1.6.4,1.45,52.19-8.44,106.68-17,158.47-1.58,23.28,6.94,44.61,18.77,62.05,35.77C397.62,62.42,410.81,82.59,423,103c25.33,42.22,52.66,88.18,53.11,138.92.23,26.45-7,52.38-16.84,76.71a297,297,0,0,1-32.18,59.68c-12.87,18.21-28.29,34.8-46.39,47.91-19.31,14-41.36,23.26-64.54,28.66-24.71,5.75-50.2,7.41-75.52,7.56-27.05.16-54.25-1.62-80.73-7.38C113.64,445,68.85,421.6,41.54,381.78,28,362.05,19,339.54,13,316.49a348,348,0,0,1-11.3-77.07c-.84-25.89,1.61-52,9-76.94a212.93,212.93,0,0,1,26.2-56.11A222.79,222.79,0,0,1,129.2,26.45a205.67,205.67,0,0,1,28.7-10.67.75.75,0,0,0-.39-1.45Z"/><path d="M157.78,15.77a93.6,93.6,0,0,1,22.08-2,.75.75,0,0,0,0-1.5,94.89,94.89,0,0,0-22.48,2.1c-.94.2-.54,1.65.4,1.45Z"/></g></g></svg>