<svg xmlns="http://www.w3.org/2000/svg" viewBox="0 0 279.18 121.32"><g id="Layer_2" data-name="Layer 2"><g id="Layer_1-2" data-name="Layer 1"><path d="M30,91.4,126.9,46.34l27.24-12.68-.38-.65L100.28,61.42,46.55,90,16.37,106c-.37.19-.12.83.29.68q26-9.37,51.86-19.12t51.58-19.9Q145.81,57.51,171.37,47q25.35-10.43,50.55-21.24,25.41-10.89,50.64-22.17Q275.78,2.15,279,.7c.39-.17.12-.82-.29-.68A947.05,947.05,0,0,0,184.36,37.6q-13,6-25.86,12.44c-.44.22-.05.83.38.64L236.46,17l22-9.53c.39-.18.11-.8-.29-.69q-26.18,7.47-52,16t-51.35,18q-25.37,9.48-50.34,20T55,82.59q-24.66,11.52-48.84,24l-6,3.12a.38.38,0,0,0,.29.69L73.4,86.74l72.66-23.57L187,49.88l-.2-.73q-31.31,12.06-62,25.56T63.85,103.23q-17,8.46-33.82,17.38c-.37.2-.11.84.29.69l53.12-20,52.86-19.9,29.95-11.26-.29-.69L131.78,84.85c-.34.15-.17.72.19.7A100.85,100.85,0,0,0,173.62,73.3c.42-.23,0-.88-.38-.64A100,100,0,0,1,132,84.8l.19.7,34.18-15.39c.38-.17.11-.84-.29-.69l-53.12,20L60.07,109.3,30.12,120.57l.29.69q29.59-15.7,59.9-30Q120.81,76.84,152,63.9q17.43-7.24,35-14c.44-.17.27-.88-.2-.73L113.89,72.82,41.23,96.4l-41,13.29.29.68Q24.56,97.83,49,86.23T98.45,64q25.11-10.68,50.64-20.36,25.33-9.6,51-18.18t51.7-16.13l6.51-1.88L258,6.81,180.45,40.5,158.5,50l.38.64a946,946,0,0,1,93-40.36q13.44-5,27-9.58l-.28-.68q-25.1,11.25-50.35,22.15-25.59,11-51.34,21.68-25.41,10.52-51,20.65T74.66,84.43q-25.84,9.79-51.83,19.22L16.46,106l.29.68,53.48-28.4L124,49.69l30.18-16c.43-.23.05-.85-.38-.65L56.9,78.08,29.65,90.75c-.43.2,0,.85.38.65Z"/></g></g></svg>