<svg xmlns="http://www.w3.org/2000/svg" viewBox="0 0 374.74 138.32"><g id="Layer_2" data-name="Layer 2"><g id="Layer_1-2" data-name="Layer 1"><path d="M82.73,59.1A902.25,902.25,0,0,0,186.15,28.15q14.34-5.25,28.51-11l-1.16-2.74Q153.51,45.11,91.24,71,73.73,78.27,56.08,85.15l1.15,2.74Q99,68.3,141.86,51.39q42.73-16.83,86.48-30.92,24.54-7.9,49.37-14.94c1.87-.53,1.08-3.25-.8-2.89Q228.28,12.12,180.18,24q-24,6-47.93,12.52C116.88,40.77,101.48,45,86.31,49.92,70.11,55.16,54.13,61.5,39.75,70.74a1.51,1.51,0,0,0,1.16,2.74Q76.81,64,112.85,55t72.21-17.47q20.41-4.77,40.87-9.38l-1.16-2.74-42,26.71A1.51,1.51,0,0,0,184,54.81l74.09-20.27,73.73-20.16L373.67,2.92c1.88-.51,1.08-3.24-.8-2.89-25.36,4.78-50.5,10.67-75.39,17.51S248,32.14,223.63,40.63s-48.58,17.74-72.52,27.49S103.53,88.11,80,98.69,32.91,120.27,9.52,131.4q-4.38,2.07-8.75,4.17l1.51,2.59L88,95.67q42.63-21.14,85.24-42.25c14.54-7.18,29.9-14.37,46.48-13.94,1.93,0,1.93-3,0-3-14.46-.37-28.14,4.88-41,11-14.35,6.77-28.48,14-42.7,21.09l-86.4,42.82L.77,135.57c-1.74.86-.22,3.41,1.51,2.59q34.89-16.66,70.06-32.74c23.57-10.7,47.29-21.1,71.23-31s48-19.25,72.37-27.93C240.14,37.9,264.59,30,289.3,22.94S339,9.79,364.15,4.77c3.17-.64,6.34-1.25,9.52-1.85L372.87,0,298.78,20.3,225.05,40.46,183.17,51.92l1.15,2.74,42-26.71a1.51,1.51,0,0,0-1.16-2.74q-36.24,8.16-72.35,16.86T80.68,60q-20.31,5.2-40.57,10.59l1.15,2.74c12.85-8.25,27-14.17,41.39-19,14.87-5,30-9.19,45.13-13.39q47.57-13.21,95.74-24,27-6.06,54.19-11.35l-.8-2.89q-44.54,12.62-88.2,28.05Q145.41,46,103.11,64.07,79.23,74.26,55.72,85.3c-1.52.72-.43,3.36,1.16,2.74Q120,63.44,181.09,33.9,198.15,25.65,215,17c1.48-.76.43-3.38-1.16-2.74A904.74,904.74,0,0,1,111.55,48.72q-14.74,4-29.62,7.49c-1.88.44-1.09,3.34.8,2.89Z"/></g></g></svg>