<svg xmlns="http://www.w3.org/2000/svg" preserveAspectRatio="none" viewBox="0 0 351.44 280.91"><g id="Layer_2" data-name="Layer 2"><g id="Layer_1-2" data-name="Layer 1"><path d="M172.88,7.74A211.34,211.34,0,0,0,123.46,12a185.8,185.8,0,0,0-46.6,16.15A153.42,153.42,0,0,0,37.34,56.69,127.63,127.63,0,0,0,11,95.38,131.17,131.17,0,0,0,.22,139.92a113,113,0,0,0,6.17,45,101.19,101.19,0,0,0,25.94,39.13c12.35,11.66,27.09,20.52,42.5,27.5a309.73,309.73,0,0,0,52.45,17.79,378.43,378.43,0,0,0,59.52,10c19.66,1.71,39.68,2.18,59.35.32,17.89-1.7,35.91-6,50.85-16.42,13.35-9.29,23.57-22.47,30.84-36.91a143.41,143.41,0,0,0,13.86-46.54,161.7,161.7,0,0,0-1.34-48.41,165.17,165.17,0,0,0-15.37-46A151.82,151.82,0,0,0,257.55,18,166,166,0,0,0,211.74,2.61a161.05,161.05,0,0,0-48.26-1.43A152.43,152.43,0,0,0,140.7,5.77a.75.75,0,0,0,.4,1.44c30.78-8.7,64-7.23,94.19,3,30.4,10.33,57.49,29.65,76.2,55.84a163,163,0,0,1,29.87,89.74c.87,31.86-7.65,65.92-28.41,90.73A81.68,81.68,0,0,1,270.8,273.8c-18,5.11-37,5.7-55.58,5.49A374.13,374.13,0,0,1,98.83,259.42c-31.18-10.63-63-26.9-81.38-55.4C.85,178.28-2,145.8,5.37,116.51A129.14,129.14,0,0,1,24.2,74.77,136.06,136.06,0,0,1,58.07,41.16C84.73,22.41,117,12.37,149.29,9.8a215.92,215.92,0,0,1,23.59-.56c1,0,1-1.47,0-1.5Z"/><path d="M172.48,15.08c-30.69-7.55-63.54-2.89-91.74,11A140.2,140.2,0,0,0,15.56,93.59,159.23,159.23,0,0,0,4.1,188.81c3,15.92,8.43,32,18.37,45a60.72,60.72,0,0,0,17.6,15.73c7.63,4.42,16.14,7.08,24.72,8.89,9.14,1.93,18.46,3,27.73,4.14q15.24,1.82,30.56,3.05,31,2.47,62.05,2.5c19.57,0,39.23-.49,58.73-2.2,16.23-1.42,32.65-4,47.73-10.43a77.65,77.65,0,0,0,36.29-30.95C336.6,210.36,341.35,194.1,345,178c4.17-18.69,7.28-37.9,6.31-57.1-.86-17-5.29-33.62-14-48.34C321.66,46.06,295,27.38,266.59,16.79c-35.83-13.34-75-13.85-112.76-12.06-9.65.45-19.29,1.07-28.93,1.7-1,.06-1,1.57,0,1.5,38.64-2.51,78-5.07,116.23,3.1,30.37,6.51,59.75,20.67,81,43.72A103.11,103.11,0,0,1,344.9,93.11c5.78,18.12,5.94,37.46,3.65,56.19-1.17,9.5-3,18.93-5.05,28.27A217.45,217.45,0,0,1,337,201.36c-5.37,15.49-13.43,30.32-26.2,40.93-12.4,10.31-27.94,15.84-43.58,19-17.08,3.4-34.63,4.19-52,4.84a788.41,788.41,0,0,1-120.67-4.77c-17.71-2.07-36.8-3.69-52.68-12.5-14.49-8-24-22.17-29.86-37.36C.48,181.57.13,147.23,8.74,116.57,17.42,85.63,35.83,57.74,62.12,39c25.19-17.95,56.45-27.59,87.42-25.86a122.44,122.44,0,0,1,22.54,3.37c.94.23,1.34-1.21.4-1.44Z"/></g></g></svg>