<svg xmlns="http://www.w3.org/2000/svg" viewBox="0 0 295.96 321.28"><g id="Layer_2" data-name="Layer 2"><g id="Layer_1-2" data-name="Layer 1"><path d="M60.65,245.52a580.17,580.17,0,0,0,61.77-45.93,579,579,0,0,0,55.23-53.86q14.43-16.09,27.63-33.24c.92-1.2-.87-2.87-2.05-2.06C173.8,130.66,149,156.57,125,182.73q-39.84,43.34-79.52,86.78L.41,318.68c-1.3,1.43.81,3.55,2.12,2.13l57.32-62.24,57.1-62,57.1-62,57.32-62.23,57.1-62,7.11-7.72L293.46.48,233.93,70.94l-59.34,70.21-33.46,39.6a1.5,1.5,0,0,0,2.12,2.12A860.77,860.77,0,0,0,219,108.72q10.08-11.16,19.75-22.65a1.5,1.5,0,0,0-2.12-2.13q-44.23,38.22-85.85,79.34-41.37,40.88-80,84.45Q49.2,272.15,28.51,297.35c-1.2,1.47.8,3.57,2.13,2.12q37-40.19,74.49-79.88t75.8-79.09q21.42-22.05,43-43.93l-2.35-1.82q-26.84,37.65-55.53,73.94t-59,70.9q-17.17,19.6-34.89,38.72a1.5,1.5,0,0,0,2.13,2.12q32.1-31.38,62.8-64.17T197,149.34q16.45-19.25,32.42-38.89c1.2-1.47-.85-3.6-2.12-2.12L167,178.11l-60,69.54L73.13,286.88c-1.25,1.45.84,3.57,2.12,2.12l42.28-47.66,21.25-24c6.48-7.31,12.83-14.77,19.58-21.84,6.95-7.28,14.6-14,23.87-18.13l-2.06-2a584.14,584.14,0,0,1-31.53,60.8q-5,8.45-10.34,16.72c-1,1.5,1.13,2.92,2.35,1.82q41.52-37.07,80.43-76.92,11-11.31,21.87-22.85c1.1-1.18-.41-3.43-1.82-2.35l-70.72,53.74L150.2,221.69l1.82,2.36,44-55.13,44.18-55.38L265,82.49c1.17-1.47-.78-3.57-2.12-2.12q-38.85,42.07-76.2,85.49T113.51,254Q93.39,279.1,73.79,304.62c-1,1.35,1.22,3.05,2.36,1.82L135,242.7l16.61-18a1.5,1.5,0,0,0-2.12-2.12l-29.8,25.47c-1.47,1.25.66,3.37,2.12,2.12l29.8-25.47-2.12-2.12L90.64,286.34,74,304.31l2.35,1.82q35-45.48,71.54-89.71,36.29-43.9,74.11-86.51Q243.26,106,265,82.49l-2.12-2.12-44,55.13-44.18,55.38L149.9,221.93c-1,1.19.34,3.48,1.82,2.35l70.72-53.75,20.2-15.35-1.81-2.36q-38.1,40.58-78.91,78.48-11.59,10.75-23.39,21.29l2.36,1.82a588.4,588.4,0,0,0,33.56-59.7q4.31-8.85,8.31-17.83a1.51,1.51,0,0,0-2-2c-17,7.59-28.87,23.32-40.9,36.88l-42.49,47.9L73.13,286.88,75.25,289l60.24-69.78,60-69.55,33.86-39.22-2.12-2.12q-28.32,34.85-58.17,68.41t-61.16,65.74q-17.65,18.14-35.76,35.83l2.13,2.12q31.54-34,61.37-69.66t57.68-72.49q15.72-20.79,30.84-42c1-1.4-1.18-3-2.36-1.81q-38.35,38.86-76.18,78.27T70.31,252.26q-21,22.47-41.8,45.09l2.13,2.12q37.1-45.17,77.15-87.81,39.83-42.39,82.43-82,23.85-22.23,48.54-43.54l-2.12-2.13a860.65,860.65,0,0,1-73.12,76.76q-11,10.22-22.39,20.05l2.12,2.12,59.54-70.46L262.12,42.2,295.58,2.6c1.23-1.45-.79-3.56-2.12-2.12L236.14,62.72l-57.1,62-57.1,62L64.62,249,7.52,311,.41,318.68l2.12,2.13,79.8-87.11q19.88-21.67,39.73-43.36c12-13.1,24.05-26.17,36.71-38.62,14.3-14.06,29.43-27.33,46-38.69L202.69,111A572.92,572.92,0,0,1,152,168.28a573.68,573.68,0,0,1-57.78,50.11q-17.1,12.92-35.12,24.54c-1.62,1-.12,3.64,1.51,2.59Z"/></g></g></svg>