<svg xmlns="http://www.w3.org/2000/svg" preserveAspectRatio="none" viewBox="0 0 337.95 290.44"><g id="Layer_2" data-name="Layer 2"><g id="Layer_1-2" data-name="Layer 1"><path d="M163.75,14.75C131.21,10.92,97.35,17,68.62,32.94A133.5,133.5,0,0,0,7.76,103.68,125,125,0,0,0,0,149.87a114.38,114.38,0,0,0,10.61,44.79c13,28.16,36.57,50.92,63.85,65.29,32.26,17,69.4,22.8,105.55,21.68,33.59-1,68.88-7.31,97.17-26.5C302.88,237.72,319.46,210,325,179.64a128.41,128.41,0,0,0,.18-45.22,133.39,133.39,0,0,0-15.91-43.06c-15.52-27-39.63-48.93-67.48-62.72-32.23-16-69-21.42-104.65-18.52a237.5,237.5,0,0,0-25.73,3.55c-.94.18-.54,1.62.4,1.44,35-6.75,71.78-5.76,105.78,5.3,30.25,9.84,57.54,28,77.5,52.84,19.2,23.92,30.82,53.65,30.51,84.49-.31,29.92-11.21,60.13-32.11,81.83-23.2,24.09-56.51,34.83-89,38.74-35.14,4.23-71.9,2.22-105.52-9.42-30.1-10.43-57.4-29.27-75.79-55.53A120.06,120.06,0,0,1,4.36,171.92a115.18,115.18,0,0,1-1-46.12A130.65,130.65,0,0,1,50.61,46.69C76,26.63,108.23,16.08,140.4,15.19a162.65,162.65,0,0,1,23.35,1.06c.95.11.95-1.39,0-1.5Z"/><path d="M166.13,19.67c-33-8.88-69.06-1.44-97.31,17.38-26.89,17.91-47.1,45.39-58,75.68-6.11,17-9.17,35.44-6.86,53.49,2,15.84,8.19,30.91,17,44.19,18.78,28.37,48.26,47,79.35,59.42a314.25,314.25,0,0,0,53.5,16.22c18.14,3.72,36.83,5.48,55.31,3.69a151,151,0,0,0,82.69-34.83A133.4,133.4,0,0,0,321.11,220a127.33,127.33,0,0,0,15.33-44.21c4.68-30.64-1.47-63.18-19.46-88.72-19.4-27.54-49.35-45.37-78.7-60.6C206.19,9.84,170.46-3.77,133.67.94a102.1,102.1,0,0,0-25.09,6.45c-.88.35-.49,1.81.4,1.45,34.25-13.78,72.27-6.27,105.11,7.77A398.62,398.62,0,0,1,260.56,40.5c14.09,8.35,27.68,17.74,39.46,29.17a118.66,118.66,0,0,1,27,38.61,122,122,0,0,1,9.41,45,127.43,127.43,0,0,1-29.93,84.89C287.05,261,260,277.09,231,284.43c-34.81,8.79-70.87,3.36-104.69-7.07-32.32-10-64.67-24.3-88.68-48.81a119.57,119.57,0,0,1-26.14-39.43,98.34,98.34,0,0,1-5.72-49.94c2.4-17.24,8.6-33.89,17-49.08A153.67,153.67,0,0,1,51.47,52.8C75.56,30,107.88,16.37,141.25,17.48a107.69,107.69,0,0,1,24.48,3.64.75.75,0,0,0,.4-1.45Z"/></g></g></svg>