<svg xmlns="http://www.w3.org/2000/svg" preserveAspectRatio="none" viewBox="0 0 320.48 26.69"><g id="Layer_2" data-name="Layer 2"><g id="Layer_1-2" data-name="Layer 1"><path d="M25.24,17q57.38-4.53,114.87-6.94,57.18-2.4,114.41-2.67,32.25-.17,64.5.36a1.51,1.51,0,0,0,.4-2.95C300.06-.68,279.76-.81,259.88,1.17c-20.38,2-40.51,6-60.75,9q-31.47,4.7-63.18,7.75Q104.39,21,72.68,22.43T9.26,23.66c-2.6,0-5.21,0-7.81-.07a1.5,1.5,0,0,0,0,3Q33,27,64.56,25.77t63-4q31.33-2.82,62.49-7.21c20.52-2.9,40.91-6.84,61.48-9.41,19.84-2.48,40.22-3.49,59.9.78,2.42.53,4.82,1.14,7.2,1.81l.4-2.94q-57.54-.91-115.08.3Q146.73,6.28,89.59,9.59,57.39,11.47,25.24,14c-1.91.15-1.92,3.15,0,3Z"/></g></g></svg>