<svg xmlns="http://www.w3.org/2000/svg" viewBox="0 0 87.42 74.57"><g id="Layer_2" data-name="Layer 2"><g id="Layer_1-2" data-name="Layer 1"><path d="M17.66,50.56,58,17.18,69.49,7.64,67.37,5.52a334.07,334.07,0,0,1-50.6,47.92q-7.83,6-16,11.5l1.82,2.35L64.68,16.64,82,2.48C83.53,1.26,81.4-.85,79.91.36,59,17.38,39.77,36.31,21,55.61Q13,63.8,5.08,72.06c-1.36,1.41.66,3.35,2.13,2.12C25,59.29,42.82,44.36,58.85,27.55q6.8-7.11,13.07-14.69a1.5,1.5,0,0,0-2.12-2.12L22.26,51.65,8.82,63.22c-1.49,1.28.63,3.29,2.12,2.13Q36.5,45.22,62.65,25.86q7.46-5.52,15-11c1.55-1.13.06-3.73-1.51-2.59Q50.21,31,26.09,51.92q-6.85,6-13.54,12.11c-1.43,1.31.69,3.4,2.12,2.12Q41.37,42.3,70.14,20.89,78.32,14.83,86.64,9L84.83,6.6Q62.77,24.2,42.15,43.51,36.27,49,30.51,54.67c-1.38,1.36.72,3.44,2.13,2.12A391.3,391.3,0,0,1,76.89,21l-1.82-2.36L30.68,58.72,18.1,70.09l2.12,2.12C33.48,58.28,46.91,44.29,62.5,32.92a146.76,146.76,0,0,1,13.61-8.85l-1.82-2.36-45,39c-1.27,1.11.41,3.34,1.82,2.36l27.1-19c1.57-1.1.07-3.7-1.51-2.59L29.62,60.51l1.82,2.35,45-39c1.31-1.13-.37-3.18-1.82-2.35-16.89,9.69-31.4,22.88-45,36.69-3.87,3.93-7.68,7.92-11.49,11.92a1.5,1.5,0,0,0,2.12,2.12L64.61,32.08,77.19,20.71c1.25-1.13-.41-3.34-1.82-2.36A398,398,0,0,0,30.51,54.67l2.13,2.12Q52.77,37,74.45,18.92,80.65,13.75,87,8.73c1.32-1.06-.43-3.34-1.82-2.36Q55.54,27.21,27.91,50.65,20.14,57.24,12.55,64l2.12,2.12Q38,44.76,63.2,25.54q7.14-5.43,14.41-10.66L76.1,12.29Q49.48,31.64,23.44,51.8,16.11,57.49,8.82,63.22l2.12,2.13L58.47,24.43,71.92,12.86,69.8,10.74C55,28.65,37.79,44.32,20.16,59.36q-7.5,6.39-15.08,12.7l2.13,2.12C25.89,54.77,44.59,35.33,64.67,17.33Q73.19,9.71,82,2.48L79.91.36,17.82,51,.47,65.17c-1.32,1.07.41,3.31,1.82,2.36a338.61,338.61,0,0,0,53.8-45.15Q63,15.21,69.49,7.64a1.5,1.5,0,0,0-2.12-2.12L27.06,38.9,15.54,48.44c-1.49,1.23.65,3.34,2.12,2.12Z"/></g></g></svg>