<svg xmlns="http://www.w3.org/2000/svg" preserveAspectRatio="none" viewBox="0 0 437.81 339.21"><g id="Layer_2" data-name="Layer 2"><g id="Layer_1-2" data-name="Layer 1"><path d="M301.22,47.86C259.16,37.25,215.78,26.8,172.08,29.4,151,30.66,130,35.27,110.8,44.29c-19.42,9.12-36.58,22.38-52.51,36.6C42.82,94.7,28.89,110,21.11,129.52c-6.88,17.24-9,36.17-7.29,54.6A138.68,138.68,0,0,0,30.47,238c9.16,16.57,21.86,31.14,36.32,43.31,30,25.22,67.51,40.44,105.69,48a305.11,305.11,0,0,0,130.13-2.79A276.29,276.29,0,0,0,363,304.72,130.47,130.47,0,0,0,388.66,288a94.84,94.84,0,0,0,19.69-23.43c11-18.25,16.77-39.32,21.26-60A358.17,358.17,0,0,0,437.77,134c.31-19.47-1.09-39.64-8.69-57.79-7.28-17.38-20.49-30.59-37.37-38.77C375,29.35,356.44,25.86,338.19,23.17c-21-3.08-42.53-6.37-63.77-4.25a93.73,93.73,0,0,0-28.88,7.37c-.88.39-.12,1.68.76,1.29,19.81-8.78,41.93-8.72,63.11-6.6,10.3,1,20.59,2.45,30.83,4a263.22,263.22,0,0,1,26.83,5.26c17.49,4.51,34.79,11.91,47.26,25.4,13.39,14.49,19.06,34.08,21,53.32,2.17,21.29.82,43.12-1.87,64.3-2.79,22.06-7.37,44.26-14.79,65.25C411.79,258,401.36,276,385,289.07s-36.18,21.35-55.74,28.06A304.12,304.12,0,0,1,202,332.06c-39.28-3.78-78.58-15.09-112.25-36-32.19-20-58.58-49.53-69.44-86.36a129.1,129.1,0,0,1-4.23-55.56A105,105,0,0,1,39,102.57,203.1,203.1,0,0,1,61.5,80.05,279.38,279.38,0,0,1,86.44,60.26,160.25,160.25,0,0,1,144,34.71c41.91-9.15,85.56-2.09,126.77,7.29,10.07,2.3,20.09,4.78,30.1,7.3a.75.75,0,0,0,.4-1.44Z"/><path d="M296.61,55.75A239.47,239.47,0,0,0,164.88,31.44C124,35.58,84.44,50.28,52.74,76.72,24,100.74,2.2,134.63.16,172.79c-.63,11.78.54,23.81,5.16,34.76,4.29,10.19,11,19.14,18,27.64A269.14,269.14,0,0,0,64.59,275.6a296.58,296.58,0,0,0,101.19,51.73A295.27,295.27,0,0,0,280,337.5a268.23,268.23,0,0,0,55.72-12.19c10.3-3.45,20.5-7.55,29.71-13.37a72.21,72.21,0,0,0,22.69-22.6c6.47-10.21,11.29-21.53,16.08-32.59s9.11-22.07,12.9-33.38c7.68-22.92,13-46.74,14.18-70.93,2-40.79-9-83.8-36.65-114.77-25.75-28.88-67-44.18-105.21-35a85.62,85.62,0,0,0-25.37,10.6c-.82.51-.07,1.81.75,1.29C298.06-6.18,342.22-.62,373.63,21c33.9,23.31,51.68,64.37,55.54,104.31,4.5,46.61-9.45,92.88-28.17,135-4.66,10.5-9.33,21.26-15.84,30.78a72.11,72.11,0,0,1-24.76,22.07c-9.31,5.2-19.38,8.93-29.53,12.13a267,267,0,0,1-27.12,7,287.1,287.1,0,0,1-112.13-.23A299.44,299.44,0,0,1,87.75,290.31a277.52,277.52,0,0,1-44-35.06,262.36,262.36,0,0,1-18.95-20.64c-7.12-8.64-14.07-17.8-18.34-28.24C-1.49,187,.68,163.83,7,144.25c5.69-17.74,15.55-34,27.8-47.94,25.8-29.42,61.35-49,99.16-58.1a238.68,238.68,0,0,1,131.62,6.08,229.47,229.47,0,0,1,30.31,12.76c.86.43,1.62-.86.76-1.3Z"/></g></g></svg>