<svg xmlns="http://www.w3.org/2000/svg" viewBox="0 0 448.24 146.02"><g id="Layer_2" data-name="Layer 2"><g id="Layer_1-2" data-name="Layer 1"><path d="M110.93,98.55c30.54-1.08,60.8,3.85,90.65,9.77,29.56,5.86,59,12.72,89,15.89a264.5,264.5,0,0,0,50.72.82,1.5,1.5,0,0,0,0-3q-48.39-2.16-96.7-5.78t-96.47-8.74q-27.27-2.9-54.49-6.26v3a647.58,647.58,0,0,1,124.29-.07c41.62,3.83,82.87,11.17,123.51,20.89,22.89,5.48,45.59,11.73,68.11,18.55v-2.89c-12.26,3.89-25.17,2.06-37.62.2l-40-6Q292.43,129,252.91,123q-79-12-158-24.36-44.77-7-89.52-14.07l-.39,3a1092.32,1092.32,0,0,1,247,17.16q17,3.15,33.9,6.84c8.48,1.85,20.14,3,25.23,11.09l1.7-2.21L201.32,92.67,89.87,64.94,26.8,49.25,26,52.14C78.18,62.3,130.36,72.45,182.42,83.21s104,22.11,155.63,34.67c26.64,6.48,53.7,13.22,77.51,27.32l1.15-2.74L293,102.61,170.2,63,100.74,40.64l-.4,3c29.5,3.56,59,7.13,88.4,11.54,29.19,4.38,58.28,9.59,87,16.44q24.42,5.84,48.38,13.36l.8-2.89c-32.07-7.43-64.13-14.87-96.36-21.59S164,47.73,131.46,43.17C113.26,40.62,95,38.52,76.68,37v3q51.72-1.38,103.44-.24t103.33,4.85q29.1,2.08,58.14,5c1.67.17,2.07-2.69.4-2.94L247.05,32.16l-95-14.46L98.48,9.53l-.4,3c46,3.72,92.08,7.45,138,12.24s92,10.69,137.58,18.73Q412,50.2,449.87,59.15l.4-2.94c-48.59-5.75-97.18-11.5-145.69-18S207.4,24.57,159.1,15.93Q118.69,8.72,78.58,0c-1.89-.41-2.69,2.48-.8,2.89C125.85,13.39,174.29,22,222.9,29.56c48.2,7.46,96.56,13.81,145,19.77Q409,54.4,450.27,59.21c1.69.2,2-2.56.4-3-45.14-10.77-90.88-18.84-136.84-25.2-45.73-6.33-91.67-11-137.65-15.07-26-2.3-52.06-4.41-78.1-6.51-1.66-.14-2.08,2.69-.4,2.95l94.94,14.45,94.95,14.46,53.62,8.17.4-2.95q-51.46-5.12-103.15-7.71T135,36.22q-29.18,0-58.35.76a1.5,1.5,0,0,0,0,3c32.77,2.75,65.35,7.33,97.73,13,32.12,5.66,64,12.42,95.86,19.56q26.94,6.06,53.84,12.35a1.5,1.5,0,0,0,.8-2.89,761.41,761.41,0,0,0-86.64-21.55c-29.17-5.59-58.56-9.89-88-13.72-16.63-2.16-33.28-4.17-49.93-6.18-1.74-.21-1.93,2.45-.4,2.94L223.62,83.39,346.45,123l69.47,22.38c1.64.53,2.6-1.88,1.15-2.74-20.92-12.39-44.42-19.22-67.85-25.08-25.67-6.41-51.47-12.37-77.29-18.16C219.78,87.67,167.42,76.93,115,66.52Q70.92,57.78,26.8,49.25c-1.87-.36-2.69,2.42-.8,2.89L137.45,79.87,248.9,107.6,312,123.3a1.52,1.52,0,0,0,1.69-2.21c-4.2-6.66-12-9-19.24-10.73-10-2.31-20.12-4.4-30.22-6.38Q233,97.86,201.54,93.56A1098.73,1098.73,0,0,0,76.26,83.69Q40.61,82.94,5,84.52c-1.6.07-2.15,2.67-.4,2.94q80.06,12.69,160.18,25.05,79.89,12.33,159.83,24.34,22.41,3.38,44.81,6.71c13.54,2,27.6,4.31,41,.06a1.51,1.51,0,0,0,0-2.89A1084.79,1084.79,0,0,0,288.12,110.8c-41-7.38-82.59-12-124.28-12.53a616.15,616.15,0,0,0-70.19,3,1.5,1.5,0,0,0,0,3q48.07,5.94,96.31,10.42t96.58,7.45q27.38,1.69,54.77,2.91v-3c-30.35,2.66-60.68-1.28-90.48-6.87s-59.22-12.71-89.25-16.73a301.14,301.14,0,0,0-50.65-2.88c-1.93.06-1.94,3.07,0,3Z" transform="translate(-3.49)"/></g></g></svg>