<svg xmlns="http://www.w3.org/2000/svg" viewBox="0 0 84.54 69.92"><g id="Layer_2" data-name="Layer 2"><g id="Layer_1-2" data-name="Layer 1"><path d="M71.45,16.35a76.54,76.54,0,0,0-18,16.76,1.5,1.5,0,0,0,2.12,2.12l30.69-27c1.26-1.11-.42-3.34-1.82-2.35A455.93,455.93,0,0,0,28.38,52.71q-7.29,7.17-14.26,14.66a1.51,1.51,0,0,0,2.13,2.13l40.47-37L68.13,22.12,66,20,25.6,57.65l2.12,2.13L61,19.82,70.33,8.54c1-1.2-.34-3.44-1.82-2.36a398.74,398.74,0,0,0-43,36.49Q19.8,48.3,14.28,54.15a1.5,1.5,0,0,0,2.12,2.12L61.87,19.09l13-10.6c1.5-1.23-.63-3.33-2.12-2.13a449.48,449.48,0,0,0-48.95,46Q17.28,59.48,11.1,66.85c-1,1.23.29,3.33,1.82,2.35A324.2,324.2,0,0,0,61.92,31q6.33-6,12.35-12.35c1.35-1.43-.65-3.32-2.12-2.12L49.58,35l2.12,2.12L71.49,14.29c1-1.19-.38-3.46-1.82-2.35L25.1,46.34l1.82,2.36,38-36.41c1.4-1.35-.69-3.4-2.13-2.12L17.31,50.5l-13,11.58c-1.28,1.13.37,3.24,1.82,2.35a234.55,234.55,0,0,0,40-30.88q5.24-5,10.16-10.41a1.5,1.5,0,0,0-1.81-2.35A224,224,0,0,0,18.53,45.53l2.12,2.12,40-35,11.45-10c1.27-1.11-.4-3.31-1.82-2.36Q48.66,14.77,28.58,31.37,22.85,36.11,17.27,41l2.12,2.13,30.94-30c1.4-1.36-.68-3.38-2.12-2.13A275.13,275.13,0,0,0,10.78,50.65c-1.13,1.46,1.15,2.78,2.36,1.82l41.67-33L66.74,10,64.62,7.84a459,459,0,0,0-44,40.07c-1.14,1.19.37,3.35,1.82,2.36l23-15.65c1.31-.89.53-3.41-1.15-2.74A76.3,76.3,0,0,0,20.14,47.16l2.13,2.12A588.2,588.2,0,0,1,63.2,5.19c1.39-1.35-.71-3.44-2.12-2.12Q41.39,21.55,22.92,41.29q-5.24,5.58-10.35,11.27c-1.29,1.42.75,3.49,2.12,2.12L30.84,38.51l-2.51-1.46L27.11,40.1c-.57,1.45,1.53,2.47,2.51,1.46L42.3,28.65c1.39-1.42-.64-3.28-2.12-2.12l-29,22.58,2.13,2.12,9.48-8.18-2.12-2.12L2.6,58.06a1.51,1.51,0,0,0,1.81,2.36l13-7.83,3.36-2a11.23,11.23,0,0,0,2.93-2.11c1.35-1.59,2.77-3.11,4.25-4.58A78,78,0,0,1,48.27,29.41,76.84,76.84,0,0,1,61.63,24.3l-1.15-2.74L47.57,29.08l1.52,2.59L70.84,17.76,69,15.41A310.84,310.84,0,0,1,36,50.58c-1.43,1.31.7,3.42,2.12,2.12a310.84,310.84,0,0,0,33-35.17c1-1.23-.26-3.35-1.82-2.36L47.57,29.08a1.5,1.5,0,0,0,1.52,2.59L62,24.15a1.51,1.51,0,0,0-1.16-2.74A80.25,80.25,0,0,0,37.86,32a81.76,81.76,0,0,0-10,7.84Q25.53,42,23.35,44.37c-.68.74-1.28,1.59-2,2.27A18.55,18.55,0,0,1,18,48.74L2.9,57.83l1.82,2.35L22.77,43.05c1.42-1.34-.67-3.37-2.12-2.12l-9.49,8.18c-1.48,1.28.64,3.28,2.13,2.12l29-22.58-2.12-2.12L27.5,39.44,30,40.9l1.21-3c.58-1.45-1.52-2.45-2.51-1.46L12.57,52.56l2.12,2.12Q32.78,34.63,52.14,15.76,57.63,10.42,63.2,5.19L61.08,3.07A590.44,590.44,0,0,0,20.14,47.16a1.5,1.5,0,0,0,2.13,2.12A72.34,72.34,0,0,1,45,34.77L43.87,32l-23,15.65L22.71,50A457.63,457.63,0,0,1,66.74,10c1.52-1.21-.62-3.31-2.12-2.13L23,40.88,11,50.35l2.35,1.81a271.63,271.63,0,0,1,37-39.07L48.21,11,17.27,41c-1.4,1.36.68,3.39,2.12,2.13q19.36-17,40.35-32,5.94-4.24,12-8.33L69.94.47l-40,35-11.44,10c-1.46,1.28.66,3.36,2.12,2.12A220.64,220.64,0,0,1,56,23.38L54.16,21a230.48,230.48,0,0,1-37.6,33q-5.88,4.11-12,7.84L6.38,64.2,51.87,23.86,64.92,12.29l-2.13-2.12-38,36.41c-1.19,1.14.45,3.41,1.82,2.35l44.57-34.4-1.82-2.36L49.58,35a1.5,1.5,0,0,0,2.12,2.12L74.27,18.67l-2.12-2.12a320.81,320.81,0,0,1-46.26,40.3q-7.09,5.09-14.48,9.76L13.23,69A447.65,447.65,0,0,1,60.15,20.88q7.2-6.36,14.68-12.39L72.71,6.36,27.25,43.55l-13,10.6,2.12,2.12a396.41,396.41,0,0,1,41-37.81q6.21-5,12.64-9.68L68.21,6.42,35,46.37,25.6,57.65a1.5,1.5,0,0,0,2.12,2.13L68.13,22.12C69.55,20.8,67.43,18.7,66,20L25.53,57,14.12,67.37l2.13,2.13A451,451,0,0,1,69.46,20.72Q77.56,14.41,86,8.49L84.13,6.13l-30.69,27,2.12,2.12A74.26,74.26,0,0,1,73,18.94c1.6-1.06.09-3.66-1.52-2.59Z" transform="translate(-2.15)"/></g></g></svg>