<svg xmlns="http://www.w3.org/2000/svg" viewBox="0 0 288.45 145.22"><g id="Layer_2" data-name="Layer 2"><g id="Layer_1-2" data-name="Layer 1"><path d="M.77,2.75l49.84,24,49.61,23.88,49.85,24,49.61,23.88,49.84,24,6.2,3c1.74.84,3.26-1.75,1.52-2.59l-49.84-24L157.78,75,107.94,51,58.33,27.13,8.48,3.15l-6.2-3C.55-.67-1,1.92.77,2.75Z"/><path d="M250.65,78.71l31.21,53.42,1.88,3.22a12,12,0,0,1,1.68,3.3c.4,2-1.83,2.22-3.3,2.29-5.05.22-10.13.16-15.18.24l-31.15.49-34.9.55c-1.92,0-1.93,3,0,3l65.3-1c5.3-.09,10.63,0,15.93-.26,1.75-.08,3.73-.36,5.06-1.63,1.59-1.53,1.53-3.73.7-5.63a68.41,68.41,0,0,0-3.93-6.92l-4.14-7.08-8.15-14L253.24,77.2a1.5,1.5,0,0,0-2.59,1.51Z"/></g></g></svg>