<svg xmlns="http://www.w3.org/2000/svg" viewBox="0 0 295.44 176.16"><g id="Layer_2" data-name="Layer 2"><g id="Layer_1-2" data-name="Layer 1"><path d="M2.24,176l52.28-30.09,52.29-30.08,52.51-30.22L211.6,55.47l52.28-30.08,6.51-3.75a1.5,1.5,0,0,0-1.52-2.59L216.59,49.14,164.31,79.22,111.8,109.44,59.52,139.53,7.23,169.61l-6.5,3.75A1.5,1.5,0,0,0,2.24,176Z"/><path d="M222.87,3l55.29,6L294,10.75l-1.29-2.26a271,271,0,0,0-16.54,46.08q-1.75,6.78-3.16,13.66c-.39,1.89,2.51,2.69,2.89.8a269.89,269.89,0,0,1,13.89-46.3q2.58-6.43,5.51-12.73A1.52,1.52,0,0,0,294,7.75l-55.29-6L222.87,0c-1.92-.21-1.9,2.79,0,3Z"/></g></g></svg>