<svg xmlns="http://www.w3.org/2000/svg" viewBox="0 0 1820 175.33"><defs><style>.cls-1,.cls-2{fill:#663;}.cls-1{stroke:#663;stroke-miterlimit:10;stroke-width:100px;}</style></defs><g id="Layer_2" data-name="Layer 2"><g id="Layer_1-2" data-name="Layer 1"><rect class="cls-1" x="50" y="50" width="1720" height="34"/><path class="cls-2" d="M5.56,141c6.7.62,17.51-7.61,23.17-1.4l1.45-2.51L7.41,133.49l.36,2.74c34.42-16.77,69.29-9.08,105-2.2,16,3.08,32,.21,48-1.54l53.26-5.83-.39-3c-9.5,2.09-19,4.34-28.37,6.81-7.21,1.89-14.63,3.38-20.86,7.66a1.51,1.51,0,0,0,.76,2.79l14.05,1.71v-3L134,141a1.51,1.51,0,0,0-.75,2.79l3.87,2.23.36-2.74c-25.5,4.94-51.35,3.81-77.13,2.46v3a309.65,309.65,0,0,0,33.56-5.25c1.9-.41,1.08-3.24-.8-2.9a136.79,136.79,0,0,1-74.1-7l-.8,2.89a246.56,246.56,0,0,0,92.21,4.3c1.56-.22,1.27-2.49,0-2.9a23.84,23.84,0,0,0-16.44.41,1.51,1.51,0,0,0,.4,2.95,108.74,108.74,0,0,0,17.95-.51,1.51,1.51,0,0,0,.76-2.79c-9-5.6-17.91-2.11-26.44,2.58-1.24.68-.75,2.94.76,2.79l19.82-1.89-.4-2.95a52.39,52.39,0,0,1-14.46.71c-1.67-.13-2.07,2.67-.4,3,14,2.28,27.78-6.8,41.32-1.74l.4-2.95a90.26,90.26,0,0,0-21.9,1.16l.79,2.89L131,137.55c6.16-1.32,17.45-5.6,23.2-2.54v-2.59c-4.44,3.33-17,1.06-22.35,1l-22.72-.32c-13.58-.19-27.24-1-40.69,1.27l1.15,2.75a30.18,30.18,0,0,1,21.57-2l.39-2.94-43.06,2.09c-1.92.09-1.94,3,0,3l17.25-.07c2,0,1.88-2.79,0-3a260.54,260.54,0,0,0-40.57-1.4l.4,2.94c5.91-1.43,17.49-4.93,22,.89L48.62,134a220.37,220.37,0,0,1-22.26.41c-1.77-.05-1.92,2.4-.4,2.95l76.44,27.53c3.14,1.13,6.32,2.57,9.56,3.44,10.44,2.83,22.29-8.21,31.24-13,23.2-12.33,47.65-21,72-30.69l-1.46-2.51c-9.33,7.91-21.91,13.15-32.54,19.12l-31.74,17.84,2.26,1.29-.32-30.28-2.8.76c2.17,4.51,5.48,6.36,9.93,8.47,7.3,3.46,14.82,6.51,22.22,9.76a1.51,1.51,0,0,0,2.25-1.29,6.38,6.38,0,0,0-.61-3.5c-2.34-4.45-6.1-2-4.95-7.6l-2.74.36c3.41,5.5,9.64,6.66,13.19.54a1.51,1.51,0,0,0-1.3-2.25,110,110,0,0,1-22.65-.63c-1.46-.19-2.07,2.2-.76,2.8a15.88,15.88,0,0,0,7.1,1.4c1.64,0,2.11-2.66.4-2.94a20.36,20.36,0,0,0-5.1-.46,1.52,1.52,0,0,0-1.06,2.56c3.59,3.74,9.31,2.66,13.85,5.23l1.16-2.74c-3.34-.72-5.63.2-7.16,3.35a1.52,1.52,0,0,0,1.3,2.26l2,0a1.51,1.51,0,0,0,.75-2.8l-9.56-4.88c-1.23-.63-2.95.73-2.05,2.05l2.91,4.27,1.7-2.21c-2.75-.62-2.67-.7-5.09.82a1.51,1.51,0,0,0,0,2.59,10.93,10.93,0,0,0,6.88,1.46c1.89-.16,2-3,0-3a35.52,35.52,0,0,1-12.86-2.38l-.39,2.94c2.79-.26,14.42,1.09,14.09-4.38-.32-5.18-8.56-3.27-10.27-6.36l-.89,2.2,18.95-3.34c.72-.13,7.08-1.51,7.18-1.27.28.65-5.49,5-5.78,6.92-1.21,7.68,12.11,8.1,16.94,8.61,6.11.64,12.29.58,18.12-1.55,6.7-2.45,12-7.25,19-9.09l-1.15-2.74a124,124,0,0,1-29,10.82l1.15,2.75a236.75,236.75,0,0,1,42.27-17c1.89-.56,1.06-3.17-.8-2.89-20.89,3.15-39.63,16.35-61.26,14.58l.4,3,35.22-11.13a1.5,1.5,0,0,0-.8-2.89,190.41,190.41,0,0,0-28.67,6.55,1.53,1.53,0,0,0-.36,2.75c15.15,8.83,29.6-5.16,44.83-6v-3l-18.95,1.92.76,2.79a66.14,66.14,0,0,1,36.89-7.38l-.4-2.94q-33.59,8.35-67.27,16.35l.8,2.9a58.94,58.94,0,0,1,29.91-4.32l-.76-2.79a174.05,174.05,0,0,1-35,11.46l1.7,2.21c7.75-13.35,19.93-22.18,32.58-30.54,13.39-8.86,26.86-17.58,40.3-26.37,1.36-.89.53-3.31-1.16-2.74a157.22,157.22,0,0,0-81.36,62c-1,1.45,1.15,3,2.36,1.81l10.31-9.77-2.36-1.81a49.51,49.51,0,0,1-6,7.39,1.56,1.56,0,0,0,0,2.12l.78.94,1.46-2.51a385.88,385.88,0,0,1-49.94-20.38c-1.06-.52-2.69.37-2.2,1.7l3.36,9.12,2.2-1.7-13.87-7.29-.76,2.8,236,4.86,33.38.69a1.52,1.52,0,0,0,1.06-2.56c-3-2.71,11.75-4.23,9.29-4a40.88,40.88,0,0,1,11,.64l.39-2.95c-8.2.29-16.26.07-23.86,3.5-1.38.62-.67,2.85.75,2.8l34.77-1.29a1.5,1.5,0,0,0,0-3c-4.93-.12-9.92-.45-14.85-.37-3.77.07-7.94,1.8-11.6,1.38l1.06,2.56c4.9-3.94,17.42.36,22.63,2l.4-2.94c-24.31-.45-47.54.43-71.75,2.18l-32.68,2.35c-10.11.72-21.5-.24-30.87,3.59-1.45.6-1.43,3,.4,2.95q16.24-.41,32.44-1.57a1.52,1.52,0,0,0,1.07-2.56c-2.65-3.07-8.1-1.7-11.72-1.7a1.5,1.5,0,0,0,0,3c4.94,0,11.2,1,15.89-.39,5.32-1.61,7.58-4.08,13.71-4.86a447.91,447.91,0,0,1,50.31-3.41,1.5,1.5,0,0,0,0-3,145.06,145.06,0,0,0-40.09,4.12,1.5,1.5,0,0,0,.4,2.94c16.1.12,32.19-.21,48.27-1.1,11.89-.66,23.59-2.74,35.33-.58l-.36-2.74-7.42,4.45,1.52,2.59,6.52-2.35-.4-2.95c-3.74,1.27-9.48.3-13.59,1.21a65.73,65.73,0,0,0-17.51,6.84c-1.05.58-.94,2.53.36,2.74,5.05.83,6.74,1.59,12,.87,1.66-.23,1.28-3.16-.4-3l-9.77,1.25c-1.86.24-2,3.16,0,3A567.55,567.55,0,0,0,467.31,143l-1.7-2.21A38,38,0,0,1,451,154.61c-1.69.92-.18,3.5,1.52,2.59,16.37-8.75,32.68-17.59,48.08-28a1.51,1.51,0,0,0-1.16-2.74,86.6,86.6,0,0,0-38.14,19.29c-1.3,1.13.38,3.22,1.82,2.36a113.41,113.41,0,0,0,14.46-10.24l-2.12-2.12A69.33,69.33,0,0,1,451.8,152.4l1.81,2.35a399.78,399.78,0,0,1,35.9-31.81L487,121.48l-2.33,8.28c-.28,1-.64,4.4-1.43,5.1-1.41,1.25-3.07.69-6.12.5-8.24-.52-16.82.28-25.06.42-1.56,0-10.49.79-10.74.19q-2.34,1.47,1.89-1.11l5.17-3.12A1.52,1.52,0,0,0,448,129c-5.91-2.12-14.41-7.31-20.67-7.14-4.67.12-11.44,4.67-15.84,6.38q-7.15,2.79-14.38,5.4c-11.24,4.09-22.59,7.84-34,11.36-1.84.57-1.07,3.43.79,2.89,15.8-4.52,30.95-4.82,47.17-5.57,14.85-.68,27.65-8.9,42.32-9.82a1.5,1.5,0,0,0,0-3c-17.71-1.25-30.74,11.75-46.73,16.9a1.5,1.5,0,0,0,.8,2.89q37-7.74,73.13-18.71,8.2-2.52,16.35-5.19c4.72-1.55,11-4.92,15.86-5.48.44,0,.91.09,1.35,0,8.08-.75,16.91.63,25,.93l116.41,4.32,272.06,10.1c9.84.36,19.87.22,29.69,1.1,13.41,1.2,26.62,4.44,40.13,5.5a328.58,328.58,0,0,0,80.16-3.73c1.68-.28,1.27-3-.4-2.94l-96.93,2.34.4,2.95c55-20.09,112.1,16.43,167.76.46,1.33-.39,1.52-2.63,0-2.9a401.74,401.74,0,0,0-97.52-4.89l.4,3c41.91-8.33,84.53-16.48,127.34-10.66l.4-2.95c-126.86,3.3-252.84-17.62-379.62-14.31-14.91.39-30.19,1.16-44.31,6.44-6.41,2.4-8.74,7.35-12.73,12.81-.71,1,.26,2.22,1.29,2.26,22.88.78,45.87,2.46,68.49,6a139,139,0,0,1,28.4,7.83c8.17,3.12,15.75,5.6,24.28,2.57a1.51,1.51,0,0,0,0-2.89A139.2,139.2,0,0,0,808,132.76c-1.42,0-3.9.55-5.22,0-3.65-1.46-2.11-2.13.94-3.33,5.11-2,12.59-1.66,18-1.81a128.63,128.63,0,0,1,34.67,4v-2.9c-7.63,1.89-15.44,3-22.32,6.84a1.53,1.53,0,0,0,.36,2.75c7.94,3,15.88,7,24.42,7.73,1.83.16,1.82-2.36.4-2.95-3.37-1.37-7-1.48-10.39-3-2.73-1.25-4.53-2.81-7.6-3.35-2.7-.48-4.29-.19-6.65-1.31a35.82,35.82,0,0,1-4.81-3.4l-1.16,2.75c7.58,3.08,16.92,1.16,24.88.71v-3l-135.69,7.85.4,2.94c4.48-.64,8.89-1.33,13.09-3.09,4.57-1.91,8.15-4.69,13.09-5.89L743,131.78c-5.42,4.27-10.45,7.88-17.67,7.85-1.64,0-2.1,2.65-.4,3,13.24,2.34,23.76-2.36,36.58-4.65,1.75-.31,1.21-2.85-.39-3a78.26,78.26,0,0,0-26.55,2.88,1.51,1.51,0,0,0,.4,2.95c6.75.54,12.51-1.05,18.91-3.21a1.51,1.51,0,0,0,0-2.89,44.21,44.21,0,0,0-11.73-2.8c-1.94-.21-1.88,2.75,0,3a111.1,111.1,0,0,0,15.36.9c1.63,0,2.12-2.66.4-2.95a32.62,32.62,0,0,0-16.37,1.07c-1.53.48-1.36,3.12.4,2.94,15.31-1.49,30.35-5.2,45.8-3.6v-3q-15.3,1.18-30.54,3.09a1.5,1.5,0,0,0,0,3c15,1.5,27.24,7.15,41.18-1.09,1.7-1,.21-3.35-1.52-2.59-7.41,3.26-15,2.38-22.8,3.39-7.53,1-14.48,3.46-22.19,2.66l.4,2.94a51.73,51.73,0,0,1,14.87-2.61l-.4-2.95a63.69,63.69,0,0,1-9.13,1l.75,2.79c8.56-3.75,17.73-3.31,26.85-3.93,1.15-.08,11.19-.06,10.36-2.6,0,0-1.41,1.78-1.49,1.89a1.51,1.51,0,0,0,1.29,2.26c4.43-.45,8.87-1,13.32-1.28,3.18-.18,5.83-.86,1.08-1.23-2.13-.17-4.58.45-6.71.6-5.78.4-11.55.19-17.3.88l-24.71,3c-1.86.23-2,3.13,0,3q107.15-6.66,214.54-6.2v-3l-22.18,2.13c-1.89.18-2,3,0,3q185.45-2.4,370.9-3.1v-3l-54.51,7.24c-1.85.25-2,3,0,3l169.21-.67v-3l-62,6.61c-1.88.2-2,3.11,0,3l161-8.62a1.5,1.5,0,0,0,.4-2.94,232.78,232.78,0,0,0-73.14-10.57v3l191.23-8.71a1.5,1.5,0,0,0,0-3,199.61,199.61,0,0,0-49.12,2.62c-1.81.32-1.12,2.76.4,3l66.63,8.1v-3a164.68,164.68,0,0,0-55.06,9.34,1.51,1.51,0,0,0,.4,3,818.91,818.91,0,0,0,101.63-2.77,1.5,1.5,0,0,0,0-3,1708.81,1708.81,0,0,0-217.88,2.2c-1.91.14-1.93,3.13,0,3q78-5.35,156.25-7.61c24.89-.7,50.57-2.83,75.43-1.25,4.68.3,9.91,1,14.13,3.25,1.91,1,7.75,4.78,6.88,7.41-.54,1.61-5.07,1.77-6.4,2a114,114,0,0,1-42.46.38v2.9a326.1,326.1,0,0,1,99.44-6.5v-3c-185.48,3-370.25-26.31-555.76-16.9-50.74,2.57-101.3,8.2-151.17,18-1.66.32-1.28,3,.4,2.94l205-7.7v-3L1104,151.32v3l193.5-20.69a1.5,1.5,0,0,0,0-3A1214.13,1214.13,0,0,0,1063.32,135q-27.15,3.17-54.14,7.54c-8.61,1.4-17.22,3.37-25.87,4.5-10.93,1.41-21.72-2.82-32.44-5a403.92,403.92,0,0,0-108.22-7.18c-44.52,3.08-89.08,5.45-133.65,7.87l.4,2.95A1932.51,1932.51,0,0,1,939,72.72c1.6-.4,1.32-3.11-.4-2.94L611.81,101.51c-1.89.19-2,3,0,3a905.57,905.57,0,0,1,162.56,16.78l.39-2.94L558.57,139.91l.39,2.94a606.73,606.73,0,0,1,149.83-8.33v-3L478.88,144l.4,2.94a1111.58,1111.58,0,0,1,179.63-11v-3l-228.81,6.2.4,2.94a993.93,993.93,0,0,1,113.42-8.73c1.93,0,1.93-3,0-3L371,132.57a1.5,1.5,0,0,0,0,3q150,0,299.46,14.43c1.67.16,2.06-2.66.4-2.95a1363,1363,0,0,0-278.19-19c-1.61.06-2.14,2.64-.4,2.95Q461.79,143.19,530,161.7l.4-2.94Q415.7,153.63,301.7,139.39v3a214.88,214.88,0,0,1,59.4,3.68l.4-2.94-106.22,4.92.4,2.95,94.09-15.11c1.45-.24,1.42-2.64,0-2.9a343.8,343.8,0,0,0-90.64-4.52c-1.9.16-1.94,3.12,0,3l115.94-6.79a1.5,1.5,0,0,0,0-3A373.21,373.21,0,0,0,237.3,136.59c-1.91.58-1.06,3.15.8,2.89l121.27-16.67c1.68-.23,1.28-3-.4-3a518.64,518.64,0,0,0-80,10.33c-1.66.35-1.28,3,.4,2.95l129.11-3.27a1.5,1.5,0,0,0,0-3,1154.54,1154.54,0,0,0-310.37,45.5l1.16,2.74,69-41.91a1.51,1.51,0,0,0-1.16-2.74,356.13,356.13,0,0,1-89.89,11.87v3c9.74-.48,16.68-7.12,17.76-16.78.09-.84-.77-1.46-1.5-1.5a114.45,114.45,0,0,0-63.14,14.89L32.37,144c5-7.46-9.46-14.62-12.47-6a1.51,1.51,0,0,0,1.44,1.9q190.65-3.33,381.25-8.34t381.16-11.76q190.54-6.72,381-15.17c10-.45,19.28-1.28,29.07.06l27.59,3.76,87.15,11.89c51.65,7.05,103.08,14,154.4,23.08,13.89,2.47,27.72,4.72,41.88,4.28a1.5,1.5,0,0,0,0-3,322.8,322.8,0,0,1-44.06-8.22c-12.12-3.16-23.77-7.54-36.46-7.12a1.5,1.5,0,0,0-.4,2.94L1462.66,143a1.5,1.5,0,0,0,.8-2.89,300.63,300.63,0,0,0-40.08-9.55,1.5,1.5,0,0,0-.79,2.89l15.72,4.83.4-2.94a298,298,0,0,1-38.52-7.33c-1.59-.41-2.74,2-1.16,2.74a87.2,87.2,0,0,0,45,8.5,1.5,1.5,0,0,0,0-3l-20.15-1.32c-7.73-.51-16.3-.05-23.19-4l-.36,2.74a86.15,86.15,0,0,1,27,.34,1.52,1.52,0,0,0,1.7-2.2,37.63,37.63,0,0,0-4.8-7.37c-1.22-1.5-3.33.64-2.12,2.12a24.74,24.74,0,0,1,4.33,6.76l1.69-2.2a92.11,92.11,0,0,0-28.56-.35c-1.33.19-1.38,2.16-.36,2.75,5.7,3.28,11.54,3.56,18,4,9,.61,17.91,1.17,26.87,1.76v-3a84.06,84.06,0,0,1-43.51-8.09l-1.16,2.74a305.12,305.12,0,0,0,39.32,7.44c1.73.21,2-2.47.4-2.95l-15.73-4.83-.79,2.89a300.86,300.86,0,0,1,40.07,9.55l.8-2.89-38.71-10.66-.4,3c14.57-.48,28.42,5.36,42.41,8.7a330.45,330.45,0,0,0,38.11,6.64v-3c-34.14,1.06-68.18-9.89-101.94-14.49l-74.17-10.12-90.84-12.39c-16.72-2.28-33.68-5.67-50.52-6.89-7.41-.54-15.18.49-22.62.82l-48.52,2.12q-47.61,2.05-95.25,4-95.25,3.9-190.52,7.37-190.54,6.94-381.15,12.17T68.1,136.07q-23.37.44-46.76.84l1.45,1.89c1.57-4.49,9.25.26,7,3.68-.86,1.29.8,2.76,2,2.05A112.26,112.26,0,0,1,66.1,131.7a106.4,106.4,0,0,1,18.06-1.88c4-.07,8.52-1.59,6,5-1.88,4.85-8.24,7.29-12.94,7.52-1.91.09-1.94,3,0,3a359.21,359.21,0,0,0,90.69-12l-1.16-2.74-69,41.91a1.51,1.51,0,0,0,1.16,2.74,1151.46,1151.46,0,0,1,309.57-45.39v-3l-129.11,3.27.4,2.94A514.4,514.4,0,0,1,359,122.86l-.39-2.94L237.3,136.59l.8,2.89a371.06,371.06,0,0,1,137-14.8v-3l-115.94,6.79v3A340.4,340.4,0,0,1,349,135.89V133l-94.1,15.11c-1.67.27-1.28,3,.4,3l106.22-4.92c1.61-.08,2.13-2.6.4-2.95a217.56,217.56,0,0,0-60.2-3.79,1.5,1.5,0,0,0,0,3q113.91,14.24,228.67,19.37a1.51,1.51,0,0,0,.4-2.95q-68.13-18.51-137.71-30.73l-.4,2.95A1358.07,1358.07,0,0,1,670.05,150l.4-2.95Q521.16,132.63,371,132.57v3l172.93-2.25v-3a1001.17,1001.17,0,0,0-114.22,8.84c-1.68.23-1.26,3,.4,3l228.81-6.2a1.5,1.5,0,0,0,0-3,1116.89,1116.89,0,0,0-180.43,11.15c-1.67.24-1.28,3,.4,2.95l229.91-12.49a1.5,1.5,0,0,0,0-3A609.69,609.69,0,0,0,558.17,140c-1.65.3-1.29,3.12.4,2.95l216.19-21.56c1.55-.16,2.2-2.6.4-2.95a909.64,909.64,0,0,0-163.35-16.89v3L938.63,72.78l-.39-3A1933.24,1933.24,0,0,0,708.6,142.75c-1.46.56-1.42,3,.4,2.94,38.88-2.11,78-3.18,116.78-6.35C864.22,136.2,902,136.23,940.1,143q13.33,2.37,26.5,5.62c3,.74,7.17,2.51,10.23,2.63,4.42.16,9.78-1.82,14.17-2.6q30-5.37,60.15-9.2,57.31-7.26,115.14-9a1219.12,1219.12,0,0,1,131.18,3.19v-3L1104,151.32c-1.9.2-1.93,3.2,0,3l201.27-20.42c1.88-.19,2-3.07,0-3l-205,7.7.39,3c181.5-35.51,366.75-13.77,549.63-4.42,52.13,2.67,104.31,4.3,156.51,3.47a1.5,1.5,0,0,0,0-3,329.09,329.09,0,0,0-100.24,6.6c-1.39.31-1.47,2.64,0,2.9a120.09,120.09,0,0,0,51.89-2.28,1.53,1.53,0,0,0,1-1.84c-2.52-12.88-17.67-14.87-28.62-15-25.45-.23-51,.75-76.43,1.51q-75.53,2.25-150.92,7.45v3a1708.81,1708.81,0,0,1,217.88-2.2v-3a818.91,818.91,0,0,1-101.63,2.77l.4,2.94a162.22,162.22,0,0,1,54.26-9.23c2,0,1.86-2.77,0-3l-66.63-8.1.4,2.94a196.57,196.57,0,0,1,48.32-2.51v-3L1465.3,126.3c-1.92.09-1.94,3,0,3a230.37,230.37,0,0,1,72.34,10.46l.4-2.95-161,8.62v3l62-6.61c1.87-.2,2-3,0-3l-169.21.67v3l54.51-7.24c1.85-.24,2-3,0-3q-185.46.7-370.9,3.1v3l22.18-2.13c1.88-.18,2-3,0-3q-107.35-.47-214.54,6.2v3c18.56-2.22,37.34-2.81,55.8-5.35a1.51,1.51,0,0,0,1-1.84c-1.75-5.4-18.92-1.11-22.53-.74l1.3,2.25a4.23,4.23,0,0,1,1.11-1.27,1.58,1.58,0,0,0,.69-1.7l-.18-.82a1.51,1.51,0,0,0-1.45-1.1c-13.16,1.49-27.63,0-40,5.43-1.37.61-.67,2.88.76,2.8,3.36-.2,6.61-.56,9.93-1.08,1.68-.26,1.27-3-.4-2.94a53.73,53.73,0,0,0-15.67,2.72,1.51,1.51,0,0,0,.4,2.95c9.19,1,17.76-2.4,26.87-3.07,6.94-.51,13.18-.55,19.64-3.39l-1.52-2.59c-13.12,7.76-25.79,2.07-39.66.68v3q15.24-1.91,30.54-3.09a1.5,1.5,0,0,0,0-3c-15.47-1.6-30.47,2.11-45.8,3.6l.4,2.95a29.69,29.69,0,0,1,14.77-1.07l.4-2.94a111.1,111.1,0,0,1-15.36-.9v3a39.35,39.35,0,0,1,10.93,2.69v-2.89c-6,2-11.69,3.62-18.11,3.1l.4,2.94A75.49,75.49,0,0,1,761.09,138l-.4-2.94c-12,2.14-22.48,6.86-35,4.64l-.4,2.95c8,0,13.72-3.95,19.79-8.72,1.26-1-.13-2.83-1.46-2.51-9.19,2.22-16.51,7.59-26.18,9-1.67.24-1.28,3,.4,3l135.69-7.85c1.92-.11,1.93-3.11,0-3-7.58.43-16.91,2.31-24.08-.61-1.68-.68-2.44,1.84-1.16,2.75,2.4,1.69,4.87,4,7.6,5s6.4.16,9.3,1.58c1.5.74,2.7,2.25,4.23,2.88,2.88,1.21,6.07.68,9,1.89l.4-3c-8.12-.72-16.09-4.76-23.62-7.63l.36,2.75c6.52-3.66,14.36-4.76,21.6-6.54a1.52,1.52,0,0,0,0-2.9,131,131,0,0,0-38.84-4c-7.82.43-20.35-.11-25.54,6.66a1.5,1.5,0,0,0,.54,2c9,4.11,19.57,1.83,29.22,2.53a132.94,132.94,0,0,1,41.48,10.17v-2.89c-11.09,3.93-21.16-2.48-31.45-5.9-8.92-3-18.25-4.4-27.54-5.64-20.37-2.71-40.86-4.31-61.39-5L745,129l4.31-5.9c3.66-5,7.83-6.24,13.9-7.86,13.49-3.61,27.66-3.85,41.53-4.12,30.57-.6,61.15.27,91.68,1.84,60,3.08,119.75,8.85,179.73,11.57q51.43,2.32,102.92,1c1.61,0,2.14-2.71.4-2.94-43.4-5.91-86.45,2.21-128.94,10.66-1.65.32-1.29,3.06.4,2.94a398.18,398.18,0,0,1,96.72,4.79v-2.9c-55.6,16-112.66-20.59-167.76-.45-1.51.55-1.39,3,.4,2.94l96.93-2.34-.4-3a325.25,325.25,0,0,1-77.66,3.76c-13.89-1-27.46-4.32-41.24-5.62-7.57-.71-15.33-.57-22.93-.85l-114-4.23L546.83,118.17c-10.53-.39-21.37-1.56-31.91-1.18-9.07.32-18.33,5.41-26.93,8.14a835.44,835.44,0,0,1-81.32,21.27l.8,2.89c15.63-5,28.66-18,45.93-16.79v-3c-15.86,1-29.38,9.55-45.56,9.9-15.4.33-29.82,1.33-44.72,5.6l.79,2.89c20.06-6.17,40.23-12.83,59.5-21.19,5.36-2.32,7.59-.64,13,1.33l10.77,3.86-.36-2.74c-3.43,2.07-8.22,3.93-11,6.81a1.53,1.53,0,0,0-.24,1.81c1.94,3.33,11.79,1.09,14.62,1l34-.58a1.53,1.53,0,0,0,1.44-1.1l4.17-14.85c.45-1.57-1.4-2.32-2.5-1.46a398.41,398.41,0,0,0-35.9,31.81c-1.29,1.29.34,3,1.82,2.36a70.84,70.84,0,0,0,24.26-17.12,1.5,1.5,0,0,0-2.12-2.12,110.13,110.13,0,0,1-13.85,9.77l1.82,2.35a83.26,83.26,0,0,1,36.81-18.52l-1.16-2.74c-15.39,10.41-31.7,19.25-48.08,28l1.52,2.59a41,41,0,0,0,15.69-14.88,1.52,1.52,0,0,0-1.69-2.21,558,558,0,0,1-64,8.71v3l9.77-1.25-.4-2.95c-4.14.57-6.34-.19-10.41-.86l.36,2.74c6-3.29,14.16-7.29,21.24-7.22,3.42,0,5.59.68,9.14-.53,1.5-.51,1.38-3.1-.4-2.94a15.35,15.35,0,0,0-8,2.76c-1.59,1.06-.16,3.59,1.52,2.59l7.42-4.45c1-.62,1-2.5-.36-2.74-11.06-2-21.44-.4-32.69.27-17.22,1-34.46,1.43-51.71,1.3l.4,3a142,142,0,0,1,39.29-4v-3a461.1,461.1,0,0,0-52,3.62,24.85,24.85,0,0,0-9.83,3.06c-5.62,3-11.77,2-18.1,2v3c1.85,0,8.37-.6,9.59.82l1.06-2.56Q302.19,145.57,286,146l.4,2.95c9.25-3.79,21.1-2.85,31.21-3.58L350.87,143c23.61-1.7,46.26-2.49,70-2a1.51,1.51,0,0,0,.4-3c-6.58-2.1-19.44-6.16-25.55-1.25-1.14.92-.07,2.43,1.06,2.56,4,.45,7.62-1.21,11.6-1.38,4.91-.2,9.93.25,14.85.37v-3l-34.77,1.29.76,2.79c7-3.16,14.82-2.82,22.35-3.09,1.61-.05,2.14-2.64.4-2.94-6.08-1.07-17.2-2.4-22.52,1.82-2.57,2-3.33,4.19-.71,6.55l1.06-2.56-236-4.87-33.38-.68a1.51,1.51,0,0,0-.76,2.79l13.88,7.29c1.06.56,2.68-.39,2.2-1.69l-3.36-9.12-2.2,1.69a391.68,391.68,0,0,0,50.66,20.69c1.54.51,2.34-1.45,1.46-2.51.24.29,4.82-5.61,5.67-6.82,1-1.43-1.16-2.95-2.35-1.82l-10.31,9.77,2.35,1.82A153.86,153.86,0,0,1,257.24,95l-1.16-2.74c-15,9.84-30.27,19.44-45.11,29.58-11.35,7.75-21.85,16.38-28.84,28.4a1.52,1.52,0,0,0,1.69,2.21,178.47,178.47,0,0,0,35.75-11.77c1.51-.69.53-2.66-.76-2.8a60.29,60.29,0,0,0-30.71,4.42,1.51,1.51,0,0,0,.8,2.9q33.67-8,67.26-16.36c1.73-.43,1.22-2.81-.39-2.95a68.92,68.92,0,0,0-38.4,7.79c-1.27.66-.74,3,.75,2.8l18.95-1.92c1.88-.2,2-3.12,0-3-14.21.82-29.38,14.57-43.31,6.44l-.36,2.75a190.16,190.16,0,0,1,28.67-6.56l-.8-2.89-35.22,11.13a1.5,1.5,0,0,0,.4,2.94c22,1.8,40.88-11.5,62.06-14.69l-.8-2.89a239.38,239.38,0,0,0-43,17.32c-1.55.8-.45,3.12,1.16,2.74a127.08,127.08,0,0,0,29.72-11.13c1.53-.8.46-3.17-1.16-2.74-5.42,1.43-9.71,4.36-14.6,6.95-8.67,4.59-18,4.6-27.37,2.77-16.35-3.19,2-7.63-3.68-13.65-2.34-2.51-8.9.14-11.43.59L160,133.68a1.52,1.52,0,0,0-.9,2.21c1.75,3.14,3.49,2,5.89,3.68-.21-.15,2.11-.34,2.11.41,0,2.43-7.67,2-9.23,2.13a1.51,1.51,0,0,0-.4,2.95c5.06,1.73,8.22,2.52,13.65,2.49v-3l-5.37-1.05v2.59l2.78-.52c1.18.27,2.47-1,1.69-2.2l-2.91-4.26-2,2,9.56,4.88.76-2.79-2,0,1.29,2.25,3.77-2a1.51,1.51,0,0,0,1.16-2.74c-3.47-2-10.7-2.11-13.25-4.76l-1.06,2.56,4.3.35.4-2.95-5.58-1-.76,2.79a110,110,0,0,0,22.65.63l-1.29-2.26-8-.54a1.52,1.52,0,0,0-2.75.36c-.27,1.34-1.2,3.59-.74,5,1,3,6.18,3.61,6.2,6.92l2.26-1.3-15.87-7c-5.51-2.42-12.34-4.24-15.19-10.18-.67-1.38-2.81-.67-2.8.75l.32,30.28a1.51,1.51,0,0,0,2.25,1.3l34.77-19.54c10-5.6,21.37-10.47,30.12-17.88,1.11-.94-.07-3.06-1.46-2.51-21.52,8.58-43.3,16.13-64.06,26.54q-10.11,5.07-19.92,10.7c-5.5,3.15-11,7.76-18,6.3-3.85-.81-7.83-2.82-11.52-4.15l-74.13-26.7-.4,2.94A220.37,220.37,0,0,0,48.62,137a1.52,1.52,0,0,0,1.06-2.56c-5.4-6.92-17.9-3.37-24.95-1.66a1.51,1.51,0,0,0,.4,2.95,260.54,260.54,0,0,1,40.57,1.4v-3l-17.25.07v3l43.06-2.09a1.51,1.51,0,0,0,.4-2.95A33.05,33.05,0,0,0,68,134.51c-1.65.79-.4,3,1.15,2.74,15.94-2.65,32.56-1.27,48.64-1l22.71.31c4.76.07,11.1,1.51,15.14-1.51a1.52,1.52,0,0,0,0-2.59c-5.16-2.74-10-1.09-15.51.09l-28.36,6.08c-1.91.41-1.08,3.22.79,2.89a87.33,87.33,0,0,1,21.11-1c1.8.12,1.89-2.39.4-3-13.85-5.16-27.27,4-41.32,1.75l-.4,2.94a56.57,56.57,0,0,0,15.26-.81c1.64-.31,1.29-3.11-.4-3L87.43,140.3l.76,2.8c7.44-4.09,15.4-7.58,23.4-2.58l.76-2.8a108.71,108.71,0,0,1-17.95.51l.4,2.94a21.41,21.41,0,0,1,14.84-.4v-2.9A242.48,242.48,0,0,1,19,133.58a1.5,1.5,0,0,0-.8,2.89,139.75,139.75,0,0,0,75.7,7.06l-.8-2.9a299.9,299.9,0,0,1-32.76,5.15,1.5,1.5,0,0,0,0,3c26.06,1.36,52.16,2.42,77.93-2.57a1.51,1.51,0,0,0,.36-2.74l-3.88-2.23L134,144l45.22-1.36a1.5,1.5,0,0,0,0-3L165.19,138l.76,2.8c6.84-4.7,15.54-6.19,23.46-8.22,8.31-2.14,16.66-4.1,25-5.94,1.62-.36,1.3-3.13-.4-3l-56.81,6.22c-9.33,1-18.77,2.51-28.16,2.68s-18.42-2.11-27.61-4.11c-31.94-7-65-9.52-95.21,5.19a1.51,1.51,0,0,0,.36,2.74l22.77,3.56a1.52,1.52,0,0,0,1.46-2.51c-7.31-8-16.72,1.33-25.29.53-1.92-.18-1.91,2.82,0,3Z"/></g></g></svg>